<svg width="16" height="19" viewBox="0 0 16 19" fill="none" xmlns="http://www.w3.org/2000/svg">
<g opacity="0.9">
<path d="M15.0449 13.0847C13.8786 10.9282 12.7123 11.2687 11.4294 11.1552C11.5461 11.4957 11.5461 11.8362 11.5461 12.2902C13.4121 12.7442 13.8786 14.9007 13.8786 16.1491V17.2841H11.5461V16.1491H12.7123C12.7123 16.1491 12.7123 13.3117 10.9629 13.3117C9.21353 13.3117 9.21353 16.0356 9.21353 16.1491H10.3798V17.2841H8.04726V16.1491C8.04726 14.9007 8.51377 12.6307 10.3798 12.2902C10.3798 11.6092 10.2632 11.0417 10.1465 10.8147C9.91329 10.7012 9.68004 10.4742 9.68004 10.1337C9.68004 9.4527 10.6131 9.6797 11.3128 8.43121C11.3128 8.43121 12.3625 5.82073 12.0126 3.55075H10.8463C10.8463 3.32375 10.9629 3.21025 10.9629 2.98325C10.9629 2.75626 10.9629 2.64276 10.8463 2.41576H11.7793C11.4294 1.28077 10.2632 0.259277 8.04726 0.259277C5.83135 0.259277 4.66508 1.28077 4.19857 2.52926H5.13159C5.13159 2.75626 5.01496 2.86976 5.01496 3.09675C5.01496 3.32375 5.01496 3.43725 5.13159 3.66425H3.96532C3.73206 5.93423 4.66508 8.54471 4.66508 8.54471C5.36484 9.6797 6.29786 9.4527 6.29786 10.2472C6.29786 10.8147 5.71472 11.0417 5.01496 11.1552C4.78171 11.3822 4.54845 11.8362 4.54845 12.7442V14.1062C5.24821 14.3332 5.71472 15.0142 5.71472 15.6951C5.71472 16.4896 4.89833 17.2841 3.96532 17.2841C3.0323 17.2841 2.21591 16.4896 2.21591 15.5816C2.21591 14.7872 2.68242 14.2197 3.38218 13.9927V12.6307C3.38218 12.0632 3.49881 11.6092 3.61544 11.1552C2.79905 11.2687 1.86603 11.6092 1.04964 13.0847C0.349881 14.3332 0 18.4191 0 18.4191H15.9779C16.0945 18.4191 15.7446 14.3332 15.0449 13.0847ZM6.29786 3.09675C6.29786 2.18876 7.11424 1.39427 8.04726 1.39427C8.98028 1.39427 9.79666 2.18876 9.79666 3.09675C9.79666 4.00475 8.98028 4.79924 8.04726 4.79924C7.11424 4.79924 6.29786 4.00475 6.29786 3.09675Z" fill="#949494"/>
<path d="M4.54884 15.5815C4.54884 15.732 4.4874 15.8763 4.37804 15.9828C4.26868 16.0892 4.12036 16.149 3.9657 16.149C3.81105 16.149 3.66272 16.0892 3.55336 15.9828C3.44401 15.8763 3.38257 15.732 3.38257 15.5815C3.38257 15.431 3.44401 15.2866 3.55336 15.1802C3.66272 15.0738 3.81105 15.014 3.9657 15.014C4.12036 15.014 4.26868 15.0738 4.37804 15.1802C4.4874 15.2866 4.54884 15.431 4.54884 15.5815Z" fill="#949494"/>
</g>
</svg>
