<svg width="671" height="344" viewBox="0 0 671 344" fill="none" xmlns="http://www.w3.org/2000/svg">
<g clip-path="url(#clip0_6969_6372)">
<circle cx="335.5" cy="258.5" r="258.5" fill="#130D44"/>
<ellipse cx="335.5" cy="502.5" rx="335.5" ry="258.5" fill="#F4F4F4"/>
<path d="M228.4 47.7425C230.338 46.4943 231.785 44.6149 232.497 42.4222L232.958 41L233.409 42.3983C234.119 44.6056 235.575 46.4973 237.527 47.7497L237.917 48L237.497 48.2713C235.564 49.522 234.121 51.4017 233.413 53.5929L232.958 55L232.492 53.5689C231.783 51.3924 230.349 49.525 228.429 48.2786L228 48L228.4 47.7425Z" fill="white"/>
<path d="M543.4 176.742C545.338 175.494 546.785 173.615 547.497 171.422L547.958 170L548.409 171.398C549.119 173.606 550.575 175.497 552.527 176.75L552.917 177L552.497 177.271C550.564 178.522 549.121 180.402 548.413 182.593L547.958 184L547.492 182.569C546.783 180.392 545.349 178.525 543.429 177.279L543 177L543.4 176.742Z" fill="white"/>
<path d="M126 228C127.255 227.192 128.193 225.974 128.653 224.554L128.833 224L129.009 224.547C129.468 225.971 130.407 227.192 131.667 228C130.407 228.815 129.467 230.04 129.005 231.468L128.833 232L128.658 231.46C128.194 230.037 127.256 228.815 126 228Z" fill="white"/>
<path d="M480 205C481.255 204.192 482.193 202.974 482.653 201.554L482.833 201L483.009 201.547C483.468 202.971 484.407 204.192 485.667 205C484.407 205.815 483.467 207.04 483.005 208.468L482.833 209L482.658 208.46C482.194 207.037 481.256 205.815 480 205Z" fill="white"/>
<path d="M123 212.5C123.785 211.995 124.37 211.234 124.658 210.346L124.771 210L124.881 210.342C125.168 211.232 125.755 211.995 126.542 212.5C125.754 213.009 125.167 213.775 124.878 214.667L124.771 215L124.661 214.663C124.371 213.773 123.785 213.01 123 212.5Z" fill="white"/>
<path d="M536.999 226.5C537.784 225.995 538.37 225.234 538.658 224.346L538.77 224L538.88 224.342C539.167 225.232 539.754 225.995 540.541 226.5C539.754 227.009 539.166 227.775 538.878 228.667L538.77 229L538.66 228.663C538.371 227.773 537.784 227.01 536.999 226.5Z" fill="white"/>
<path d="M570 269.5C570.785 268.995 571.37 268.234 571.658 267.346L571.771 267L571.881 267.342C572.168 268.232 572.755 268.995 573.542 269.5C572.754 270.009 572.167 270.775 571.878 271.667L571.771 272L571.661 271.663C571.371 270.773 570.785 270.01 570 269.5Z" fill="white"/>
<path d="M198 133.5C198.785 132.995 199.37 132.234 199.658 131.346L199.771 131L199.881 131.342C200.168 132.232 200.755 132.995 201.542 133.5C200.754 134.009 200.167 134.775 199.878 135.667L199.771 136L199.661 135.663C199.371 134.773 198.785 134.01 198 133.5Z" fill="white"/>
<path d="M160 186.5C160.785 185.995 161.37 185.234 161.658 184.346L161.771 184L161.881 184.342C162.168 185.232 162.755 185.995 163.542 186.5C162.754 187.009 162.167 187.775 161.878 188.667L161.771 189L161.661 188.663C161.371 187.773 160.785 187.01 160 186.5Z" fill="white"/>
<path d="M390 35C391.255 34.1916 392.193 32.9743 392.653 31.5542L392.833 31L393.009 31.5469C393.468 32.9712 394.407 34.1919 395.667 35C394.407 35.8149 393.467 37.0397 393.005 38.4675L392.833 39L392.658 38.4602C392.194 37.0366 391.256 35.8152 390 35Z" fill="white"/>
<path d="M427 124C428.255 123.192 429.193 121.974 429.653 120.554L429.833 120L430.009 120.547C430.468 121.971 431.407 123.192 432.667 124C431.407 124.815 430.467 126.04 430.005 127.468L429.833 128L429.658 127.46C429.194 126.037 428.256 124.815 427 124Z" fill="white"/>
<path d="M537 240C538.255 239.192 539.193 237.974 539.653 236.554L539.833 236L540.009 236.547C540.468 237.971 541.407 239.192 542.667 240C541.407 240.815 540.467 242.04 540.005 243.468L539.833 244L539.658 243.46C539.194 242.037 538.256 240.815 537 240Z" fill="white"/>
<path d="M310 17C311.255 16.1916 312.193 14.9743 312.653 13.5542L312.833 13L313.009 13.5469C313.468 14.9712 314.407 16.1919 315.667 17C314.407 17.8149 313.467 19.0397 313.005 20.4675L312.833 21L312.658 20.4602C312.194 19.0366 311.256 17.8152 310 17Z" fill="white"/>
<circle cx="265.5" cy="55.5" r="1.5" fill="white"/>
<circle cx="417.5" cy="26.5" r="1.5" fill="white"/>
<circle cx="511.5" cy="112.5" r="1.5" fill="white"/>
<circle cx="0.5" cy="0.5" r="0.5" transform="matrix(-1 0 0 1 416 60)" fill="white"/>
<circle cx="0.5" cy="0.5" r="0.5" transform="matrix(-1 0 0 1 373 47)" fill="white"/>
<circle cx="0.5" cy="0.5" r="0.5" transform="matrix(-1 0 0 1 330 34)" fill="white"/>
<circle cx="0.5" cy="0.5" r="0.5" transform="matrix(-1 0 0 1 267 61)" fill="white"/>
<circle cx="0.5" cy="0.5" r="0.5" transform="matrix(-1 0 0 1 204 68)" fill="white"/>
<circle cx="0.5" cy="0.5" r="0.5" transform="matrix(-1 0 0 1 211 135)" fill="white"/>
<circle cx="0.5" cy="0.5" r="0.5" transform="matrix(-1 0 0 1 438 192)" fill="white"/>
<path d="M424.541 56.5C423.757 55.9947 423.171 55.2339 422.883 54.3464L422.77 54L422.66 54.3418C422.374 55.232 421.786 55.9949 420.999 56.5C421.787 57.0093 422.374 57.7748 422.663 58.6672L422.77 59L422.88 58.6626C423.17 57.7729 423.756 57.0095 424.541 56.5Z" fill="white"/>
<circle cx="426" cy="65" r="1" fill="white"/>
<path d="M353.077 258.645C351.345 262.88 339.718 262.341 338.37 265.96C337.023 269.579 348.881 269.232 348.496 273.775C348.111 278.318 340.95 279.011 328.091 279.743C315.232 280.474 312.383 283.862 299.524 288.059C286.665 292.255 281.005 286.827 273.806 282.9C266.645 279.011 252.9 286.172 248.588 280.128C244.276 274.045 256.019 271.889 266.375 269.54C276.77 267.153 272.073 266.037 271.804 260.993C271.765 259.954 272.073 259.145 272.651 258.491C274.999 255.95 281.814 255.911 289.976 256.065C300.255 256.296 302.835 252.87 317.157 253.178C330.362 253.447 351.075 254.256 352.962 257.682C353.193 257.99 353.231 258.298 353.077 258.645Z" fill="#130D44"/>
<path d="M373.174 266.153C373.059 266.384 372.866 266.615 372.635 266.885C370.98 268.694 365.551 269.811 361.201 269.888C355.811 269.926 350.19 269.58 349.997 266.307C349.843 263.035 363.626 262.842 368.439 263.381C372.597 263.766 373.906 264.729 373.174 266.153Z" fill="#130D44"/>
<path d="M266.644 265.614C266.567 265.806 266.413 265.999 266.221 266.191C264.912 267.616 260.638 268.54 257.212 268.578C252.977 268.617 248.511 268.347 248.395 265.691C248.28 263.073 259.137 262.919 262.91 263.342C266.182 263.689 267.26 264.459 266.644 265.614Z" fill="#130D44"/>
<path d="M335.599 286.135C331.826 287.637 317.735 287.714 317.774 285.866C317.774 285.635 317.851 285.404 318.005 285.211C319.044 283.748 323.356 282.94 327.245 282.786C331.826 282.632 334.945 283.132 336.331 283.864C337.601 284.557 337.409 285.404 335.599 286.135Z" fill="#130D44"/>
<path d="M321.929 273.083C304.45 277.895 278.231 269.887 278.462 265.306C278.501 264.728 278.732 264.228 279.155 263.766C282.158 260.455 294.401 259.531 305.528 260.185C318.579 260.994 327.396 263.073 331.246 265.306C334.749 267.269 330.861 270.619 321.929 273.083Z" fill="#130D44"/>
<path d="M333.671 139.064C333.671 139.064 332.67 135.945 336.135 135.753C339.6 135.599 336.135 130.478 339.6 127.514C343.065 124.549 347.185 125.858 347.339 129.824C347.493 133.789 346.838 136.253 347.339 137.254C347.839 138.255 349.302 135.445 351.112 137.408C352.921 139.372 341.718 177.294 341.718 177.294L335.635 175.793L333.671 139.064Z" fill="white"/>
<path d="M344.681 145.107C343.026 145.877 339.638 168.515 342.448 166.282C343.103 165.782 348.916 143.144 344.681 145.107Z" fill="#130D44"/>
<path d="M373.368 121.197C373.214 122.275 372.945 123.276 372.675 124.161C369.98 132.323 362.627 132.631 362.511 133.748C362.396 134.98 367.824 139.061 362.742 144.027C357.66 148.994 347.304 142.68 344.57 142.449C340.72 142.141 332.712 148.994 327.207 141.871C323.665 137.29 329.363 134.71 328.054 133.44C326.745 132.169 316.504 131.938 316.504 120.427C316.504 120.196 316.504 119.965 316.504 119.734C316.889 108.222 327.13 109.031 327.63 106.759C328.131 104.488 328.015 91.1666 344.185 90.5891C360.394 90.0116 359.893 106.413 361.356 107.183C362.896 107.991 375.101 110.109 373.368 121.197Z" fill="white"/>
<path d="M360.511 130.782C363.976 129.358 369.173 126.817 372.638 124.16C369.943 132.322 362.59 132.63 362.474 133.747C362.359 134.979 367.787 139.06 362.705 144.026C357.623 148.993 347.267 142.679 344.533 142.448C340.683 142.14 332.675 148.993 327.17 141.87C323.628 137.289 329.326 134.709 328.017 133.439C326.708 132.168 316.467 131.937 316.467 120.426C317.352 122.235 319.2 124.815 323.166 126.624C329.826 129.666 334.523 126.278 336.872 129.55C339.22 132.823 334.292 134.863 336.487 136.788C338.72 138.713 342.185 133.862 347.729 136.442C353.311 139.021 356.776 140.715 358.971 138.367C361.281 135.98 355.583 132.823 360.511 130.782Z" fill="white"/>
<path d="M334.214 114.419C334.214 114.419 334.175 114.381 334.06 114.304C333.944 114.227 333.829 114.111 333.636 113.919C333.29 113.572 332.828 113.033 332.443 112.302C332.25 111.955 332.058 111.532 331.904 111.07C331.75 110.608 331.673 110.107 331.596 109.568C331.557 109.029 331.557 108.49 331.634 107.951C331.673 107.682 331.711 107.412 331.788 107.143C331.827 106.989 331.827 106.912 331.904 106.681L332.019 106.296C332.135 105.834 332.443 105.256 332.751 104.756C333.059 104.294 333.482 103.832 333.906 103.485C334.368 103.139 334.83 102.869 335.292 102.677C335.754 102.484 336.254 102.369 336.678 102.292C337.101 102.215 337.525 102.215 337.871 102.215C338.218 102.215 338.526 102.215 338.795 102.253C339.065 102.292 339.257 102.292 339.373 102.33C339.527 102.369 339.604 102.369 339.604 102.369C340.104 102.484 340.412 102.946 340.297 103.447C340.181 103.947 339.719 104.255 339.219 104.14H339.18H339.103C339.103 104.14 339.065 104.14 338.988 104.101C338.872 104.063 338.757 104.024 338.526 104.024C338.333 103.986 338.102 103.947 337.794 103.947C337.525 103.947 337.217 103.909 336.87 103.947C336.524 103.986 336.177 104.024 335.831 104.178C335.484 104.294 335.099 104.448 334.791 104.679C334.445 104.91 334.137 105.218 333.867 105.564C333.598 105.911 333.405 106.219 333.213 106.758L333.059 107.104L332.982 107.412C332.905 107.643 332.828 107.874 332.828 108.105C332.751 108.567 332.712 109.029 332.712 109.453C332.712 109.876 332.789 110.338 332.866 110.723C332.943 111.108 333.097 111.493 333.251 111.801C333.559 112.456 333.944 112.956 334.214 113.264C334.368 113.418 334.483 113.534 334.56 113.611C334.637 113.688 334.676 113.726 334.676 113.726H334.714C334.868 113.88 334.907 114.15 334.753 114.304C334.637 114.496 334.406 114.535 334.214 114.419Z" fill="white"/>
<path d="M338.874 103.101C338.874 103.101 338.874 103.024 338.913 102.831C338.951 102.677 339.028 102.446 339.105 102.138C339.298 101.561 339.606 100.752 340.26 99.8669C340.568 99.4434 340.992 98.9814 341.492 98.6349C341.993 98.2499 342.57 97.9419 343.186 97.6724C343.494 97.5569 343.841 97.4799 344.187 97.3644C344.534 97.2874 344.88 97.2489 345.227 97.2104C345.573 97.1719 345.92 97.1719 346.266 97.1719H346.536H346.574H346.69H346.728H346.844L347.306 97.2104C347.46 97.2489 347.575 97.2489 347.768 97.2874L348.345 97.4414C348.538 97.5184 348.73 97.5569 348.923 97.6339L349.423 97.8649C349.77 98.0189 350.078 98.2114 350.347 98.4424C350.655 98.6349 350.886 98.9044 351.156 99.1354C352.118 100.136 352.657 101.33 352.965 102.292C353.273 103.293 353.427 104.14 353.504 104.718C353.543 105.026 353.543 105.257 353.581 105.411C353.581 105.603 353.581 105.68 353.581 105.68C353.62 106.373 353.081 106.951 352.388 106.951C351.695 106.989 351.117 106.45 351.117 105.757V105.719V105.642C351.117 105.642 351.117 105.603 351.117 105.488C351.117 105.372 351.117 105.18 351.079 104.949C351.04 104.487 350.963 103.755 350.732 102.985C350.501 102.215 350.116 101.33 349.5 100.637C349.346 100.483 349.192 100.29 349 100.136C348.807 99.9824 348.615 99.8284 348.422 99.7514L348.114 99.5589C347.999 99.5204 347.922 99.4819 347.806 99.4434L347.498 99.3279C347.383 99.2894 347.19 99.2894 347.075 99.2509L346.613 99.1739H346.497H346.459C346.382 99.1739 346.574 99.1739 346.536 99.1739H346.497H346.305C346.035 99.1739 345.766 99.1354 345.496 99.1739C345.227 99.2124 344.957 99.2124 344.726 99.2509C344.495 99.3279 344.226 99.3664 343.995 99.4434C343.533 99.5974 343.109 99.7899 342.763 100.059C342.416 100.29 342.108 100.598 341.877 100.906C341.377 101.522 341.107 102.138 340.953 102.6C340.876 102.831 340.838 102.985 340.799 103.101C340.761 103.216 340.761 103.255 340.761 103.255V103.332C340.645 103.832 340.183 104.102 339.683 104.025C339.067 104.025 338.797 103.563 338.874 103.101Z" fill="#130D44"/>
<path d="M358.008 108.762C358.008 108.762 358.278 108.762 358.701 108.8C359.125 108.839 359.702 108.916 360.395 109.108C361.088 109.301 361.897 109.609 362.667 110.225C363.052 110.533 363.398 110.879 363.706 111.303C363.86 111.534 363.976 111.726 364.091 111.996L364.245 112.342L364.322 112.727C364.438 113.112 364.553 113.69 364.553 114.152C364.592 114.652 364.553 115.114 364.438 115.538C364.245 116.423 363.899 117.193 363.514 117.771C363.129 118.348 362.705 118.772 362.436 119.041C362.128 119.311 361.935 119.465 361.935 119.465C361.743 119.619 361.435 119.58 361.281 119.388C361.127 119.195 361.165 118.887 361.358 118.733C361.319 118.772 362.012 118.233 362.59 117.193C362.898 116.693 363.129 116.038 363.206 115.307C363.244 114.96 363.244 114.575 363.206 114.229C363.167 113.844 363.09 113.574 362.936 113.112L362.859 112.843L362.744 112.612C362.667 112.458 362.551 112.304 362.474 112.188C362.282 111.919 362.012 111.726 361.743 111.534C361.165 111.187 360.549 110.956 359.972 110.841C359.394 110.725 358.932 110.687 358.586 110.687C358.239 110.687 358.085 110.687 358.085 110.687C357.546 110.687 357.084 110.263 357.084 109.724C357.046 109.224 357.469 108.762 358.008 108.762Z" fill="#130D44"/>
<path d="M332.445 113.458C332.445 113.458 332.406 113.458 332.368 113.458C332.291 113.458 332.214 113.497 332.098 113.535C331.829 113.612 331.482 113.728 331.097 113.997C330.905 114.113 330.712 114.267 330.558 114.459C330.366 114.652 330.212 114.883 330.096 115.152C329.981 115.422 329.865 115.691 329.788 116.038C329.711 116.346 329.673 116.731 329.673 117.039C329.673 117.462 329.711 117.732 329.788 118.04C329.865 118.348 329.981 118.656 330.173 118.925C330.52 119.464 330.982 119.849 331.444 120.119C331.906 120.388 332.329 120.542 332.637 120.619C332.945 120.696 333.138 120.735 333.099 120.735C333.292 120.735 333.446 120.927 333.407 121.12C333.407 121.312 333.215 121.466 333.022 121.428C333.022 121.428 332.791 121.428 332.445 121.351C332.098 121.274 331.598 121.158 330.982 120.927C330.404 120.658 329.75 120.234 329.211 119.58C328.941 119.233 328.749 118.848 328.595 118.463C328.518 118.271 328.479 118.001 328.402 117.809C328.325 117.578 328.325 117.424 328.287 117.193C328.287 117.077 328.248 117.039 328.248 116.846V116.538C328.248 116.307 328.248 116.115 328.287 115.884C328.325 115.46 328.402 114.998 328.556 114.613C328.71 114.19 328.903 113.805 329.172 113.497C329.403 113.15 329.673 112.881 329.981 112.65C330.52 112.188 331.059 111.957 331.444 111.803C331.636 111.726 331.79 111.687 331.906 111.649C332.021 111.61 332.098 111.61 332.098 111.61C332.637 111.495 333.176 111.803 333.292 112.342C333.407 112.881 333.099 113.42 332.56 113.535C332.522 113.458 332.483 113.458 332.445 113.458Z" fill="#130D44"/>
<path d="M356.047 125.084C356.047 125.084 356.047 125.354 355.97 125.777C355.893 126.201 355.778 126.778 355.547 127.471C355.316 128.164 354.969 128.973 354.315 129.704C354.007 130.051 353.622 130.397 353.16 130.667C352.929 130.782 352.698 130.936 352.467 131.013L352.082 131.129L351.735 131.206C351.35 131.321 350.773 131.36 350.311 131.36C349.81 131.36 349.348 131.283 348.925 131.206C348.039 130.975 347.308 130.59 346.73 130.166C346.153 129.743 345.768 129.319 345.498 129.011C345.229 128.703 345.113 128.511 345.113 128.472C344.959 128.28 345.036 127.972 345.229 127.818C345.421 127.664 345.729 127.741 345.883 127.933C345.883 127.895 346.345 128.588 347.385 129.242C347.885 129.55 348.54 129.858 349.233 129.974C349.579 130.051 349.964 130.051 350.311 130.012C350.696 129.974 350.965 129.935 351.427 129.781L351.697 129.704L351.928 129.589C352.082 129.512 352.236 129.435 352.351 129.319C352.621 129.127 352.852 128.857 353.044 128.626C353.429 128.087 353.66 127.471 353.814 126.894C353.968 126.316 354.007 125.854 354.045 125.508C354.084 125.161 354.045 125.007 354.045 125.007C354.045 124.468 354.507 124.045 355.046 124.045C355.624 124.083 356.086 124.507 356.047 125.084Z" fill="#130D44"/>
<path d="M325.471 156.928L323.854 152.423C323.854 152.423 327.588 151.846 325.625 146.956C324.508 144.223 321.351 146.379 321.351 146.379C321.351 146.379 320.812 142.413 316.693 143.299C313.459 143.992 313.382 149.189 314.652 150.845C315.884 152.5 317.155 152.346 317.155 152.346C317.155 152.346 314.46 152.269 314.883 154.733C315.307 157.197 317.424 157.313 319.041 156.504C319.811 156.119 320.389 155.157 320.389 155.157L323.892 158.044C324.2 158.314 324.662 158.352 325.047 158.16C325.471 157.967 325.663 157.428 325.471 156.928Z" fill="white"/>
<path d="M363.898 167.016C363.744 167.748 363.475 168.402 363.167 168.749C362.243 169.827 360.78 169.942 360.78 169.942C360.78 169.942 362.089 170.674 361.126 172.252C360.395 173.407 358.239 172.714 357.661 171.983C357.045 171.251 357.045 170.404 357.045 170.404L354.427 172.637C354.004 173.022 353.311 172.984 352.926 172.522C352.579 172.137 352.579 171.521 352.926 171.136L353.272 170.751L355.39 168.248C355.39 168.248 352.387 167.016 353.465 164.783C354.427 162.743 356.352 163.705 356.853 164.244C357.315 164.745 357.392 165.592 357.392 165.592C357.392 165.592 358.277 162.165 361.473 162.935C363.86 163.474 364.206 165.438 363.898 167.016Z" fill="white"/>
<path d="M282.044 214.102C282.66 214.949 282.698 216.104 282.082 216.989L281.851 217.297C281.62 217.605 281.274 217.759 280.927 217.759C280.658 217.759 280.427 217.682 280.196 217.49L276.5 214.256C276.5 214.256 274.69 218.452 269.762 217.49C266.336 216.797 265.45 213.871 265.835 211.445C265.989 210.252 266.451 209.174 267.067 208.519C268.145 207.364 269.531 207.21 270.532 207.249C269.531 206.941 268.107 206.132 267.568 204.13C267.221 202.86 267.298 201.589 267.76 200.588C268.492 199.01 270.147 198.009 272.496 198.278C276.384 198.779 276.461 204.284 276.461 204.284C276.461 204.284 277.809 200.55 281.505 202.167C284.739 203.591 283.815 207.903 281.62 209.597C280.465 210.483 279.464 210.675 279.464 210.675L282.044 214.102Z" fill="white"/>
<path d="M273.69 207.943C273.69 207.943 272.112 207.635 270.572 207.211C269.571 206.903 268.146 206.133 267.569 204.093C267.222 202.822 267.299 201.552 267.761 200.551C267.992 201.898 268.608 204.016 270.11 205.402C272.458 207.558 273.69 207.943 273.69 207.943Z" fill="white"/>
<path d="M281.851 217.26C281.62 217.568 281.274 217.722 280.927 217.722C280.658 217.722 280.427 217.645 280.196 217.453L276.5 214.219C276.5 214.219 274.69 218.415 269.762 217.453C266.336 216.76 265.45 213.834 265.835 211.408C266.374 212.563 267.568 213.872 270.301 214.334C275.768 215.297 275.922 211.87 275.922 211.87L281.851 217.26Z" fill="white"/>
<path d="M296.522 205.595C296.022 205.595 294.366 205.48 292.865 204.094C291.363 202.708 290.593 200.513 290.555 197.626C290.478 190.811 289.169 189.887 287.744 189.464C285.742 188.886 283.586 189.656 283.586 189.656C282.816 189.964 281.969 189.579 281.661 188.809C281.353 188.039 281.738 187.192 282.508 186.884C282.624 186.846 285.55 185.729 288.553 186.576C292.557 187.731 293.442 191.62 293.481 197.549C293.519 199.551 293.981 201.052 294.79 201.861C295.56 202.592 296.445 202.592 296.445 202.592C297.254 202.515 297.947 203.208 297.985 204.017C298.024 204.825 297.408 205.518 296.599 205.557C296.638 205.595 296.599 205.595 296.522 205.595Z" fill="white"/>
<path d="M295.329 184.882C294.944 185.228 293.828 186.46 293.674 188.462C293.558 190.503 294.482 192.62 296.446 194.776C301.027 199.781 300.758 201.36 299.988 202.63C298.91 204.44 296.831 205.325 296.831 205.325C296.061 205.633 295.714 206.48 296.022 207.25C296.33 208.02 297.177 208.367 297.947 208.059C298.063 208.02 300.989 206.827 302.567 204.132C304.685 200.513 302.644 197.125 298.679 192.736C297.331 191.273 296.638 189.848 296.677 188.693C296.715 187.615 297.37 187.038 297.408 186.999C298.024 186.499 298.063 185.536 297.524 184.92C296.985 184.304 296.099 184.227 295.445 184.766C295.406 184.805 295.368 184.843 295.329 184.882Z" fill="white"/>
<path d="M363.553 193.696C362.09 193.696 360.473 193.234 359.01 192.079C356.508 190.154 354.852 191.463 354.852 191.502C354.236 192.041 353.274 191.964 352.773 191.309C352.234 190.693 352.311 189.731 352.966 189.23C354.159 188.229 357.355 187.036 360.858 189.731C362.745 191.194 364.747 190.809 365.517 190.077C366.248 189.423 366.672 187.536 366.749 186.42C366.787 185.611 367.519 184.957 368.327 185.034C369.136 185.072 369.752 185.804 369.713 186.612C369.675 186.997 369.405 190.578 367.519 192.272C366.556 193.157 365.132 193.696 363.553 193.696Z" fill="white"/>
<path d="M362.779 212.025L375.061 225.77C375.061 225.77 371.48 219.61 368.4 215.721C365.166 211.717 362.779 212.025 362.779 212.025Z" fill="white"/>
<path d="M372.444 218.339C372.444 218.339 369.287 214.566 368.825 213.988C367.593 212.487 366.707 212.025 366.707 212.025C366.707 212.025 367.824 211.871 369.287 213.719C370.75 215.528 372.444 218.339 372.444 218.339Z" fill="white"/>
<path d="M353.615 205.523L359.159 195.975L355.848 204.791L360.738 209.642L353.615 205.523Z" fill="white"/>
<path d="M362.278 200.748L354.309 205.022L356.272 205.753L362.278 200.748Z" fill="white"/>
<path d="M281.776 183.918L278.888 180.569C278.542 180.145 278.58 179.529 279.004 179.144C279.427 178.798 280.043 178.836 280.428 179.26C280.505 179.337 280.544 179.414 280.582 179.491L282.43 183.495C282.507 183.687 282.43 183.918 282.238 183.995C282.084 184.111 281.891 184.072 281.776 183.918Z" fill="white"/>
<path d="M279.12 187.577L273.692 188.116C273.153 188.154 272.652 187.769 272.614 187.23C272.575 186.691 272.96 186.191 273.499 186.152C273.576 186.152 273.653 186.152 273.73 186.152L279.12 186.807C279.351 186.845 279.467 187.038 279.467 187.23C279.428 187.423 279.313 187.577 279.12 187.577Z" fill="white"/>
<path d="M281.507 192.041L278.85 195.352C278.504 195.776 277.888 195.853 277.464 195.506C277.041 195.16 276.964 194.544 277.31 194.12C277.349 194.043 277.426 193.966 277.503 193.928L280.968 191.464C281.16 191.348 281.391 191.387 281.545 191.541C281.661 191.695 281.622 191.887 281.507 192.041Z" fill="white"/>
<path d="M297.599 181.954L299.639 179.259C299.909 178.912 300.371 178.874 300.717 179.105C301.064 179.374 301.102 179.836 300.871 180.183C300.833 180.221 300.794 180.298 300.717 180.337L298.022 182.377C297.907 182.493 297.714 182.454 297.599 182.339C297.522 182.223 297.522 182.069 297.599 181.954Z" fill="white"/>
<path d="M294.44 180.566L293.131 176.601C293.015 176.216 293.208 175.754 293.631 175.638C294.016 175.523 294.478 175.715 294.594 176.139C294.594 176.177 294.632 176.254 294.632 176.293L295.017 180.451C295.017 180.605 294.902 180.759 294.748 180.759C294.594 180.759 294.478 180.682 294.44 180.566Z" fill="white"/>
<path d="M291.476 183.069L288.55 181.606C288.165 181.413 288.011 180.951 288.204 180.566C288.396 180.181 288.858 180.027 289.243 180.22C289.32 180.258 289.359 180.297 289.436 180.335L291.861 182.53C291.977 182.645 292.015 182.838 291.9 182.992C291.746 183.107 291.592 183.146 291.476 183.069Z" fill="white"/>
<path d="M369.131 178.065L368.438 182.03C368.4 182.261 368.207 182.377 367.976 182.338C367.784 182.3 367.668 182.146 367.63 181.992L367.129 177.988C367.052 177.449 367.437 176.948 368.015 176.871C368.554 176.794 369.054 177.179 369.131 177.757C369.17 177.872 369.17 177.949 369.131 178.065Z" fill="white"/>
<path d="M376.099 181.801L372.057 184.457C371.787 184.611 371.441 184.573 371.287 184.303C371.133 184.072 371.171 183.764 371.364 183.572L374.906 180.261C375.291 179.876 375.945 179.914 376.292 180.299C376.677 180.684 376.638 181.339 376.253 181.685C376.176 181.724 376.138 181.762 376.099 181.801Z" fill="white"/>
<path d="M375.447 190.269L371.982 188.613C371.751 188.498 371.635 188.228 371.751 187.959C371.828 187.766 372.059 187.651 372.251 187.689L376.024 188.344C376.563 188.421 376.948 188.96 376.833 189.499C376.756 190.038 376.217 190.423 375.678 190.307C375.639 190.346 375.562 190.307 375.447 190.269Z" fill="white"/>
<path d="M321.199 171.404C321.199 171.404 304.99 190.808 304.374 190.308C304.22 190.192 303.951 189.307 303.604 187.882C302.68 183.84 301.41 175.37 301.256 166.361C301.063 154.233 301.371 150.537 304.605 149.036C306.992 147.919 313.499 158.661 317.772 165.86C319.312 168.324 320.506 170.365 321.199 171.404Z" fill="white"/>
<path d="M321.2 171.405C321.2 171.405 304.991 190.809 304.375 190.309C304.221 190.193 303.952 189.308 303.605 187.883C305.184 183.841 307.109 179.567 309.226 176.333C312.653 171.174 315.733 167.825 317.773 165.861C319.313 168.325 320.507 170.366 321.2 171.405Z" fill="#130D44"/>
<path d="M377.332 238.122C376.331 240.201 367.052 237.313 359.468 234.695C358.005 234.195 356.58 233.694 355.271 233.232C352.268 232.193 350.266 229.344 350.266 226.148C350.305 218.718 349.612 206.898 351.036 206.282C352.73 205.512 361.123 213.79 368.785 222.683C376.716 231.885 378.833 234.926 377.332 238.122Z" fill="white"/>
<path d="M359.468 234.696C358.005 234.196 356.58 233.695 355.271 233.233C352.268 232.194 350.266 229.345 350.266 226.149C350.305 218.719 349.612 206.899 351.036 206.283C351.075 206.283 354.232 216.062 356.388 223.762C357.62 228.228 358.659 231.886 359.468 234.696Z" fill="white"/>
<path d="M353.926 187.037C353.657 197.547 352.117 215.026 345.841 232.351C340.413 247.366 335.716 257.338 332.597 263.228C330.018 268.079 328.516 270.235 328.516 270.235C328.516 270.235 324.435 272.276 316.581 272.892C312.192 273.238 306.648 273.161 299.988 272.045C281.354 268.926 279.39 263.074 279.39 263.074C279.39 263.074 279.121 259.725 280.006 253.141C281.123 244.671 284.203 230.888 292.249 212.062C301.297 191.002 311.615 178.605 318.006 172.33C321.779 168.634 324.204 167.055 324.204 167.055C324.204 167.055 329.209 165.015 339.566 168.249C343.685 169.519 346.804 171.175 348.998 172.753C352.386 175.102 353.772 177.181 353.772 177.181C353.772 177.181 354.119 180.954 353.926 187.037Z" fill="white"/>
<path d="M353.925 187.037C353.656 197.548 352.116 215.027 345.84 232.352C340.412 247.367 335.715 257.338 332.596 263.229C330.017 268.08 328.515 270.236 328.515 270.236C328.515 270.236 324.434 272.276 316.58 272.892C321.585 266.039 329.016 254.143 336.408 236.125C348.42 206.865 349.151 181.147 349.036 172.754C352.424 175.102 353.81 177.181 353.81 177.181C353.81 177.181 354.118 180.954 353.925 187.037Z" fill="white"/>
<path d="M284.394 251.486C284.279 251.486 284.202 251.486 284.086 251.447C283.008 251.293 282.277 250.254 282.431 249.176C282.546 248.521 285.01 232.659 291.825 216.682C298.639 200.743 304.029 192.927 304.26 192.581C304.876 191.695 306.108 191.464 307.032 192.08C307.918 192.696 308.149 193.928 307.533 194.852C307.494 194.929 302.104 202.706 295.482 218.222C288.86 233.737 286.358 249.599 286.358 249.753C286.165 250.793 285.318 251.486 284.394 251.486Z" fill="#130D44"/>
<path d="M353.927 187.038C352.58 185.844 350.847 184.458 348.768 183.034C347.921 182.456 346.997 181.84 345.996 181.224C345.457 180.916 344.918 180.57 344.341 180.262C342.069 178.953 339.49 177.721 336.679 176.643C336.448 176.566 336.256 176.489 336.025 176.412C335.601 176.258 335.216 176.104 334.831 175.988C331.597 174.833 328.748 174.063 326.323 173.524C325.63 173.37 324.937 173.255 324.321 173.101C321.626 172.6 319.547 172.446 318.084 172.369C321.857 168.673 324.282 167.095 324.282 167.095C324.282 167.095 325.822 166.479 328.979 166.479C329.672 166.479 330.442 166.517 331.289 166.594C333.291 166.748 335.717 167.172 338.566 167.98C338.912 168.096 339.297 168.173 339.644 168.288C339.913 168.365 340.183 168.442 340.452 168.558C342.685 169.328 344.61 170.175 346.227 171.022C346.882 171.368 347.459 171.715 348.037 172.1C348.422 172.331 348.73 172.562 349.076 172.793C352.464 175.141 353.85 177.22 353.85 177.22C353.85 177.22 354.12 180.955 353.927 187.038Z" fill="#130D44"/>
<path d="M353.928 187.036C352.581 185.843 350.848 184.457 348.769 183.032C349.077 178.528 349.077 175.024 349.077 172.791C352.465 175.14 353.851 177.219 353.851 177.219C353.851 177.219 354.121 180.953 353.928 187.036Z" fill="white"/>
<path d="M348.036 172.098L346.265 180.761C346.226 180.953 346.149 181.107 345.995 181.261C345.456 180.953 344.917 180.607 344.34 180.299L346.226 171.059C346.881 171.405 347.497 171.752 348.036 172.098Z" fill="white"/>
<path d="M340.451 168.554L336.678 176.639C336.447 176.562 336.255 176.485 336.024 176.408C335.6 176.254 335.215 176.1 334.83 175.985L338.526 167.977C338.873 168.092 339.258 168.169 339.604 168.285C339.912 168.4 340.182 168.477 340.451 168.554Z" fill="white"/>
<path d="M331.289 166.591C331.25 166.668 331.212 166.745 331.173 166.822L326.322 173.521C325.629 173.367 324.936 173.252 324.32 173.098C324.359 172.944 324.397 172.79 324.513 172.636L328.979 166.438C329.672 166.476 330.442 166.514 331.289 166.591Z" fill="white"/>
<path d="M303.431 258.27C312.482 261.375 323.309 253.718 327.614 241.167C331.92 228.617 328.073 215.926 319.022 212.821C309.972 209.716 299.144 217.373 294.839 229.924C290.533 242.474 294.38 255.165 303.431 258.27Z" fill="white"/>
<path d="M304.668 257.283C313.719 260.388 324.507 252.845 328.764 240.436C333.022 228.026 329.136 215.45 320.085 212.345C311.034 209.24 300.246 216.783 295.989 229.192C291.732 241.602 295.618 254.178 304.668 257.283Z" fill="#130D44"/>
<path d="M305.566 252.988C312.746 255.451 321.358 249.312 324.801 239.276C328.244 229.24 325.214 219.107 318.034 216.644C310.854 214.18 302.242 220.32 298.799 230.356C295.356 240.392 298.386 250.525 305.566 252.988Z" fill="white"/>
<path d="M309.208 228.979C311.259 229.682 313.722 227.921 314.709 225.045C315.696 222.169 314.832 219.267 312.781 218.563C310.729 217.86 308.267 219.621 307.28 222.497C306.293 225.373 307.156 228.275 309.208 228.979Z" fill="#130D44"/>
<path d="M304.502 241.625C305.609 242.004 306.93 241.073 307.455 239.544C307.979 238.016 307.508 236.469 306.401 236.089C305.295 235.71 303.973 236.641 303.449 238.17C302.925 239.699 303.396 241.245 304.502 241.625Z" fill="#130D44"/>
<path d="M324.817 239.279C321.352 249.328 312.767 255.449 305.567 252.985C301.794 251.676 299.138 248.25 298.021 243.822C298.945 244.438 299.946 244.977 301.024 245.324C309.956 248.404 320.698 240.742 324.971 228.23C325.241 227.46 325.472 226.69 325.664 225.92C326.627 229.885 326.434 234.621 324.817 239.279Z" fill="#130D44"/>
<circle cx="557" cy="193" r="1" fill="white"/>
<circle cx="454" cy="153" r="1" fill="white"/>
<circle cx="479" cy="92" r="1" fill="white"/>
<circle cx="354" cy="17" r="1" fill="white"/>
<circle cx="248" cy="105" r="1" fill="white"/>
<circle cx="202" cy="176" r="1" fill="white"/>
<circle cx="95" cy="265" r="1" fill="white"/>
<circle cx="212" cy="222" r="1" fill="white"/>
<path d="M139 151.5C139.785 150.995 140.37 150.234 140.658 149.346L140.771 149L140.881 149.342C141.168 150.232 141.755 150.995 142.542 151.5C141.754 152.009 141.167 152.775 140.878 153.667L140.771 154L140.661 153.663C140.371 152.773 139.785 152.01 139 151.5Z" fill="white"/>
<path d="M475 75.5C475.785 74.9947 476.37 74.2339 476.658 73.3464L476.771 73L476.881 73.3418C477.168 74.232 477.755 74.9949 478.542 75.5C477.754 76.0093 477.167 76.7748 476.878 77.6672L476.771 78L476.661 77.6626C476.371 76.7729 475.785 76.0095 475 75.5Z" fill="white"/>
<path d="M170 105C171.255 104.192 172.193 102.974 172.653 101.554L172.833 101L173.009 101.547C173.468 102.971 174.407 104.192 175.667 105C174.407 105.815 173.467 107.04 173.005 108.468L172.833 109L172.658 108.46C172.194 107.037 171.256 105.815 170 105Z" fill="white"/>
<path d="M130 142.5C130.785 141.995 131.37 141.234 131.658 140.346L131.771 140L131.881 140.342C132.168 141.232 132.755 141.995 133.542 142.5C132.754 143.009 132.167 143.775 131.878 144.667L131.771 145L131.661 144.663C131.371 143.773 130.785 143.01 130 142.5Z" fill="white"/>
<path d="M416.049 247.728L413.129 246.151C412.116 248.04 410.609 249.618 408.768 250.716L402.811 254.267C408.15 255.564 413.661 252.903 415.963 247.914L416.049 247.728Z" fill="#F4F4F4"/>
<path d="M483.474 266.354L487.408 264.568C487.646 267.534 488.424 270.43 489.702 273.116L492.598 279.199L486.624 278.676C480.279 278.12 478.174 269.886 483.474 266.354Z" fill="#F4F4F4"/>
<ellipse cx="449.998" cy="256.818" rx="38.5" ry="11" transform="rotate(13.2697 449.998 256.818)" fill="#F4F4F4"/>
<ellipse cx="449.492" cy="258.971" rx="34.6466" ry="8.78779" transform="rotate(13.2697 449.492 258.971)" fill="#D1CFE0"/>
<path d="M414.01 245.76L410.901 244.597C410.156 246.607 408.879 248.376 407.205 249.715L401.79 254.048C406.681 252.743 410.988 249.822 414.01 245.76Z" fill="#130D44"/>
<path d="M487.461 266.033L490.424 266.2C489.957 268.292 490.069 270.471 490.746 272.505L492.938 279.084L492.563 278.669C489.418 275.195 487.61 270.717 487.461 266.033Z" fill="#130D44"/>
<ellipse cx="20.2382" cy="7.47376" rx="20.2382" ry="7.47376" transform="matrix(0.939045 0.343794 -0.185284 0.982685 505.783 304.608)" fill="#D1CFE0"/>
<path d="M546.54 337.274L544.552 332.247C544.024 330.912 543.839 329.479 544.014 328.087C544.331 325.577 543.469 323 541.682 321.112L544.2 323.771C544.839 324.447 545.278 325.288 545.46 326.19L545.74 330.369L546.54 337.274Z" fill="#D1CFE0"/>
<path d="M495 313.064L498.949 311.944C500.449 311.518 501.819 310.757 502.943 309.724C504.97 307.863 507.748 306.924 510.562 307.149L512.425 307.297L507.154 306.735C506.229 306.636 505.295 306.797 504.467 307.199L500.974 309.512L495 313.064Z" fill="#D1CFE0"/>
<ellipse cx="159.576" cy="284.027" rx="38.5" ry="11" transform="rotate(-26.5076 159.576 284.027)" fill="#F4F4F4"/>
<ellipse cx="160.563" cy="286.005" rx="34.6466" ry="8.78779" transform="rotate(-26.5076 160.563 286.005)" fill="#D1CFE0"/>
<path d="M124.841 298.555L121.708 299.65C122.422 301.671 122.572 303.849 122.142 305.949L120.753 312.743C123.677 308.61 125.118 303.61 124.841 298.555Z" fill="#130D44"/>
<path d="M194.263 267.141L196.646 265.373C197.626 267.28 199.106 268.883 200.928 270.013L206.822 273.667L206.268 273.588C201.629 272.93 197.374 270.645 194.263 267.141Z" fill="#130D44"/>
<ellipse cx="11.3859" cy="6.10329" rx="11.3859" ry="6.10329" transform="matrix(0.864856 -0.50202 0.370791 0.928717 108.878 332.468)" fill="#D1CFE0"/>
<path d="M138 330.524L134.774 329.463C133.623 329.085 132.655 328.127 132.04 326.759C131.352 325.232 130.228 324.222 128.911 323.95L130.624 324.303C131.188 324.42 131.702 324.747 132.116 325.253C133.234 326.999 134.603 328.394 136.151 329.365L138 330.524Z" fill="#D1CFE0"/>
<path d="M108 344.005L109.064 341.122C109.48 339.996 109.708 338.789 109.741 337.546C109.806 335.071 110.647 332.77 112.141 330.973L112.418 330.64L110.334 332.995C109.858 333.532 109.526 334.19 109.363 334.917L108.917 338.369L108 344.005Z" fill="#D1CFE0"/>
<ellipse cx="16.5597" cy="7.37438" rx="16.5597" ry="7.37438" transform="matrix(0.994292 0.10669 -0.0195663 0.999809 385.675 290.801)" fill="#D1CFE0"/>
<path d="M423.372 311.544L421.078 307.263C420.46 306.111 420.118 304.812 420.075 303.463C419.994 300.928 418.858 298.627 416.945 297.127L419.571 299.186C420.234 299.707 420.729 300.414 421 301.231L421.79 305.153L423.372 311.544Z" fill="#D1CFE0"/>
<path d="M378 301.649L381.062 299.573C382.244 298.772 383.25 297.713 384.015 296.462C385.451 294.114 387.706 292.483 390.299 291.918L391.464 291.664L387.177 292.462C386.343 292.617 385.572 293.016 384.948 293.614L382.405 296.72L378 301.649Z" fill="#D1CFE0"/>
</g>
<defs>
<clipPath id="clip0_6969_6372">
<rect width="671" height="344" fill="white"/>
</clipPath>
</defs>
</svg>
