<svg width="136" height="33" viewBox="0 0 136 33" fill="none" xmlns="http://www.w3.org/2000/svg">
<g clip-path="url(#clip0_421_1173)">
<g clip-path="url(#clip1_421_1173)">
<mask id="mask0_421_1173" style="mask-type:luminance" maskUnits="userSpaceOnUse" x="0" y="0" width="136" height="38">
<path d="M136 0H0V38H136V0Z" fill="white"/>
</mask>
<g mask="url(#mask0_421_1173)">
<path d="M42.7241 7.89039C42.7241 6.82108 43.5621 5.94312 44.6205 5.94312C45.668 5.94312 46.5279 6.79857 46.5279 7.87913C46.5279 8.39691 46.3295 8.90342 45.9656 9.26361C45.2159 10.0178 44.0141 10.0178 43.2754 9.25236C42.9226 8.89217 42.7352 8.39691 42.7241 7.89039ZM43.3305 12.8993H45.9215V26.8454H43.3305V12.8993Z" fill="white"/>
<path d="M64.3449 10.5131C63.7716 9.74772 63.0109 9.1399 62.1509 8.74594C61.2909 8.34072 60.3647 8.12686 59.4165 8.12686C58.336 8.11561 57.2666 8.34072 56.2853 8.79096C55.3702 9.21869 54.5543 9.83776 53.8927 10.6032C53.2202 11.3911 52.691 12.3028 52.3492 13.2933C51.9743 14.3514 51.7869 15.477 51.7979 16.6026C51.7869 17.6606 51.9633 18.7187 52.3161 19.7205C52.6469 20.6772 53.154 21.5552 53.8156 22.3093C54.4771 23.0635 55.293 23.6713 56.2081 24.0765C57.1453 24.5042 58.2148 24.7294 59.4055 24.7294C60.5742 24.7294 61.6106 24.4817 62.4927 23.9977C63.3857 23.4912 64.1575 22.7933 64.7419 21.9379L67.0793 23.7276C66.8257 24.054 66.5611 24.3692 66.2744 24.6506C65.8113 25.1121 65.3042 25.5173 64.7419 25.8549C64.0252 26.2939 63.2534 26.6541 62.4486 26.913C61.5555 27.2169 60.5191 27.3632 59.3504 27.3632C57.7296 27.3632 56.2743 27.0481 54.9843 26.4177C51.2576 24.6168 48.8761 20.801 48.8651 16.5913C48.8541 15.0718 49.1187 13.5522 49.6479 12.134C50.133 10.817 50.8828 9.6239 51.831 8.61087C52.7792 7.60909 53.9258 6.82118 55.1938 6.3034C56.5719 5.74061 58.0383 5.45921 59.5158 5.48172C60.8719 5.48172 62.217 5.75186 63.4739 6.28089C64.7308 6.78741 65.8334 7.6316 66.6603 8.72343L64.3449 10.5131Z" fill="white"/>
<path d="M67.9394 19.8667C67.9284 18.8875 68.1269 17.9195 68.5017 17.0077C70.0894 13.2257 74.3784 11.4811 78.0829 13.1019C79.8029 13.8561 81.1701 15.2518 81.9088 17.0077C82.2837 17.9082 82.4821 18.8762 82.4711 19.8667C82.4821 21.814 81.7214 23.6825 80.3652 25.0557C79.7037 25.7198 78.9209 26.2488 78.0609 26.6203C76.2306 27.3857 74.1799 27.3857 72.3497 26.6203C71.4897 26.2601 70.7068 25.7311 70.0453 25.0557C68.6892 23.6825 67.9394 21.814 67.9394 19.8667ZM70.7068 19.8667C70.6958 20.5308 70.8061 21.1949 71.0266 21.8253C71.225 22.3881 71.5227 22.9171 71.9197 23.3561C72.3166 23.7838 72.8017 24.1327 73.3309 24.3579C74.5327 24.8531 75.8778 24.8531 77.0796 24.3579C77.6088 24.1327 78.094 23.7838 78.4909 23.3561C78.8878 22.9171 79.1965 22.3881 79.3839 21.8253C79.8029 20.5533 79.8029 19.1801 79.3839 17.9082C79.1965 17.3454 78.8878 16.8164 78.4909 16.3774C78.094 15.9497 77.6088 15.6007 77.0796 15.3756C75.8778 14.8804 74.5327 14.8804 73.3309 15.3756C72.8017 15.6007 72.3166 15.9497 71.9197 16.3774C71.5227 16.8164 71.225 17.3454 71.0266 17.9082C70.8061 18.5385 70.7068 19.2026 70.7068 19.8667Z" fill="white"/>
<path d="M83.9927 12.8993H86.5837V15.0492H86.6388C86.8152 14.6778 87.0467 14.3289 87.3334 14.0362C87.6201 13.7323 87.9398 13.4734 88.3036 13.2595C88.6675 13.0344 89.0644 12.8656 89.4723 12.7418C89.8803 12.618 90.3103 12.5504 90.7403 12.5504C91.1262 12.5504 91.5231 12.6067 91.898 12.7305L91.7877 15.5895C91.5782 15.5332 91.3687 15.477 91.1593 15.4432C90.9498 15.4094 90.7403 15.3869 90.5198 15.3869C89.2518 15.3869 88.2816 15.7471 87.609 16.4787C86.9365 17.2104 86.5947 18.336 86.5947 19.8668V26.8679H84.0037V12.8993H83.9927Z" fill="white"/>
<path d="M94.9517 20.8348C94.9407 21.4088 95.073 21.9829 95.3376 22.5006C95.5912 22.9959 95.944 23.4236 96.363 23.7838C96.804 24.144 97.3001 24.4254 97.8294 24.6055C98.3806 24.7968 98.965 24.8981 99.5604 24.8981C100.299 24.9207 101.027 24.718 101.666 24.3241C102.295 23.9189 102.846 23.4011 103.309 22.8045L105.272 24.3353C103.827 26.2376 101.81 27.1944 99.2186 27.1944C98.2153 27.2056 97.223 27.0143 96.2968 26.6316C95.4589 26.2826 94.6981 25.7536 94.0807 25.0895C93.4633 24.4141 92.9892 23.6262 92.6804 22.7708C92.3497 21.8478 92.1843 20.8573 92.1953 19.878C92.1843 18.8875 92.3717 17.897 92.7245 16.974C93.0663 16.1073 93.5625 15.3194 94.1909 14.6553C94.8304 13.9912 95.5802 13.4621 96.4291 13.1132C97.3222 12.7305 98.2814 12.5391 99.2517 12.5504C100.465 12.5504 101.49 12.7643 102.317 13.2032C103.122 13.6085 103.816 14.1825 104.379 14.8916C104.919 15.5895 105.316 16.3887 105.547 17.2441C105.79 18.1108 105.911 19.0113 105.911 19.9005V20.846L94.9517 20.8348ZM103.133 18.7186C103.122 18.1671 103.023 17.6268 102.857 17.0978C102.703 16.625 102.449 16.1861 102.119 15.8146C101.777 15.4432 101.358 15.1505 100.895 14.9592C100.343 14.7453 99.7699 14.6327 99.1745 14.6553C98.5791 14.644 97.9837 14.7791 97.4325 15.0267C96.9253 15.2518 96.4732 15.5782 96.0873 15.9835C95.7345 16.3662 95.4368 16.8051 95.2384 17.2891C95.0399 17.7394 94.9407 18.2234 94.9407 18.7186H103.133Z" fill="white"/>
<path d="M9.70271 29.3442C15.1713 29.3442 19.5926 23.4799 19.5926 16.2536C19.5926 9.02726 15.1713 3.15167 9.70271 3.15167C7.42043 3.15167 5.31455 4.18722 3.63867 5.90937C9.22861 -1.01302 19.2618 -2.00354 26.0425 3.71447C32.8232 9.43248 33.7935 19.6641 28.2035 26.5865C22.6136 33.5089 12.5803 34.4994 5.79967 28.7927C5.01686 28.1286 4.28917 27.3857 3.63867 26.5865C5.31455 28.3087 7.42043 29.3442 9.70271 29.3442Z" fill="url(#paint0_radial_421_1173)"/>
<path d="M22.1278 29.3444C16.6702 29.3444 12.2379 23.4801 12.2379 16.2538C12.2379 9.02751 16.6702 3.15191 22.1278 3.15191C24.4211 3.15191 26.527 4.1762 28.2029 5.90962C22.6129 -1.01278 12.5797 -2.0033 5.79898 3.71471C-0.98172 9.43272 -1.95197 19.6531 3.63798 26.5867C9.22793 33.5204 19.2612 34.4997 26.0419 28.7929C26.8247 28.1288 27.5524 27.3859 28.2029 26.5867C26.527 28.3089 24.4211 29.3444 22.1278 29.3444Z" fill="url(#paint1_radial_421_1173)"/>
<path d="M14.7631 0.0450237C14.5647 0.0562796 14.3772 0.0787915 14.1898 0.101303C14.0795 0.112559 13.9693 0.123815 13.859 0.146327C13.6826 0.168839 13.5062 0.191351 13.3408 0.225118C13.2306 0.24763 13.1093 0.270142 12.999 0.281398C12.8336 0.315166 12.6683 0.348934 12.5029 0.382701C12.3926 0.405213 12.2713 0.438981 12.1611 0.461493C11.9957 0.506517 11.8413 0.540284 11.676 0.585308C11.5657 0.619076 11.4555 0.652844 11.3452 0.686611C11.1798 0.731635 11.0144 0.787915 10.8601 0.844194C10.7608 0.877962 10.6506 0.91173 10.5514 0.945498C10.3639 1.01303 10.1875 1.08057 10.0221 1.15936C9.93396 1.19313 9.85678 1.2269 9.76858 1.26066C9.51499 1.37322 9.2614 1.48578 9.01884 1.6096H9.00782C8.76525 1.73341 8.52269 1.85723 8.28013 1.9923C8.20295 2.03732 8.12577 2.08235 8.04859 2.12737C7.89424 2.21742 7.72885 2.31872 7.5745 2.40877C7.48629 2.46505 7.39809 2.52133 7.30988 2.58886C7.16655 2.67891 7.03425 2.78021 6.89091 2.87026C6.80271 2.9378 6.70348 3.00533 6.61527 3.07287C6.48297 3.17417 6.35066 3.26422 6.22938 3.36552C6.14118 3.43306 6.05297 3.50059 5.96477 3.57938C5.83246 3.68069 5.71118 3.79325 5.5899 3.89455C5.5017 3.97334 5.42452 4.04088 5.33631 4.11967C5.21503 4.23223 5.09375 4.35604 4.97247 4.4686C4.89529 4.54739 4.81811 4.61493 4.75196 4.69372C4.61965 4.82879 4.48735 4.96386 4.36607 5.09893C4.31094 5.16647 4.24478 5.22275 4.18966 5.29028C4.00222 5.49289 3.82581 5.6955 3.64941 5.90936C5.31426 4.1872 7.42014 3.15166 9.70243 3.15166C12.0508 3.15166 14.2118 4.24348 15.9098 6.05569C17.6077 4.24348 19.7687 3.15166 22.1172 3.15166C24.4105 3.15166 26.5163 4.17595 28.1922 5.90936C28.0158 5.6955 27.8394 5.48164 27.652 5.27903C27.5968 5.21149 27.5307 5.15521 27.4756 5.08768C27.3543 4.95261 27.222 4.81753 27.0897 4.68246C27.0125 4.60367 26.9353 4.53614 26.8581 4.45735C26.7368 4.34479 26.6156 4.22097 26.4833 4.10841C26.3951 4.02962 26.3179 3.96209 26.2297 3.88329C26.1084 3.77073 25.9871 3.66943 25.8548 3.56813C25.7666 3.50059 25.6784 3.4218 25.5902 3.35427C25.4579 3.25296 25.3366 3.15166 25.1933 3.06161C25.1051 2.99408 25.0169 2.92654 24.9176 2.859C24.7853 2.7577 24.642 2.66765 24.4987 2.57761C24.4105 2.52133 24.3223 2.46505 24.2341 2.39751C24.0797 2.29621 23.9143 2.20616 23.76 2.11611C23.6828 2.07109 23.6056 2.02607 23.5284 1.98104C23.2969 1.84597 23.0543 1.72216 22.8118 1.59834H22.8007C22.5582 1.47453 22.3046 1.36197 22.051 1.24941C21.9628 1.21564 21.8856 1.18187 21.7974 1.1481C21.621 1.08057 21.4556 1.01303 21.2682 0.945498C21.169 0.91173 21.0587 0.877962 20.9595 0.844194C20.7941 0.787915 20.6397 0.731635 20.4743 0.686611C20.3641 0.652844 20.2538 0.619076 20.1436 0.585308C19.9782 0.540284 19.8238 0.495261 19.6585 0.461493C19.5482 0.438981 19.4269 0.405213 19.3167 0.382701C19.1513 0.348934 18.9859 0.315166 18.8205 0.281398C18.7103 0.258886 18.589 0.236374 18.4787 0.225118C18.3023 0.191351 18.1369 0.168839 17.9605 0.146327C17.8503 0.135071 17.74 0.112559 17.6298 0.101303C17.4423 0.0787915 17.2439 0.0675355 17.0564 0.0562796C16.9572 0.0450237 16.869 0.0337678 16.7698 0.0337678C16.5052 0.0112559 16.2075 0 15.9208 0C15.6341 0 15.3364 0.0112559 15.0498 0.0225118C14.9506 0.0337678 14.8513 0.0450237 14.7631 0.0450237Z" fill="url(#paint2_linear_421_1173)"/>
<path d="M14.7631 32.4508C14.5647 32.4396 14.3772 32.4171 14.1898 32.4058C14.0795 32.3945 13.9693 32.372 13.859 32.3608C13.6826 32.3383 13.5062 32.3158 13.3408 32.282C13.2306 32.2595 13.1093 32.237 12.999 32.2145C12.8336 32.1807 12.6683 32.1469 12.5029 32.1131C12.3926 32.0906 12.2713 32.0569 12.1611 32.0344C11.9957 31.9893 11.8413 31.9556 11.676 31.9105C11.5657 31.8768 11.4555 31.8543 11.3452 31.8092C11.1798 31.753 11.0144 31.7079 10.8601 31.6517C10.7608 31.6179 10.6506 31.5841 10.5514 31.5503C10.375 31.4828 10.1985 31.4153 10.0221 31.3477C9.93396 31.314 9.85678 31.2802 9.76858 31.2464C9.51499 31.1339 9.2614 31.0213 9.01884 30.8975H9.00782C8.76525 30.7737 8.52269 30.6499 8.28013 30.5148C8.20295 30.4698 8.12577 30.4248 8.04859 30.3797C7.89424 30.2897 7.72885 30.1884 7.5745 30.0983C7.48629 30.0421 7.39809 29.9858 7.30988 29.9295C7.16655 29.8394 7.03425 29.7381 6.89091 29.6481C6.80271 29.5806 6.70348 29.513 6.61527 29.4455C6.48297 29.3442 6.35066 29.2541 6.22938 29.1528C6.14118 29.0853 6.05297 29.0065 5.96477 28.939C5.84349 28.8377 5.71118 28.7251 5.5899 28.6238C5.5017 28.5563 5.42452 28.4775 5.33631 28.3987C5.21503 28.2861 5.09375 28.1623 4.97247 28.0498C4.89529 27.9822 4.81811 27.9034 4.75196 27.8246C4.61965 27.6896 4.48735 27.5545 4.36607 27.4194C4.31094 27.3519 4.24478 27.2956 4.18966 27.2281C4.00222 27.0255 3.82581 26.8116 3.64941 26.5977C5.32529 28.3312 7.43116 29.3554 9.72448 29.3554C12.0729 29.3554 14.2339 28.2636 15.9318 26.4514C17.6298 28.2636 19.7908 29.3554 22.1392 29.3554C24.4325 29.3554 26.5384 28.3312 28.2143 26.5977C28.0379 26.8116 27.8615 27.0255 27.674 27.2281C27.6189 27.2956 27.5527 27.3519 27.4976 27.4194C27.3763 27.5545 27.244 27.6896 27.1117 27.8246C27.0345 27.9034 26.9574 27.971 26.8802 28.0498C26.7589 28.1623 26.6376 28.2861 26.5053 28.3987C26.4281 28.4775 26.3399 28.545 26.2517 28.6238C26.1304 28.7364 25.9981 28.8377 25.8769 28.939C25.7887 29.0065 25.7005 29.0853 25.6122 29.1528C25.4799 29.2541 25.3476 29.3554 25.2153 29.4455C25.1271 29.513 25.0389 29.5806 24.9397 29.6481C24.8074 29.7494 24.664 29.8394 24.5207 29.9295C24.4325 29.9858 24.3443 30.0421 24.2561 30.0983C24.1017 30.1996 23.9364 30.2897 23.782 30.3797C23.7048 30.4248 23.6276 30.4698 23.5505 30.5148C23.3189 30.6499 23.0764 30.7737 22.8338 30.8975H22.8228C22.5802 31.0213 22.3266 31.1339 22.073 31.2464C21.9848 31.2802 21.9077 31.314 21.8195 31.3477C21.6431 31.4153 21.4777 31.4828 21.2902 31.5503C21.191 31.5841 21.0808 31.6179 20.9815 31.6517C20.8161 31.7079 20.6618 31.7642 20.4964 31.8092C20.3861 31.843 20.2759 31.8768 20.1656 31.9105C20.0002 31.9556 19.8459 32.0006 19.6805 32.0344C19.5703 32.0569 19.449 32.0906 19.3387 32.1131C19.1733 32.1469 19.0079 32.1807 18.8426 32.2145C18.7323 32.237 18.611 32.2595 18.5008 32.282C18.3244 32.3045 18.159 32.3383 17.9826 32.3608C17.8723 32.372 17.7621 32.3945 17.6518 32.4058C17.4644 32.4283 17.2659 32.4396 17.0785 32.4508C16.9792 32.4621 16.891 32.4621 16.7918 32.4733C16.5052 32.4846 16.2075 32.4958 15.9208 32.4958C15.6341 32.4958 15.3364 32.4846 15.0498 32.4733C14.9506 32.4733 14.8513 32.4621 14.7631 32.4508Z" fill="url(#paint3_linear_421_1173)"/>
<path d="M108.05 5.95447H113.188C114.158 5.95447 115.118 6.01075 116.077 6.12331C117.036 6.23587 117.885 6.49475 118.646 6.87745C119.407 7.26015 120.024 7.83421 120.487 8.5771C120.961 9.31999 121.193 10.333 121.193 11.6049C121.193 13.1132 120.752 14.3289 119.859 15.2631C118.966 16.1861 117.742 16.7827 116.165 17.0303L121.876 26.4853H118.955L113.497 17.2667H110.432V26.4853H108.05V5.95447ZM110.432 15.0042H112.56C113.221 15.0042 113.905 14.9817 114.622 14.948C115.327 14.9142 115.989 14.7791 116.584 14.5765C117.179 14.3626 117.676 14.025 118.061 13.5747C118.447 13.1245 118.646 12.4716 118.646 11.6162C118.646 10.8846 118.502 10.288 118.216 9.84902C117.929 9.39878 117.554 9.0611 117.091 8.82473C116.628 8.58835 116.11 8.41951 115.526 8.34072C114.952 8.26193 114.368 8.22816 113.784 8.22816H110.432V15.0042Z" fill="#9BA2A0"/>
<path d="M127.334 19.1802L122.56 12.9106H125.46L128.988 17.7845L132.306 12.9106H135.008L130.432 19.1802L135.912 26.4853H132.99L128.789 20.6322L124.644 26.4853H121.887L127.334 19.1802Z" fill="#9BA2A0"/>
</g>
</g>
</g>
<defs>
<radialGradient id="paint0_radial_421_1173" cx="0" cy="0" r="1" gradientUnits="userSpaceOnUse" gradientTransform="translate(28.8639 16.2502) rotate(180) scale(17.8195 18.1918)">
<stop stop-color="#C5C7C9"/>
<stop offset="0.02" stop-color="#BEC0C2"/>
<stop offset="0.19" stop-color="#939596"/>
<stop offset="0.35" stop-color="#707172"/>
<stop offset="0.51" stop-color="#545556"/>
<stop offset="0.67" stop-color="#414242"/>
<stop offset="0.84" stop-color="#353636"/>
<stop offset="1" stop-color="#313232"/>
</radialGradient>
<radialGradient id="paint1_radial_421_1173" cx="0" cy="0" r="1" gradientUnits="userSpaceOnUse" gradientTransform="translate(2.4792 16.2504) scale(18.2836 18.6657)">
<stop stop-color="#BCD75F"/>
<stop offset="0.13" stop-color="#B3CE5A"/>
<stop offset="0.34" stop-color="#9AB74B"/>
<stop offset="0.61" stop-color="#719033"/>
<stop offset="0.93" stop-color="#395B11"/>
<stop offset="1" stop-color="#2B4E09"/>
</radialGradient>
<linearGradient id="paint2_linear_421_1173" x1="13.6207" y1="-0.45735" x2="15.8651" y2="5.51648" gradientUnits="userSpaceOnUse">
<stop stop-color="#8BC53F"/>
<stop offset="0.55" stop-color="#4B7520"/>
<stop offset="1" stop-color="#2B4E09"/>
</linearGradient>
<linearGradient id="paint3_linear_421_1173" x1="13.6244" y1="32.9591" x2="15.8688" y2="26.9853" gradientUnits="userSpaceOnUse">
<stop stop-color="#8BC53F"/>
<stop offset="0.55" stop-color="#4B7520"/>
<stop offset="1" stop-color="#2B4E09"/>
</linearGradient>
<clipPath id="clip0_421_1173">
<rect width="136" height="33" fill="white"/>
</clipPath>
<clipPath id="clip1_421_1173">
<rect width="136" height="33" fill="white"/>
</clipPath>
</defs>
</svg>
