<svg width="136" height="38" viewBox="0 0 136 38" fill="none" xmlns="http://www.w3.org/2000/svg">
<g clip-path="url(#clip0_1_469)">
<path d="M42.7239 7.89039C42.7239 6.82108 43.5619 5.94312 44.6203 5.94312C45.6678 5.94312 46.5277 6.79857 46.5277 7.87913C46.5277 8.39691 46.3293 8.90342 45.9654 9.26361C45.2157 10.0178 44.0139 10.0178 43.2752 9.25236C42.9224 8.89217 42.735 8.39691 42.7239 7.89039ZM43.3303 12.8993H45.9213V26.8454H43.3303V12.8993Z" fill="white"/>
<path d="M64.345 10.5131C63.7717 9.74772 63.011 9.1399 62.151 8.74594C61.291 8.34072 60.3648 8.12686 59.4166 8.12686C58.3361 8.11561 57.2667 8.34072 56.2854 8.79096C55.3703 9.21869 54.5544 9.83776 53.8928 10.6032C53.2203 11.3911 52.6911 12.3028 52.3493 13.2933C51.9744 14.3514 51.787 15.477 51.798 16.6026C51.787 17.6606 51.9634 18.7187 52.3162 19.7205C52.647 20.6772 53.1541 21.5552 53.8157 22.3093C54.4772 23.0635 55.2931 23.6713 56.2082 24.0765C57.1454 24.5042 58.2149 24.7294 59.4056 24.7294C60.5743 24.7294 61.6107 24.4817 62.4928 23.9977C63.3858 23.4912 64.1576 22.7933 64.742 21.9379L67.0794 23.7276C66.8258 24.054 66.5612 24.3692 66.2745 24.6506C65.8114 25.1121 65.3043 25.5173 64.742 25.8549C64.0253 26.2939 63.2535 26.6541 62.4487 26.913C61.5556 27.2169 60.5192 27.3632 59.3505 27.3632C57.7297 27.3632 56.2744 27.0481 54.9844 26.4177C51.2577 24.6168 48.8762 20.801 48.8652 16.5913C48.8542 15.0718 49.1188 13.5522 49.648 12.134C50.1331 10.817 50.8829 9.6239 51.8311 8.61087C52.7793 7.60909 53.9259 6.82118 55.1939 6.3034C56.572 5.74061 58.0384 5.45921 59.5159 5.48172C60.872 5.48172 62.2171 5.75186 63.474 6.28089C64.7309 6.78741 65.8335 7.6316 66.6604 8.72343L64.345 10.5131Z" fill="white"/>
<path d="M67.9393 19.8667C67.9283 18.8875 68.1268 17.9195 68.5016 17.0077C70.0893 13.2257 74.3783 11.4811 78.0828 13.1019C79.8028 13.8561 81.17 15.2518 81.9087 17.0077C82.2836 17.9082 82.482 18.8762 82.471 19.8667C82.482 21.814 81.7213 23.6825 80.3651 25.0557C79.7036 25.7198 78.9208 26.2488 78.0608 26.6203C76.2305 27.3857 74.1798 27.3857 72.3496 26.6203C71.4896 26.2601 70.7067 25.7311 70.0452 25.0557C68.6891 23.6825 67.9393 21.814 67.9393 19.8667ZM70.7067 19.8667C70.6957 20.5308 70.806 21.1949 71.0265 21.8253C71.2249 22.3881 71.5226 22.9171 71.9196 23.3561C72.3165 23.7838 72.8016 24.1327 73.3308 24.3579C74.5326 24.8531 75.8777 24.8531 77.0795 24.3579C77.6087 24.1327 78.0939 23.7838 78.4908 23.3561C78.8877 22.9171 79.1964 22.3881 79.3838 21.8253C79.8028 20.5533 79.8028 19.1801 79.3838 17.9082C79.1964 17.3454 78.8877 16.8164 78.4908 16.3774C78.0939 15.9497 77.6087 15.6007 77.0795 15.3756C75.8777 14.8804 74.5326 14.8804 73.3308 15.3756C72.8016 15.6007 72.3165 15.9497 71.9196 16.3774C71.5226 16.8164 71.2249 17.3454 71.0265 17.9082C70.806 18.5385 70.7067 19.2026 70.7067 19.8667Z" fill="white"/>
<path d="M83.9926 12.8993H86.5836V15.0492H86.6387C86.8151 14.6778 87.0466 14.3289 87.3333 14.0362C87.62 13.7323 87.9397 13.4734 88.3035 13.2595C88.6674 13.0344 89.0643 12.8656 89.4722 12.7418C89.8802 12.618 90.3102 12.5504 90.7402 12.5504C91.1261 12.5504 91.523 12.6067 91.8979 12.7305L91.7876 15.5895C91.5781 15.5332 91.3686 15.477 91.1592 15.4432C90.9497 15.4094 90.7402 15.3869 90.5197 15.3869C89.2517 15.3869 88.2815 15.7471 87.6089 16.4787C86.9364 17.2104 86.5946 18.336 86.5946 19.8668V26.8679H84.0036V12.8993H83.9926Z" fill="white"/>
<path d="M94.9519 20.8348C94.9409 21.4088 95.0732 21.9829 95.3378 22.5006C95.5914 22.9959 95.9442 23.4236 96.3632 23.7838C96.8042 24.144 97.3003 24.4254 97.8296 24.6055C98.3808 24.7968 98.9652 24.8981 99.5606 24.8981C100.299 24.9207 101.027 24.718 101.666 24.3241C102.295 23.9189 102.846 23.4011 103.309 22.8045L105.272 24.3353C103.827 26.2376 101.81 27.1944 99.2188 27.1944C98.2155 27.2056 97.2232 27.0143 96.297 26.6316C95.4591 26.2826 94.6983 25.7536 94.0809 25.0895C93.4635 24.4141 92.9894 23.6262 92.6806 22.7708C92.3499 21.8478 92.1845 20.8573 92.1955 19.878C92.1845 18.8875 92.3719 17.897 92.7247 16.974C93.0665 16.1073 93.5627 15.3194 94.1911 14.6553C94.8306 13.9912 95.5804 13.4621 96.4293 13.1132C97.3224 12.7305 98.2816 12.5391 99.2519 12.5504C100.465 12.5504 101.49 12.7643 102.317 13.2032C103.122 13.6085 103.816 14.1825 104.379 14.8916C104.919 15.5895 105.316 16.3887 105.547 17.2441C105.79 18.1108 105.911 19.0113 105.911 19.9005V20.846L94.9519 20.8348ZM103.133 18.7186C103.122 18.1671 103.023 17.6268 102.857 17.0978C102.703 16.625 102.449 16.1861 102.119 15.8146C101.777 15.4432 101.358 15.1505 100.895 14.9592C100.343 14.7453 99.7701 14.6327 99.1747 14.6553C98.5793 14.644 97.9839 14.7791 97.4327 15.0267C96.9255 15.2518 96.4734 15.5782 96.0875 15.9835C95.7347 16.3662 95.437 16.8051 95.2386 17.2891C95.0401 17.7394 94.9409 18.2234 94.9409 18.7186H103.133Z" fill="white"/>
<path d="M9.70247 29.3442C15.1711 29.3442 19.5924 23.4799 19.5924 16.2536C19.5924 9.02726 15.1711 3.15167 9.70247 3.15167C7.42019 3.15167 5.31431 4.18722 3.63843 5.90937C9.22837 -1.01302 19.2616 -2.00354 26.0423 3.71447C32.823 9.43248 33.7933 19.6641 28.2033 26.5865C22.6134 33.5089 12.5801 34.4994 5.79943 28.7927C5.01662 28.1286 4.28893 27.3857 3.63843 26.5865C5.31431 28.3087 7.42019 29.3442 9.70247 29.3442Z" fill="url(#paint0_radial_1_469)"/>
<path d="M22.1278 29.3444C16.6702 29.3444 12.2379 23.4801 12.2379 16.2538C12.2379 9.02751 16.6702 3.15191 22.1278 3.15191C24.4211 3.15191 26.527 4.1762 28.2029 5.90962C22.6129 -1.01278 12.5797 -2.0033 5.79898 3.71471C-0.981721 9.43272 -1.95197 19.6531 3.63798 26.5867C9.22793 33.5204 19.2612 34.4997 26.0419 28.7929C26.8247 28.1288 27.5524 27.3859 28.2029 26.5867C26.527 28.3089 24.4211 29.3444 22.1278 29.3444Z" fill="url(#paint1_radial_1_469)"/>
<path d="M14.7632 0.0450237C14.5648 0.0562796 14.3773 0.0787915 14.1899 0.101303C14.0796 0.112559 13.9694 0.123815 13.8591 0.146327C13.6827 0.168839 13.5063 0.191351 13.3409 0.225118C13.2307 0.24763 13.1094 0.270142 12.9991 0.281398C12.8337 0.315166 12.6684 0.348934 12.503 0.382701C12.3927 0.405213 12.2714 0.438981 12.1612 0.461493C11.9958 0.506517 11.8414 0.540284 11.6761 0.585308C11.5658 0.619076 11.4556 0.652844 11.3453 0.686611C11.1799 0.731635 11.0145 0.787915 10.8602 0.844194C10.7609 0.877962 10.6507 0.91173 10.5515 0.945498C10.364 1.01303 10.1876 1.08057 10.0222 1.15936C9.93403 1.19313 9.85685 1.2269 9.76865 1.26066C9.51506 1.37322 9.26147 1.48578 9.01891 1.6096H9.00789C8.76532 1.73341 8.52276 1.85723 8.2802 1.9923C8.20302 2.03732 8.12584 2.08235 8.04866 2.12737C7.89431 2.21742 7.72892 2.31872 7.57457 2.40877C7.48636 2.46505 7.39816 2.52133 7.30995 2.58886C7.16662 2.67891 7.03432 2.78021 6.89098 2.87026C6.80278 2.9378 6.70355 3.00533 6.61534 3.07287C6.48304 3.17417 6.35073 3.26422 6.22945 3.36552C6.14125 3.43306 6.05304 3.50059 5.96484 3.57938C5.83253 3.68069 5.71125 3.79325 5.58997 3.89455C5.50177 3.97334 5.42459 4.04088 5.33638 4.11967C5.2151 4.23223 5.09382 4.35604 4.97254 4.4686C4.89536 4.54739 4.81818 4.61493 4.75203 4.69372C4.61972 4.82879 4.48742 4.96386 4.36614 5.09893C4.31101 5.16647 4.24485 5.22275 4.18973 5.29028C4.00229 5.49289 3.82588 5.6955 3.64948 5.90936C5.31433 4.1872 7.42021 3.15166 9.7025 3.15166C12.0509 3.15166 14.2119 4.24348 15.9099 6.05569C17.6078 4.24348 19.7688 3.15166 22.1173 3.15166C24.4106 3.15166 26.5164 4.17595 28.1923 5.90936C28.0159 5.6955 27.8395 5.48164 27.6521 5.27903C27.5969 5.21149 27.5308 5.15521 27.4757 5.08768C27.3544 4.95261 27.2221 4.81753 27.0898 4.68246C27.0126 4.60367 26.9354 4.53614 26.8582 4.45735C26.7369 4.34479 26.6157 4.22097 26.4834 4.10841C26.3952 4.02962 26.318 3.96209 26.2298 3.88329C26.1085 3.77073 25.9872 3.66943 25.8549 3.56813C25.7667 3.50059 25.6785 3.4218 25.5903 3.35427C25.458 3.25296 25.3367 3.15166 25.1934 3.06161C25.1052 2.99408 25.017 2.92654 24.9177 2.859C24.7854 2.7577 24.6421 2.66765 24.4988 2.57761C24.4106 2.52133 24.3224 2.46505 24.2342 2.39751C24.0798 2.29621 23.9144 2.20616 23.7601 2.11611C23.6829 2.07109 23.6057 2.02607 23.5285 1.98104C23.297 1.84597 23.0544 1.72216 22.8119 1.59834H22.8008C22.5583 1.47453 22.3047 1.36197 22.0511 1.24941C21.9629 1.21564 21.8857 1.18187 21.7975 1.1481C21.6211 1.08057 21.4557 1.01303 21.2683 0.945498C21.1691 0.91173 21.0588 0.877962 20.9596 0.844194C20.7942 0.787915 20.6398 0.731635 20.4744 0.686611C20.3642 0.652844 20.2539 0.619076 20.1437 0.585308C19.9783 0.540284 19.8239 0.495261 19.6586 0.461493C19.5483 0.438981 19.427 0.405213 19.3168 0.382701C19.1514 0.348934 18.986 0.315166 18.8206 0.281398C18.7104 0.258886 18.5891 0.236374 18.4788 0.225118C18.3024 0.191351 18.137 0.168839 17.9606 0.146327C17.8504 0.135071 17.7401 0.112559 17.6299 0.101303C17.4424 0.0787915 17.244 0.0675355 17.0565 0.0562796C16.9573 0.0450237 16.8691 0.0337678 16.7699 0.0337678C16.5053 0.0112559 16.2076 0 15.9209 0C15.6342 0 15.3365 0.0112559 15.0499 0.0225118C14.9507 0.0337678 14.8514 0.0450237 14.7632 0.0450237Z" fill="url(#paint2_linear_1_469)"/>
<path d="M14.7632 32.4508C14.5648 32.4396 14.3773 32.4171 14.1899 32.4058C14.0796 32.3945 13.9694 32.372 13.8591 32.3608C13.6827 32.3383 13.5063 32.3158 13.3409 32.282C13.2307 32.2595 13.1094 32.237 12.9991 32.2145C12.8337 32.1807 12.6684 32.1469 12.503 32.1131C12.3927 32.0906 12.2714 32.0569 12.1612 32.0344C11.9958 31.9893 11.8414 31.9556 11.6761 31.9105C11.5658 31.8768 11.4556 31.8543 11.3453 31.8092C11.1799 31.753 11.0145 31.7079 10.8602 31.6517C10.7609 31.6179 10.6507 31.5841 10.5515 31.5503C10.3751 31.4828 10.1986 31.4153 10.0222 31.3477C9.93403 31.314 9.85685 31.2802 9.76865 31.2464C9.51506 31.1339 9.26147 31.0213 9.01891 30.8975H9.00789C8.76532 30.7737 8.52276 30.6499 8.2802 30.5148C8.20302 30.4698 8.12584 30.4248 8.04866 30.3797C7.89431 30.2897 7.72892 30.1884 7.57457 30.0983C7.48636 30.0421 7.39816 29.9858 7.30995 29.9295C7.16662 29.8394 7.03432 29.7381 6.89098 29.6481C6.80278 29.5806 6.70355 29.513 6.61534 29.4455C6.48304 29.3442 6.35073 29.2541 6.22945 29.1528C6.14125 29.0853 6.05304 29.0065 5.96484 28.939C5.84356 28.8377 5.71125 28.7251 5.58997 28.6238C5.50177 28.5563 5.42459 28.4775 5.33638 28.3987C5.2151 28.2861 5.09382 28.1623 4.97254 28.0498C4.89536 27.9822 4.81818 27.9034 4.75203 27.8246C4.61972 27.6896 4.48742 27.5545 4.36614 27.4194C4.31101 27.3519 4.24485 27.2956 4.18973 27.2281C4.00229 27.0255 3.82588 26.8116 3.64948 26.5977C5.32536 28.3312 7.43123 29.3554 9.72455 29.3554C12.073 29.3554 14.234 28.2636 15.9319 26.4514C17.6299 28.2636 19.7909 29.3554 22.1393 29.3554C24.4326 29.3554 26.5385 28.3312 28.2144 26.5977C28.038 26.8116 27.8616 27.0255 27.6741 27.2281C27.619 27.2956 27.5528 27.3519 27.4977 27.4194C27.3764 27.5545 27.2441 27.6896 27.1118 27.8246C27.0346 27.9034 26.9575 27.971 26.8803 28.0498C26.759 28.1623 26.6377 28.2861 26.5054 28.3987C26.4282 28.4775 26.34 28.545 26.2518 28.6238C26.1305 28.7364 25.9982 28.8377 25.877 28.939C25.7888 29.0065 25.7006 29.0853 25.6123 29.1528C25.48 29.2541 25.3477 29.3554 25.2154 29.4455C25.1272 29.513 25.039 29.5806 24.9398 29.6481C24.8075 29.7494 24.6641 29.8394 24.5208 29.9295C24.4326 29.9858 24.3444 30.0421 24.2562 30.0983C24.1018 30.1996 23.9365 30.2897 23.7821 30.3797C23.7049 30.4248 23.6277 30.4698 23.5506 30.5148C23.319 30.6499 23.0765 30.7737 22.8339 30.8975H22.8229C22.5803 31.0213 22.3267 31.1339 22.0731 31.2464C21.9849 31.2802 21.9078 31.314 21.8196 31.3477C21.6432 31.4153 21.4778 31.4828 21.2903 31.5503C21.1911 31.5841 21.0809 31.6179 20.9816 31.6517C20.8162 31.7079 20.6619 31.7642 20.4965 31.8092C20.3862 31.843 20.276 31.8768 20.1657 31.9105C20.0003 31.9556 19.846 32.0006 19.6806 32.0344C19.5704 32.0569 19.4491 32.0906 19.3388 32.1131C19.1734 32.1469 19.008 32.1807 18.8427 32.2145C18.7324 32.237 18.6111 32.2595 18.5009 32.282C18.3245 32.3045 18.1591 32.3383 17.9827 32.3608C17.8724 32.372 17.7622 32.3945 17.6519 32.4058C17.4645 32.4283 17.266 32.4396 17.0786 32.4508C16.9793 32.4621 16.8911 32.4621 16.7919 32.4733C16.5053 32.4846 16.2076 32.4958 15.9209 32.4958C15.6342 32.4958 15.3365 32.4846 15.0499 32.4733C14.9507 32.4733 14.8514 32.4621 14.7632 32.4508Z" fill="url(#paint3_linear_1_469)"/>
<path d="M108.05 5.95447H113.188C114.158 5.95447 115.118 6.01075 116.077 6.12331C117.036 6.23587 117.885 6.49475 118.646 6.87745C119.407 7.26015 120.024 7.83421 120.487 8.5771C120.961 9.31999 121.193 10.333 121.193 11.6049C121.193 13.1132 120.752 14.3289 119.859 15.2631C118.966 16.1861 117.742 16.7827 116.165 17.0303L121.876 26.4853H118.955L113.497 17.2667H110.432V26.4853H108.05V5.95447ZM110.432 15.0042H112.56C113.221 15.0042 113.905 14.9817 114.622 14.948C115.327 14.9142 115.989 14.7791 116.584 14.5765C117.179 14.3626 117.676 14.025 118.061 13.5747C118.447 13.1245 118.646 12.4716 118.646 11.6162C118.646 10.8846 118.502 10.288 118.216 9.84902C117.929 9.39878 117.554 9.0611 117.091 8.82473C116.628 8.58835 116.11 8.41951 115.526 8.34072C114.952 8.26193 114.368 8.22816 113.784 8.22816H110.432V15.0042Z" fill="#9BA2A0"/>
<path d="M127.334 19.1802L122.56 12.9106H125.46L128.988 17.7845L132.306 12.9106H135.008L130.432 19.1802L135.912 26.4853H132.99L128.789 20.6322L124.644 26.4853H121.887L127.334 19.1802Z" fill="#9BA2A0"/>
</g>
<defs>
<radialGradient id="paint0_radial_1_469" cx="0" cy="0" r="1" gradientUnits="userSpaceOnUse" gradientTransform="translate(28.8637 16.2502) rotate(180) scale(17.8195 18.1918)">
<stop stop-color="#C5C7C9"/>
<stop offset="0.02" stop-color="#BEC0C2"/>
<stop offset="0.19" stop-color="#939596"/>
<stop offset="0.35" stop-color="#707172"/>
<stop offset="0.51" stop-color="#545556"/>
<stop offset="0.67" stop-color="#414242"/>
<stop offset="0.84" stop-color="#353636"/>
<stop offset="1" stop-color="#313232"/>
</radialGradient>
<radialGradient id="paint1_radial_1_469" cx="0" cy="0" r="1" gradientUnits="userSpaceOnUse" gradientTransform="translate(2.4792 16.2504) scale(18.2836 18.6657)">
<stop stop-color="#BCD75F"/>
<stop offset="0.13" stop-color="#B3CE5A"/>
<stop offset="0.34" stop-color="#9AB74B"/>
<stop offset="0.61" stop-color="#719033"/>
<stop offset="0.93" stop-color="#395B11"/>
<stop offset="1" stop-color="#2B4E09"/>
</radialGradient>
<linearGradient id="paint2_linear_1_469" x1="13.6208" y1="-0.45735" x2="15.8652" y2="5.51648" gradientUnits="userSpaceOnUse">
<stop stop-color="#8BC53F"/>
<stop offset="0.55" stop-color="#4B7520"/>
<stop offset="1" stop-color="#2B4E09"/>
</linearGradient>
<linearGradient id="paint3_linear_1_469" x1="13.6245" y1="32.9591" x2="15.8689" y2="26.9853" gradientUnits="userSpaceOnUse">
<stop stop-color="#8BC53F"/>
<stop offset="0.55" stop-color="#4B7520"/>
<stop offset="1" stop-color="#2B4E09"/>
</linearGradient>
<clipPath id="clip0_1_469">
<rect width="136" height="38" fill="white"/>
</clipPath>
</defs>
</svg>
