<svg width="13" height="13" viewBox="0 0 13 13" fill="none" xmlns="http://www.w3.org/2000/svg">
<path fill-rule="evenodd" clip-rule="evenodd" d="M6.06816 2.20494C6.45267 1.82061 6.93467 1.54838 7.46233 1.41753C7.98999 1.28668 8.54335 1.30215 9.06287 1.46229C9.58239 1.62242 10.0484 1.92116 10.4109 2.32637C10.7733 2.73158 11.0184 3.22793 11.1198 3.76203C11.2212 4.29614 11.1751 4.84778 10.9864 5.35763C10.7977 5.86749 10.4736 6.31625 10.049 6.65567C9.6243 6.99509 9.11513 7.21231 8.57623 7.28397C8.03733 7.35563 7.48909 7.27903 6.99048 7.06239C6.81516 6.98524 6.62584 6.94498 6.4343 6.94411H5.52859C5.07009 6.94411 4.69797 7.31622 4.69797 7.77472V8.8233H3.65007C3.19157 8.8233 2.81945 9.19541 2.81945 9.65391V10.7025H1.32899V9.76289L4.88802 6.20452C5.2495 5.84304 5.33987 5.34334 5.25349 4.92139C5.15354 4.43655 5.17567 3.93447 5.31787 3.46031C5.46007 2.98614 5.7179 2.55475 6.06816 2.20494ZM11.2366 1.26534C10.5798 0.608477 9.72884 0.180831 8.80983 0.0458523C7.89083 -0.0891264 6.95279 0.0757542 6.1349 0.516031C5.31701 0.956308 4.66284 1.64852 4.26945 2.48997C3.87607 3.33142 3.76442 4.27727 3.95108 5.18719C3.95728 5.21316 3.9559 5.24038 3.94709 5.26559L0.292377 8.92031C0.199715 9.01286 0.1262 9.12276 0.0760318 9.24373C0.0258641 9.3647 2.79358e-05 9.49438 0 9.62534V11.3603C0 11.7311 0.300351 12.0315 0.671139 12.0315H3.31782C3.77632 12.0315 4.14844 11.6594 4.14844 11.2009V10.1523H5.19701C5.65551 10.1523 6.02763 9.78017 6.02763 9.32167V8.27309H6.43297C6.4343 8.27309 6.4436 8.27442 6.46088 8.28173C7.38332 8.68165 8.41636 8.74735 9.38204 8.4675C10.3477 8.18765 11.1856 7.57979 11.7512 6.74862C12.3169 5.91745 12.575 4.91501 12.4811 3.914C12.3872 2.91299 11.947 1.97675 11.2366 1.26534ZM7.94735 4.55459C8.03994 4.64717 8.14985 4.72061 8.27082 4.77072C8.39179 4.82083 8.52144 4.84662 8.65238 4.84662C8.78331 4.84662 8.91297 4.82083 9.03394 4.77072C9.1549 4.72062 9.26482 4.64717 9.35741 4.55459C9.44999 4.462 9.52343 4.35209 9.57354 4.23112C9.62365 4.11015 9.64944 3.98049 9.64944 3.84956C9.64944 3.71862 9.62365 3.58897 9.57354 3.468C9.52343 3.34703 9.44999 3.23712 9.35741 3.14453C9.17051 2.95755 8.91699 2.85246 8.65261 2.8524C8.38824 2.85234 8.13467 2.9573 7.94768 3.1442C7.7607 3.33109 7.65561 3.58462 7.65555 3.84899C7.65549 4.11337 7.76045 4.3676 7.94735 4.55459Z" fill="#202020"/>
</svg>
