<svg width="401" height="180" viewBox="0 0 401 180" fill="none" xmlns="http://www.w3.org/2000/svg">
<rect x="32" y="43" width="368" height="136" rx="9" stroke="white" stroke-width="2" fill="white" fill-opacity="0"/>
<g filter="url(#filter0_d_3090_71)">
<rect x="4" width="135" height="135" rx="20" fill="#00BFF8"/>
</g>
<path d="M179.508 103.281V100.636H195.268V103.281H188.915V121H185.852V103.281H179.508ZM202.88 121.308C201.375 121.308 200.079 120.987 198.992 120.344C197.912 119.694 197.076 118.783 196.486 117.609C195.903 116.429 195.611 115.047 195.611 113.463C195.611 111.899 195.903 110.52 196.486 109.327C197.076 108.134 197.898 107.202 198.952 106.533C200.013 105.863 201.252 105.528 202.671 105.528C203.533 105.528 204.368 105.671 205.177 105.956C205.985 106.241 206.711 106.688 207.354 107.298C207.997 107.908 208.504 108.7 208.876 109.675C209.247 110.643 209.432 111.819 209.432 113.205V114.259H197.292V112.031H206.519C206.519 111.249 206.36 110.556 206.042 109.953C205.724 109.343 205.276 108.863 204.699 108.511C204.129 108.16 203.46 107.984 202.691 107.984C201.856 107.984 201.126 108.19 200.503 108.601C199.887 109.005 199.41 109.536 199.072 110.192C198.74 110.841 198.574 111.547 198.574 112.31V114.05C198.574 115.071 198.753 115.939 199.111 116.655C199.476 117.371 199.983 117.918 200.633 118.295C201.282 118.667 202.041 118.852 202.91 118.852C203.473 118.852 203.987 118.773 204.451 118.614C204.915 118.448 205.316 118.203 205.654 117.878C205.992 117.553 206.251 117.152 206.43 116.675L209.243 117.182C209.018 118.01 208.614 118.736 208.03 119.359C207.454 119.976 206.728 120.456 205.853 120.801C204.984 121.139 203.993 121.308 202.88 121.308ZM215.704 100.636V121H212.731V100.636H215.704ZM226.286 121.308C224.781 121.308 223.485 120.987 222.398 120.344C221.318 119.694 220.483 118.783 219.893 117.609C219.309 116.429 219.018 115.047 219.018 113.463C219.018 111.899 219.309 110.52 219.893 109.327C220.483 108.134 221.305 107.202 222.358 106.533C223.419 105.863 224.659 105.528 226.077 105.528C226.939 105.528 227.774 105.671 228.583 105.956C229.392 106.241 230.117 106.688 230.76 107.298C231.403 107.908 231.911 108.7 232.282 109.675C232.653 110.643 232.839 111.819 232.839 113.205V114.259H220.698V112.031H229.925C229.925 111.249 229.766 110.556 229.448 109.953C229.13 109.343 228.682 108.863 228.106 108.511C227.536 108.16 226.866 107.984 226.097 107.984C225.262 107.984 224.533 108.19 223.91 108.601C223.293 109.005 222.816 109.536 222.478 110.192C222.146 110.841 221.981 111.547 221.981 112.31V114.05C221.981 115.071 222.16 115.939 222.518 116.655C222.882 117.371 223.389 117.918 224.039 118.295C224.689 118.667 225.448 118.852 226.316 118.852C226.879 118.852 227.393 118.773 227.857 118.614C228.321 118.448 228.722 118.203 229.06 117.878C229.398 117.553 229.657 117.152 229.836 116.675L232.65 117.182C232.424 118.01 232.02 118.736 231.437 119.359C230.86 119.976 230.134 120.456 229.259 120.801C228.391 121.139 227.4 121.308 226.286 121.308ZM241.855 121.298C240.622 121.298 239.521 120.983 238.553 120.354C237.592 119.717 236.837 118.812 236.286 117.639C235.743 116.459 235.471 115.044 235.471 113.393C235.471 111.743 235.746 110.331 236.296 109.158C236.853 107.984 237.615 107.086 238.583 106.463C239.551 105.84 240.648 105.528 241.874 105.528C242.822 105.528 243.585 105.688 244.161 106.006C244.745 106.317 245.195 106.682 245.514 107.099C245.838 107.517 246.09 107.885 246.269 108.203H246.448V100.636H249.421V121H246.518V118.624H246.269C246.09 118.948 245.832 119.32 245.494 119.737C245.162 120.155 244.705 120.519 244.122 120.831C243.538 121.143 242.783 121.298 241.855 121.298ZM242.511 118.763C243.366 118.763 244.088 118.537 244.678 118.087C245.275 117.629 245.726 116.996 246.031 116.188C246.342 115.379 246.498 114.437 246.498 113.364C246.498 112.303 246.346 111.375 246.041 110.58C245.736 109.784 245.288 109.164 244.698 108.72C244.108 108.276 243.379 108.054 242.511 108.054C241.616 108.054 240.87 108.286 240.274 108.75C239.677 109.214 239.226 109.847 238.921 110.649C238.623 111.451 238.474 112.356 238.474 113.364C238.474 114.384 238.626 115.303 238.931 116.118C239.236 116.933 239.687 117.58 240.284 118.057C240.887 118.527 241.629 118.763 242.511 118.763ZM260.247 121.308C258.742 121.308 257.446 120.987 256.359 120.344C255.279 119.694 254.443 118.783 253.854 117.609C253.27 116.429 252.979 115.047 252.979 113.463C252.979 111.899 253.27 110.52 253.854 109.327C254.443 108.134 255.265 107.202 256.319 106.533C257.38 105.863 258.62 105.528 260.038 105.528C260.9 105.528 261.735 105.671 262.544 105.956C263.353 106.241 264.078 106.688 264.721 107.298C265.364 107.908 265.872 108.7 266.243 109.675C266.614 110.643 266.8 111.819 266.8 113.205V114.259H254.659V112.031H263.886C263.886 111.249 263.727 110.556 263.409 109.953C263.091 109.343 262.643 108.863 262.067 108.511C261.497 108.16 260.827 107.984 260.058 107.984C259.223 107.984 258.494 108.19 257.871 108.601C257.254 109.005 256.777 109.536 256.439 110.192C256.107 110.841 255.942 111.547 255.942 112.31V114.05C255.942 115.071 256.121 115.939 256.479 116.655C256.843 117.371 257.35 117.918 258 118.295C258.649 118.667 259.408 118.852 260.277 118.852C260.84 118.852 261.354 118.773 261.818 118.614C262.282 118.448 262.683 118.203 263.021 117.878C263.359 117.553 263.618 117.152 263.797 116.675L266.611 117.182C266.385 118.01 265.981 118.736 265.398 119.359C264.821 119.976 264.095 120.456 263.22 120.801C262.352 121.139 261.361 121.308 260.247 121.308ZM273.071 111.932V121H270.098V105.727H272.952V108.213H273.141C273.492 107.404 274.042 106.755 274.791 106.264C275.547 105.774 276.498 105.528 277.645 105.528C278.686 105.528 279.597 105.747 280.379 106.185C281.162 106.616 281.768 107.259 282.199 108.114C282.63 108.969 282.845 110.026 282.845 111.286V121H279.872V111.643C279.872 110.536 279.584 109.671 279.007 109.048C278.431 108.419 277.638 108.104 276.631 108.104C275.941 108.104 275.328 108.253 274.791 108.551C274.261 108.849 273.84 109.287 273.529 109.864C273.224 110.434 273.071 111.123 273.071 111.932ZM293.962 105.727V108.114H285.619V105.727H293.962ZM287.857 102.068H290.83V116.516C290.83 117.092 290.916 117.527 291.088 117.818C291.261 118.103 291.483 118.299 291.754 118.405C292.033 118.504 292.334 118.554 292.659 118.554C292.898 118.554 293.107 118.537 293.286 118.504C293.465 118.471 293.604 118.445 293.703 118.425L294.24 120.881C294.068 120.947 293.823 121.013 293.504 121.08C293.186 121.152 292.789 121.192 292.311 121.199C291.529 121.212 290.8 121.073 290.124 120.781C289.448 120.49 288.901 120.039 288.483 119.429C288.066 118.819 287.857 118.054 287.857 117.132V102.068ZM297.251 121V105.727H300.224V121H297.251ZM298.752 103.371C298.235 103.371 297.791 103.198 297.42 102.854C297.055 102.502 296.873 102.085 296.873 101.601C296.873 101.11 297.055 100.693 297.42 100.348C297.791 99.9967 298.235 99.821 298.752 99.821C299.269 99.821 299.71 99.9967 300.074 100.348C300.446 100.693 300.631 101.11 300.631 101.601C300.631 102.085 300.446 102.502 300.074 102.854C299.71 103.198 299.269 103.371 298.752 103.371ZM315.668 109.456L312.973 109.933C312.86 109.589 312.682 109.26 312.436 108.949C312.198 108.637 311.873 108.382 311.462 108.183C311.051 107.984 310.537 107.885 309.921 107.885C309.079 107.885 308.376 108.074 307.813 108.452C307.249 108.823 306.968 109.304 306.968 109.893C306.968 110.404 307.156 110.815 307.534 111.126C307.912 111.438 308.522 111.693 309.364 111.892L311.79 112.449C313.195 112.774 314.243 113.274 314.932 113.95C315.621 114.626 315.966 115.505 315.966 116.585C315.966 117.5 315.701 118.315 315.171 119.031C314.647 119.741 313.914 120.297 312.973 120.702C312.039 121.106 310.955 121.308 309.722 121.308C308.012 121.308 306.616 120.944 305.536 120.214C304.455 119.479 303.792 118.435 303.547 117.082L306.421 116.645C306.6 117.394 306.968 117.961 307.524 118.345C308.081 118.723 308.807 118.912 309.702 118.912C310.676 118.912 311.455 118.71 312.039 118.305C312.622 117.894 312.914 117.394 312.914 116.804C312.914 116.327 312.735 115.926 312.377 115.601C312.025 115.276 311.485 115.031 310.756 114.865L308.171 114.298C306.745 113.973 305.691 113.456 305.009 112.747C304.333 112.038 303.994 111.14 303.994 110.053C303.994 109.151 304.246 108.362 304.75 107.686C305.254 107.01 305.95 106.483 306.838 106.105C307.727 105.721 308.744 105.528 309.891 105.528C311.541 105.528 312.841 105.886 313.789 106.602C314.736 107.312 315.363 108.263 315.668 109.456ZM326.364 105.727V108.114H318.022V105.727H326.364ZM320.259 102.068H323.232V116.516C323.232 117.092 323.318 117.527 323.491 117.818C323.663 118.103 323.885 118.299 324.157 118.405C324.435 118.504 324.737 118.554 325.062 118.554C325.3 118.554 325.509 118.537 325.688 118.504C325.867 118.471 326.006 118.445 326.106 118.425L326.643 120.881C326.47 120.947 326.225 121.013 325.907 121.08C325.589 121.152 325.191 121.192 324.714 121.199C323.931 121.212 323.202 121.073 322.526 120.781C321.85 120.49 321.303 120.039 320.885 119.429C320.468 118.819 320.259 118.054 320.259 117.132V102.068ZM329.653 121V105.727H332.526V108.153H332.686C332.964 107.331 333.454 106.685 334.157 106.214C334.866 105.737 335.669 105.499 336.563 105.499C336.749 105.499 336.968 105.505 337.22 105.518C337.478 105.532 337.68 105.548 337.826 105.568V108.412C337.707 108.379 337.495 108.342 337.19 108.303C336.885 108.256 336.58 108.233 336.275 108.233C335.572 108.233 334.946 108.382 334.396 108.68C333.852 108.972 333.421 109.38 333.103 109.903C332.785 110.42 332.626 111.01 332.626 111.673V121H329.653ZM342.743 126.727C342.299 126.727 341.895 126.691 341.53 126.618C341.165 126.552 340.894 126.479 340.715 126.399L341.431 123.963C341.974 124.109 342.458 124.172 342.882 124.152C343.307 124.132 343.681 123.973 344.006 123.675C344.337 123.376 344.629 122.889 344.881 122.213L345.249 121.199L339.661 105.727H342.843L346.71 117.58H346.869L350.737 105.727H353.929L347.635 123.038C347.343 123.834 346.972 124.507 346.521 125.057C346.071 125.614 345.534 126.031 344.911 126.31C344.288 126.588 343.565 126.727 342.743 126.727Z" fill="white"/>
<path fill-rule="evenodd" clip-rule="evenodd" d="M117 25H29C27.8954 25 27 25.8954 27 27V94C27 95.1046 27.8954 96 29 96H117C118.105 96 119 95.1046 119 94V27C119 25.8954 118.105 25 117 25ZM29 22C26.2386 22 24 24.2386 24 27V94C24 96.7614 26.2386 99 29 99H117C119.761 99 122 96.7614 122 94V27C122 24.2386 119.761 22 117 22H29Z" fill="white"/>
<path d="M27 87H119V90H27V87Z" fill="white"/>
<path d="M54 110V114H71V110H54Z" fill="white"/>
<path d="M92 114V110H75V114H92Z" fill="white"/>
<path d="M75 99H71V110V114H75V110V99Z" fill="white"/>
<path fill-rule="evenodd" clip-rule="evenodd" d="M73 38.9C70.8784 38.9 69.2908 38.3762 67.5662 37.8013L67.533 37.7902C65.8169 37.2182 63.9625 36.6 61.5 36.6C59.1559 36.6 57.1623 38.0003 55.7987 39.8898C54.4298 41.7867 53.6 44.2918 53.6 46.8C53.6 48.9567 54.1256 51.4366 54.9212 53.6476C55.7104 55.8408 56.813 57.9022 58.0559 59.1451C58.1755 59.2647 58.3776 59.5651 58.6418 60.1174C58.8934 60.6433 59.1621 61.3121 59.4431 62.0862C60.005 63.6342 60.5883 65.5251 61.1593 67.3852L61.2176 67.5751C61.7633 69.3533 62.2988 71.0981 62.7789 72.411C63.0257 73.0861 63.2732 73.6905 63.516 74.1392C63.6352 74.3594 63.7784 74.5899 63.95 74.7787C64.0889 74.9314 64.4286 75.262 64.95 75.262C65.439 75.262 65.7534 74.9643 65.8852 74.8161C66.0387 74.6436 66.1521 74.4421 66.2369 74.2634C66.4106 73.8973 66.5588 73.4225 66.6803 72.8978C66.9263 71.8361 67.1 70.4086 67.1 68.857C67.1 66.5741 67.4236 64.1162 68.3486 62.2662C68.8051 61.3532 69.3921 60.6201 70.1295 60.1145C70.8586 59.6146 71.7879 59.3 73 59.3C74.2121 59.3 75.1414 59.6146 75.8705 60.1145C76.6079 60.6201 77.1949 61.3532 77.6514 62.2662C78.5764 64.1162 78.9 66.5741 78.9 68.857C78.9 70.4086 79.0737 71.8361 79.3197 72.8978C79.4412 73.4225 79.5894 73.8973 79.7631 74.2634C79.8479 74.4421 79.9613 74.6436 80.1148 74.8161C80.2466 74.9643 80.561 75.262 81.05 75.262C81.5714 75.262 81.9111 74.9314 82.05 74.7787C82.2216 74.5899 82.3648 74.3594 82.484 74.1392C82.7268 73.6905 82.9743 73.0861 83.2211 72.411C83.7012 71.0981 84.2367 69.3533 84.7825 67.575L84.8407 67.3852C85.4117 65.5251 85.995 63.6342 86.5569 62.0862C86.8379 61.3121 87.1066 60.6433 87.3582 60.1174C87.6224 59.5651 87.8245 59.2647 87.9441 59.1451C89.187 57.9022 90.2896 55.8408 91.0788 53.6476C91.8744 51.4366 92.4 48.9567 92.4 46.8C92.4 44.2918 91.5702 41.7867 90.2013 39.8898C88.8376 38.0003 86.8441 36.6 84.5 36.6C82.0375 36.6 80.1831 37.2182 78.467 37.7902L78.4338 37.8013C76.7092 38.3762 75.1216 38.9 73 38.9ZM51 46.8C51 43.5599 52.0834 40.3288 53.9519 37.9264C55.8119 35.5349 58.4142 34 61.5 34C64.8048 34 66.4038 34.5435 67.7411 35.0785C67.8825 35.135 68.0229 35.1924 68.1636 35.25C69.4354 35.77 70.7316 36.3 73 36.3C75.2684 36.3 76.5646 35.77 77.8364 35.25C77.9771 35.1924 78.1175 35.135 78.2589 35.0785C79.5962 34.5435 81.1952 34 84.5 34C87.5858 34 90.1881 35.5349 92.0481 37.9264C93.9166 40.3288 95 43.5599 95 46.8C95 49.0893 94.4532 51.8538 93.615 54.3376C92.7664 56.8523 91.6762 58.9095 90.6929 59.8929C90.2653 60.3205 89.9168 60.9717 89.6184 61.6466C89.3072 62.3504 88.999 63.2033 88.6904 64.1291C88.394 65.0182 88.09 65.9971 87.7776 67.0029L87.7362 67.136C87.408 68.1925 87.0695 69.2793 86.7138 70.3463C85.9975 72.4952 85.2333 74.4956 84.3902 75.9458C83.9688 76.6706 83.5566 77.2065 83.1627 77.5515C82.7759 77.8905 82.4616 78 82.2 78C79.9015 78 78.6342 77.1432 77.8397 75.9349C76.988 74.6398 76.6114 72.8363 76.4039 70.8463C76.3211 70.0527 76.2676 69.2617 76.2149 68.4828C76.2023 68.2959 76.1897 68.1098 76.1767 67.9245C76.111 66.9834 76.036 66.0557 75.8949 65.2444C75.7571 64.4512 75.538 63.6489 75.1133 63.0275C74.6444 62.3414 73.9364 61.9 73 61.9C72.0636 61.9 71.3556 62.3414 70.8867 63.0275C70.462 63.6489 70.2429 64.4512 70.1051 65.2444C69.964 66.0557 69.889 66.9834 69.8233 67.9245C69.8104 68.109 69.7978 68.2944 69.7853 68.4804L69.7851 68.4828C69.7324 69.2617 69.6789 70.0527 69.5961 70.8463C69.3886 72.8363 69.012 74.6398 68.1603 75.9349C67.3658 77.1432 66.0985 78 63.8 78C63.5384 78 63.2241 77.8905 62.8373 77.5515C62.4434 77.2065 62.0312 76.6706 61.6098 75.9458C60.7667 74.4956 60.0025 72.4952 59.2862 70.3463C58.9305 69.2793 58.592 68.1925 58.2638 67.136L58.2226 67.0033C57.9101 65.9974 57.606 65.0183 57.3096 64.1291C57.001 63.2033 56.6928 62.3504 56.3816 61.6466C56.0832 60.9717 55.7347 60.3205 55.3071 59.8929C54.3237 58.9095 53.2336 56.8523 52.385 54.3376C51.5468 51.8538 51 49.0893 51 46.8Z" fill="white"/>
<defs>
<filter id="filter0_d_3090_71" x="0" y="0" width="143" height="143" filterUnits="userSpaceOnUse" color-interpolation-filters="sRGB">
<feFlood flood-opacity="0" result="BackgroundImageFix"/>
<feColorMatrix in="SourceAlpha" type="matrix" values="0 0 0 0 0 0 0 0 0 0 0 0 0 0 0 0 0 0 127 0" result="hardAlpha"/>
<feOffset dy="4"/>
<feGaussianBlur stdDeviation="2"/>
<feComposite in2="hardAlpha" operator="out"/>
<feColorMatrix type="matrix" values="0 0 0 0 0 0 0 0 0 0 0 0 0 0 0 0 0 0 0.31 0"/>
<feBlend mode="normal" in2="BackgroundImageFix" result="effect1_dropShadow_3090_71"/>
<feBlend mode="normal" in="SourceGraphic" in2="effect1_dropShadow_3090_71" result="shape"/>
</filter>
</defs>
</svg>
