<svg width="384" height="199" viewBox="0 0 384 199" fill="none" xmlns="http://www.w3.org/2000/svg">
<rect x="32" y="62" width="351" height="136" rx="9" stroke="white" stroke-width="2" fill="white" fill-opacity="0"/>
<g filter="url(#filter0_d_3090_40)">
<rect x="4" width="135" height="135" rx="20" fill="#00BFF8"/>
</g>
<path d="M175.29 116V95.6364H182.548C184.133 95.6364 185.445 95.9247 186.486 96.5014C187.527 97.0781 188.306 97.8669 188.823 98.8679C189.34 99.8622 189.598 100.982 189.598 102.229C189.598 103.482 189.336 104.608 188.813 105.609C188.296 106.604 187.513 107.393 186.466 107.976C185.425 108.553 184.116 108.841 182.539 108.841H177.547V106.236H182.26C183.261 106.236 184.073 106.063 184.696 105.719C185.319 105.367 185.777 104.89 186.068 104.287C186.36 103.684 186.506 102.998 186.506 102.229C186.506 101.46 186.36 100.777 186.068 100.18C185.777 99.5838 185.316 99.1165 184.686 98.7784C184.063 98.4403 183.241 98.2713 182.22 98.2713H178.362V116H175.29ZM199.352 116.308C197.848 116.308 196.552 115.987 195.465 115.344C194.384 114.694 193.549 113.783 192.959 112.609C192.376 111.429 192.084 110.047 192.084 108.463C192.084 106.899 192.376 105.52 192.959 104.327C193.549 103.134 194.371 102.202 195.425 101.533C196.485 100.863 197.725 100.528 199.144 100.528C200.005 100.528 200.841 100.671 201.649 100.956C202.458 101.241 203.184 101.688 203.827 102.298C204.47 102.908 204.977 103.7 205.348 104.675C205.719 105.643 205.905 106.819 205.905 108.205V109.259H193.764V107.031H202.992C202.992 106.249 202.833 105.556 202.514 104.953C202.196 104.343 201.749 103.863 201.172 103.511C200.602 103.16 199.932 102.984 199.164 102.984C198.328 102.984 197.599 103.19 196.976 103.601C196.36 104.005 195.882 104.536 195.544 105.192C195.213 105.841 195.047 106.547 195.047 107.31V109.05C195.047 110.071 195.226 110.939 195.584 111.655C195.949 112.371 196.456 112.918 197.105 113.295C197.755 113.667 198.514 113.852 199.382 113.852C199.946 113.852 200.459 113.773 200.923 113.614C201.387 113.448 201.789 113.203 202.127 112.878C202.465 112.553 202.723 112.152 202.902 111.675L205.716 112.182C205.491 113.01 205.086 113.736 204.503 114.359C203.926 114.976 203.2 115.456 202.325 115.801C201.457 116.139 200.466 116.308 199.352 116.308ZM209.204 116V100.727H212.077V103.153H212.236C212.515 102.331 213.005 101.685 213.708 101.214C214.417 100.737 215.219 100.499 216.114 100.499C216.3 100.499 216.519 100.505 216.77 100.518C217.029 100.532 217.231 100.548 217.377 100.568V103.412C217.258 103.379 217.046 103.342 216.741 103.303C216.436 103.256 216.131 103.233 215.826 103.233C215.123 103.233 214.497 103.382 213.947 103.68C213.403 103.972 212.972 104.38 212.654 104.903C212.336 105.42 212.177 106.01 212.177 106.673V116H209.204ZM228.121 100.727V103.114H219.49V100.727H228.121ZM221.856 116V98.9574C221.856 98.0028 222.065 97.2107 222.483 96.581C222.9 95.9446 223.454 95.4706 224.143 95.1591C224.833 94.8409 225.582 94.6818 226.39 94.6818C226.987 94.6818 227.497 94.7315 227.922 94.831C228.346 94.9238 228.661 95.0099 228.866 95.0895L228.17 97.4957C228.031 97.456 227.852 97.4096 227.633 97.3565C227.415 97.2969 227.149 97.267 226.838 97.267C226.115 97.267 225.598 97.446 225.287 97.804C224.982 98.1619 224.829 98.679 224.829 99.3551V116H221.856ZM237.02 116.308C235.588 116.308 234.338 115.98 233.271 115.324C232.204 114.668 231.375 113.75 230.785 112.57C230.195 111.39 229.9 110.011 229.9 108.433C229.9 106.849 230.195 105.464 230.785 104.277C231.375 103.09 232.204 102.169 233.271 101.513C234.338 100.857 235.588 100.528 237.02 100.528C238.452 100.528 239.701 100.857 240.768 101.513C241.836 102.169 242.664 103.09 243.254 104.277C243.844 105.464 244.139 106.849 244.139 108.433C244.139 110.011 243.844 111.39 243.254 112.57C242.664 113.75 241.836 114.668 240.768 115.324C239.701 115.98 238.452 116.308 237.02 116.308ZM237.03 113.812C237.958 113.812 238.727 113.567 239.336 113.077C239.946 112.586 240.397 111.933 240.689 111.118C240.987 110.303 241.136 109.404 241.136 108.423C241.136 107.449 240.987 106.554 240.689 105.739C240.397 104.917 239.946 104.257 239.336 103.76C238.727 103.263 237.958 103.014 237.03 103.014C236.095 103.014 235.319 103.263 234.703 103.76C234.093 104.257 233.639 104.917 233.341 105.739C233.049 106.554 232.903 107.449 232.903 108.423C232.903 109.404 233.049 110.303 233.341 111.118C233.639 111.933 234.093 112.586 234.703 113.077C235.319 113.567 236.095 113.812 237.03 113.812ZM247.458 116V100.727H250.331V103.153H250.49C250.769 102.331 251.259 101.685 251.962 101.214C252.671 100.737 253.473 100.499 254.368 100.499C254.554 100.499 254.772 100.505 255.024 100.518C255.283 100.532 255.485 100.548 255.631 100.568V103.412C255.512 103.379 255.299 103.342 254.994 103.303C254.69 103.256 254.385 103.233 254.08 103.233C253.377 103.233 252.751 103.382 252.2 103.68C251.657 103.972 251.226 104.38 250.908 104.903C250.59 105.42 250.431 106.01 250.431 106.673V116H247.458ZM258.204 116V100.727H261.057V103.213H261.246C261.564 102.371 262.085 101.715 262.807 101.244C263.53 100.767 264.395 100.528 265.403 100.528C266.423 100.528 267.278 100.767 267.968 101.244C268.664 101.722 269.178 102.378 269.509 103.213H269.668C270.033 102.398 270.613 101.748 271.408 101.264C272.204 100.774 273.152 100.528 274.252 100.528C275.637 100.528 276.768 100.963 277.643 101.831C278.524 102.699 278.965 104.009 278.965 105.759V116H275.992V106.037C275.992 105.003 275.71 104.254 275.147 103.79C274.583 103.326 273.911 103.094 273.128 103.094C272.161 103.094 271.408 103.392 270.871 103.989C270.334 104.579 270.066 105.338 270.066 106.266V116H267.103V105.848C267.103 105.019 266.844 104.353 266.327 103.849C265.81 103.346 265.137 103.094 264.309 103.094C263.745 103.094 263.225 103.243 262.748 103.541C262.277 103.833 261.896 104.241 261.604 104.764C261.319 105.288 261.177 105.894 261.177 106.584V116H258.204ZM287.394 116.338C286.427 116.338 285.552 116.159 284.769 115.801C283.987 115.437 283.367 114.91 282.91 114.22C282.459 113.531 282.234 112.686 282.234 111.685C282.234 110.823 282.4 110.114 282.731 109.557C283.062 109 283.51 108.559 284.073 108.234C284.637 107.91 285.267 107.664 285.963 107.499C286.659 107.333 287.368 107.207 288.09 107.121C289.005 107.015 289.748 106.929 290.318 106.862C290.888 106.789 291.302 106.673 291.561 106.514C291.819 106.355 291.948 106.097 291.948 105.739V105.669C291.948 104.801 291.703 104.128 291.213 103.651C290.729 103.173 290.006 102.935 289.045 102.935C288.044 102.935 287.255 103.157 286.678 103.601C286.108 104.038 285.714 104.526 285.495 105.062L282.701 104.426C283.033 103.498 283.517 102.749 284.153 102.179C284.796 101.602 285.535 101.185 286.37 100.926C287.205 100.661 288.084 100.528 289.005 100.528C289.615 100.528 290.261 100.601 290.944 100.747C291.633 100.886 292.276 101.145 292.873 101.523C293.476 101.901 293.97 102.441 294.355 103.143C294.739 103.839 294.931 104.744 294.931 105.858V116H292.028V113.912H291.909C291.716 114.296 291.428 114.674 291.044 115.045C290.659 115.417 290.165 115.725 289.562 115.97C288.959 116.215 288.236 116.338 287.394 116.338ZM288.041 113.952C288.863 113.952 289.565 113.789 290.149 113.464C290.739 113.14 291.186 112.715 291.491 112.192C291.802 111.661 291.958 111.095 291.958 110.491V108.523C291.852 108.629 291.647 108.728 291.342 108.821C291.044 108.907 290.702 108.983 290.318 109.05C289.933 109.109 289.559 109.166 289.194 109.219C288.829 109.265 288.525 109.305 288.279 109.338C287.703 109.411 287.176 109.534 286.698 109.706C286.228 109.878 285.85 110.127 285.565 110.452C285.286 110.77 285.147 111.194 285.147 111.724C285.147 112.46 285.419 113.017 285.963 113.395C286.506 113.766 287.199 113.952 288.041 113.952ZM301.864 106.932V116H298.891V100.727H301.745V103.213H301.934C302.285 102.404 302.835 101.755 303.584 101.264C304.34 100.774 305.291 100.528 306.438 100.528C307.479 100.528 308.39 100.747 309.172 101.185C309.955 101.616 310.561 102.259 310.992 103.114C311.423 103.969 311.638 105.026 311.638 106.286V116H308.665V106.643C308.665 105.536 308.377 104.671 307.8 104.048C307.224 103.419 306.431 103.104 305.424 103.104C304.734 103.104 304.121 103.253 303.584 103.551C303.054 103.849 302.633 104.287 302.322 104.864C302.017 105.434 301.864 106.123 301.864 106.932ZM322.059 116.308C320.581 116.308 319.308 115.973 318.241 115.304C317.18 114.628 316.365 113.696 315.795 112.51C315.224 111.323 314.939 109.964 314.939 108.433C314.939 106.882 315.231 105.513 315.814 104.327C316.398 103.134 317.22 102.202 318.28 101.533C319.341 100.863 320.59 100.528 322.029 100.528C323.189 100.528 324.223 100.744 325.131 101.175C326.039 101.599 326.772 102.196 327.329 102.964C327.892 103.733 328.227 104.632 328.333 105.659H325.439C325.28 104.943 324.916 104.327 324.346 103.81C323.782 103.293 323.027 103.034 322.079 103.034C321.25 103.034 320.524 103.253 319.901 103.69C319.285 104.121 318.804 104.738 318.459 105.54C318.115 106.335 317.942 107.277 317.942 108.364C317.942 109.477 318.111 110.438 318.449 111.247C318.787 112.056 319.265 112.682 319.881 113.126C320.504 113.571 321.237 113.793 322.079 113.793C322.642 113.793 323.153 113.69 323.61 113.484C324.074 113.272 324.462 112.971 324.773 112.58C325.091 112.188 325.314 111.718 325.439 111.168H328.333C328.227 112.155 327.905 113.037 327.368 113.812C326.831 114.588 326.112 115.198 325.211 115.642C324.316 116.086 323.265 116.308 322.059 116.308ZM338.095 116.308C336.59 116.308 335.294 115.987 334.207 115.344C333.126 114.694 332.291 113.783 331.701 112.609C331.118 111.429 330.826 110.047 330.826 108.463C330.826 106.899 331.118 105.52 331.701 104.327C332.291 103.134 333.113 102.202 334.167 101.533C335.228 100.863 336.467 100.528 337.886 100.528C338.748 100.528 339.583 100.671 340.392 100.956C341.2 101.241 341.926 101.688 342.569 102.298C343.212 102.908 343.719 103.7 344.09 104.675C344.462 105.643 344.647 106.819 344.647 108.205V109.259H332.507V107.031H341.734C341.734 106.249 341.575 105.556 341.257 104.953C340.938 104.343 340.491 103.863 339.914 103.511C339.344 103.16 338.675 102.984 337.906 102.984C337.07 102.984 336.341 103.19 335.718 103.601C335.102 104.005 334.624 104.536 334.286 105.192C333.955 105.841 333.789 106.547 333.789 107.31V109.05C333.789 110.071 333.968 110.939 334.326 111.655C334.691 112.371 335.198 112.918 335.847 113.295C336.497 113.667 337.256 113.852 338.124 113.852C338.688 113.852 339.202 113.773 339.666 113.614C340.13 113.448 340.531 113.203 340.869 112.878C341.207 112.553 341.465 112.152 341.644 111.675L344.458 112.182C344.233 113.01 343.829 113.736 343.245 114.359C342.669 114.976 341.943 115.456 341.068 115.801C340.199 116.139 339.208 116.308 338.095 116.308ZM211.391 158V142.727H214.245V145.213H214.434C214.752 144.371 215.272 143.715 215.995 143.244C216.717 142.767 217.582 142.528 218.59 142.528C219.611 142.528 220.466 142.767 221.155 143.244C221.851 143.722 222.365 144.378 222.697 145.213H222.856C223.22 144.398 223.8 143.748 224.596 143.264C225.391 142.774 226.339 142.528 227.439 142.528C228.825 142.528 229.955 142.963 230.83 143.831C231.712 144.699 232.153 146.009 232.153 147.759V158H229.18V148.037C229.18 147.003 228.898 146.254 228.334 145.79C227.771 145.326 227.098 145.094 226.316 145.094C225.348 145.094 224.596 145.392 224.059 145.989C223.522 146.579 223.253 147.338 223.253 148.266V158H220.29V147.848C220.29 147.019 220.032 146.353 219.515 145.849C218.998 145.346 218.325 145.094 217.496 145.094C216.933 145.094 216.412 145.243 215.935 145.541C215.465 145.833 215.083 146.241 214.792 146.764C214.507 147.288 214.364 147.894 214.364 148.584V158H211.391ZM242.72 158.308C241.215 158.308 239.919 157.987 238.832 157.344C237.751 156.694 236.916 155.783 236.326 154.609C235.743 153.429 235.451 152.047 235.451 150.463C235.451 148.899 235.743 147.52 236.326 146.327C236.916 145.134 237.738 144.202 238.792 143.533C239.853 142.863 241.092 142.528 242.511 142.528C243.373 142.528 244.208 142.671 245.017 142.956C245.825 143.241 246.551 143.688 247.194 144.298C247.837 144.908 248.344 145.7 248.715 146.675C249.087 147.643 249.272 148.819 249.272 150.205V151.259H237.132V149.031H246.359C246.359 148.249 246.2 147.556 245.882 146.953C245.563 146.343 245.116 145.863 244.539 145.511C243.969 145.16 243.3 144.984 242.531 144.984C241.695 144.984 240.966 145.19 240.343 145.601C239.727 146.005 239.249 146.536 238.911 147.192C238.58 147.841 238.414 148.547 238.414 149.31V151.05C238.414 152.071 238.593 152.939 238.951 153.655C239.316 154.371 239.823 154.918 240.472 155.295C241.122 155.667 241.881 155.852 242.749 155.852C243.313 155.852 243.827 155.773 244.291 155.614C244.755 155.448 245.156 155.203 245.494 154.878C245.832 154.553 246.09 154.152 246.269 153.675L249.083 154.182C248.858 155.01 248.454 155.736 247.87 156.359C247.294 156.976 246.568 157.456 245.693 157.801C244.824 158.139 243.833 158.308 242.72 158.308ZM259.7 142.727V145.114H251.358V142.727H259.7ZM253.595 139.068H256.568V153.516C256.568 154.092 256.654 154.527 256.827 154.818C256.999 155.103 257.221 155.299 257.493 155.405C257.771 155.504 258.073 155.554 258.398 155.554C258.636 155.554 258.845 155.537 259.024 155.504C259.203 155.471 259.342 155.445 259.442 155.425L259.979 157.881C259.806 157.947 259.561 158.013 259.243 158.08C258.925 158.152 258.527 158.192 258.05 158.199C257.267 158.212 256.538 158.073 255.862 157.781C255.186 157.49 254.639 157.039 254.221 156.429C253.804 155.819 253.595 155.054 253.595 154.132V139.068ZM262.989 158V142.727H265.862V145.153H266.021C266.3 144.331 266.79 143.685 267.493 143.214C268.202 142.737 269.004 142.499 269.899 142.499C270.085 142.499 270.304 142.505 270.556 142.518C270.814 142.532 271.016 142.548 271.162 142.568V145.412C271.043 145.379 270.831 145.342 270.526 145.303C270.221 145.256 269.916 145.233 269.611 145.233C268.908 145.233 268.282 145.382 267.732 145.68C267.188 145.972 266.757 146.38 266.439 146.903C266.121 147.42 265.962 148.01 265.962 148.673V158H262.989ZM273.735 158V142.727H276.708V158H273.735ZM275.236 140.371C274.719 140.371 274.275 140.198 273.904 139.854C273.539 139.502 273.357 139.085 273.357 138.601C273.357 138.11 273.539 137.693 273.904 137.348C274.275 136.997 274.719 136.821 275.236 136.821C275.753 136.821 276.194 136.997 276.559 137.348C276.93 137.693 277.116 138.11 277.116 138.601C277.116 139.085 276.93 139.502 276.559 139.854C276.194 140.198 275.753 140.371 275.236 140.371ZM287.141 158.308C285.663 158.308 284.39 157.973 283.323 157.304C282.262 156.628 281.447 155.696 280.877 154.51C280.307 153.323 280.021 151.964 280.021 150.433C280.021 148.882 280.313 147.513 280.896 146.327C281.48 145.134 282.302 144.202 283.362 143.533C284.423 142.863 285.673 142.528 287.111 142.528C288.271 142.528 289.305 142.744 290.213 143.175C291.121 143.599 291.854 144.196 292.411 144.964C292.974 145.733 293.309 146.632 293.415 147.659H290.521C290.362 146.943 289.998 146.327 289.428 145.81C288.864 145.293 288.109 145.034 287.161 145.034C286.332 145.034 285.606 145.253 284.983 145.69C284.367 146.121 283.886 146.738 283.541 147.54C283.197 148.335 283.024 149.277 283.024 150.364C283.024 151.477 283.193 152.438 283.531 153.247C283.869 154.056 284.347 154.682 284.963 155.126C285.586 155.571 286.319 155.793 287.161 155.793C287.724 155.793 288.235 155.69 288.692 155.484C289.156 155.272 289.544 154.971 289.855 154.58C290.173 154.188 290.396 153.718 290.521 153.168H293.415C293.309 154.155 292.987 155.037 292.45 155.812C291.914 156.588 291.194 157.198 290.293 157.642C289.398 158.086 288.347 158.308 287.141 158.308ZM308.039 146.456L305.344 146.933C305.232 146.589 305.053 146.26 304.807 145.949C304.569 145.637 304.244 145.382 303.833 145.183C303.422 144.984 302.908 144.885 302.292 144.885C301.45 144.885 300.747 145.074 300.184 145.452C299.62 145.823 299.339 146.304 299.339 146.893C299.339 147.404 299.528 147.815 299.905 148.126C300.283 148.438 300.893 148.693 301.735 148.892L304.161 149.449C305.566 149.774 306.614 150.274 307.303 150.95C307.992 151.626 308.337 152.505 308.337 153.585C308.337 154.5 308.072 155.315 307.542 156.031C307.018 156.741 306.286 157.297 305.344 157.702C304.41 158.106 303.326 158.308 302.093 158.308C300.383 158.308 298.987 157.944 297.907 157.214C296.826 156.479 296.163 155.435 295.918 154.082L298.792 153.645C298.971 154.394 299.339 154.961 299.895 155.345C300.452 155.723 301.178 155.912 302.073 155.912C303.047 155.912 303.826 155.71 304.41 155.305C304.993 154.894 305.285 154.394 305.285 153.804C305.285 153.327 305.106 152.926 304.748 152.601C304.396 152.276 303.856 152.031 303.127 151.865L300.542 151.298C299.117 150.973 298.063 150.456 297.38 149.747C296.704 149.038 296.366 148.14 296.366 147.053C296.366 146.151 296.617 145.362 297.121 144.686C297.625 144.01 298.321 143.483 299.209 143.105C300.098 142.721 301.115 142.528 302.262 142.528C303.912 142.528 305.212 142.886 306.16 143.602C307.108 144.312 307.734 145.263 308.039 146.456Z" fill="white"/>
<path fill-rule="evenodd" clip-rule="evenodd" d="M117 25H29C27.8954 25 27 25.8954 27 27V94C27 95.1046 27.8954 96 29 96H117C118.105 96 119 95.1046 119 94V27C119 25.8954 118.105 25 117 25ZM29 22C26.2386 22 24 24.2386 24 27V94C24 96.7614 26.2386 99 29 99H117C119.761 99 122 96.7614 122 94V27C122 24.2386 119.761 22 117 22H29Z" fill="white"/>
<path d="M27 87H119V90H27V87Z" fill="white"/>
<path fill-rule="evenodd" clip-rule="evenodd" d="M47.5 63.5C46.9477 63.5 46.5 63.0523 46.5 62.5V47.3375C44.9025 47.7017 43.3762 48.3555 41.9998 49.2751C39.7797 50.7585 38.0494 52.867 37.0276 55.3338C36.0058 57.8006 35.7385 60.515 36.2594 63.1337C36.7803 65.7524 38.066 68.1579 39.9541 70.0459C41.8421 71.9339 44.2475 73.2197 46.8663 73.7406C49.485 74.2615 52.1994 73.9941 54.6662 72.9724C57.133 71.9506 59.2414 70.2202 60.7248 68.0002C61.6445 66.6238 62.2983 65.0975 62.6625 63.5H47.5ZM65 60.5C65.5523 60.5 66.0032 60.9482 65.9697 61.4994C65.793 64.4115 64.8467 67.2312 63.2192 69.6669C61.4062 72.3803 58.8293 74.4951 55.8143 75.744C52.7993 76.9928 49.4817 77.3196 46.281 76.6829C43.0803 76.0463 40.1403 74.4748 37.8327 72.1672C35.5252 69.8597 33.9537 66.9197 33.317 63.719C32.6804 60.5183 33.0071 57.2007 34.256 54.1857C35.5048 51.1707 37.6197 48.5938 40.3331 46.7807C42.7687 45.1533 45.5885 44.207 48.5006 44.0303C49.0518 43.9968 49.5 44.4477 49.5 45V60.5H65Z" fill="white"/>
<path fill-rule="evenodd" clip-rule="evenodd" d="M57.5 42.3375V52.5L67.6624 52.5C67.4941 51.7615 67.2636 51.0368 66.9724 50.3338C66.2939 48.6959 65.2995 47.2076 64.0459 45.9541C62.7924 44.7005 61.3041 43.7061 59.6662 43.0276C58.9632 42.7364 58.2385 42.5059 57.5 42.3375ZM55.4994 39.0303C54.9481 38.9968 54.5 39.4477 54.5 40V54.5C54.5 55.0523 54.9477 55.5 55.5 55.5H70C70.5523 55.5 71.0032 55.0519 70.9697 54.5006C70.859 52.6756 70.4455 50.8792 69.744 49.1857C68.9148 47.1838 67.6994 45.3649 66.1673 43.8327C64.6351 42.3006 62.8162 41.0852 60.8143 40.256C59.1208 39.5545 57.3244 39.141 55.4994 39.0303Z" fill="white"/>
<path fill-rule="evenodd" clip-rule="evenodd" d="M76 59.8541V74H80V57.8541L76 59.8541ZM73.5528 57.7236C73.214 57.893 73 58.2392 73 58.618V76C73 76.5523 73.4477 77 74 77H82C82.5523 77 83 76.5523 83 76V54.618C83 53.8746 82.2177 53.3911 81.5528 53.7236L73.5528 57.7236Z" fill="white"/>
<path fill-rule="evenodd" clip-rule="evenodd" d="M90 53.8541V74H94V51.8541L90 53.8541ZM87.5528 51.7236C87.214 51.893 87 52.2392 87 52.618V76C87 76.5523 87.4477 77 88 77H96C96.5523 77 97 76.5523 97 76V48.618C97 47.8746 96.2177 47.3911 95.5528 47.7236L87.5528 51.7236Z" fill="white"/>
<path fill-rule="evenodd" clip-rule="evenodd" d="M104 46.8541V74H108V44.8541L104 46.8541ZM101.553 44.7236C101.214 44.893 101 45.2392 101 45.618V76C101 76.5523 101.448 77 102 77H110C110.552 77 111 76.5523 111 76V41.618C111 40.8746 110.218 40.3911 109.553 40.7236L101.553 44.7236Z" fill="white"/>
<path d="M54 110V114H71V110H54Z" fill="white"/>
<path d="M92 114V110H75V114H92Z" fill="white"/>
<path d="M75 99H71V110V114H75V110V99Z" fill="white"/>
<defs>
<filter id="filter0_d_3090_40" x="0" y="0" width="143" height="143" filterUnits="userSpaceOnUse" color-interpolation-filters="sRGB">
<feFlood flood-opacity="0" result="BackgroundImageFix"/>
<feColorMatrix in="SourceAlpha" type="matrix" values="0 0 0 0 0 0 0 0 0 0 0 0 0 0 0 0 0 0 127 0" result="hardAlpha"/>
<feOffset dy="4"/>
<feGaussianBlur stdDeviation="2"/>
<feComposite in2="hardAlpha" operator="out"/>
<feColorMatrix type="matrix" values="0 0 0 0 0 0 0 0 0 0 0 0 0 0 0 0 0 0 0.31 0"/>
<feBlend mode="normal" in2="BackgroundImageFix" result="effect1_dropShadow_3090_40"/>
<feBlend mode="normal" in="SourceGraphic" in2="effect1_dropShadow_3090_40" result="shape"/>
</filter>
</defs>
</svg>
