<svg width="361" height="179" viewBox="0 0 361 179" fill="none" xmlns="http://www.w3.org/2000/svg">
<rect x="71" y="42" width="289" height="136" rx="9" stroke="white" stroke-width="2" fill="white" fill-opacity="0"/>
<g filter="url(#filter0_d_3089_16)">
<rect x="4" width="135" height="135" rx="20" fill="#00BFF8"/>
</g>
<path d="M194.224 121L188.577 100.636H191.808L195.776 116.406H195.964L200.091 100.636H203.293L207.419 116.416H207.608L211.565 100.636H214.807L209.149 121H206.057L201.771 105.747H201.612L197.327 121H194.224ZM222.448 121.308C220.943 121.308 219.647 120.987 218.56 120.344C217.48 119.694 216.645 118.783 216.055 117.609C215.471 116.429 215.18 115.047 215.18 113.463C215.18 111.899 215.471 110.52 216.055 109.327C216.645 108.134 217.467 107.202 218.521 106.533C219.581 105.863 220.821 105.528 222.239 105.528C223.101 105.528 223.936 105.671 224.745 105.956C225.554 106.241 226.28 106.688 226.923 107.298C227.566 107.908 228.073 108.7 228.444 109.675C228.815 110.643 229.001 111.819 229.001 113.205V114.259H216.86V112.031H226.087C226.087 111.249 225.928 110.556 225.61 109.953C225.292 109.343 224.844 108.863 224.268 108.511C223.698 108.16 223.028 107.984 222.259 107.984C221.424 107.984 220.695 108.19 220.072 108.601C219.455 109.005 218.978 109.536 218.64 110.192C218.308 110.841 218.143 111.547 218.143 112.31V114.05C218.143 115.071 218.322 115.939 218.68 116.655C219.044 117.371 219.551 117.918 220.201 118.295C220.851 118.667 221.61 118.852 222.478 118.852C223.041 118.852 223.555 118.773 224.019 118.614C224.483 118.448 224.884 118.203 225.222 117.878C225.56 117.553 225.819 117.152 225.998 116.675L228.812 117.182C228.586 118.01 228.182 118.736 227.599 119.359C227.022 119.976 226.296 120.456 225.421 120.801C224.553 121.139 223.562 121.308 222.448 121.308ZM232.538 121V100.636H235.511V108.203H235.69C235.862 107.885 236.111 107.517 236.436 107.099C236.761 106.682 237.211 106.317 237.788 106.006C238.365 105.688 239.127 105.528 240.075 105.528C241.308 105.528 242.408 105.84 243.376 106.463C244.344 107.086 245.103 107.984 245.653 109.158C246.21 110.331 246.488 111.743 246.488 113.393C246.488 115.044 246.213 116.459 245.663 117.639C245.113 118.812 244.357 119.717 243.396 120.354C242.435 120.983 241.338 121.298 240.105 121.298C239.177 121.298 238.418 121.143 237.828 120.831C237.244 120.519 236.787 120.155 236.456 119.737C236.124 119.32 235.869 118.948 235.69 118.624H235.441V121H232.538ZM235.451 113.364C235.451 114.437 235.607 115.379 235.919 116.188C236.23 116.996 236.681 117.629 237.271 118.087C237.861 118.537 238.583 118.763 239.439 118.763C240.327 118.763 241.069 118.527 241.666 118.057C242.262 117.58 242.713 116.933 243.018 116.118C243.33 115.303 243.485 114.384 243.485 113.364C243.485 112.356 243.333 111.451 243.028 110.649C242.73 109.847 242.279 109.214 241.676 108.75C241.079 108.286 240.333 108.054 239.439 108.054C238.577 108.054 237.848 108.276 237.251 108.72C236.661 109.164 236.214 109.784 235.909 110.58C235.604 111.375 235.451 112.303 235.451 113.364ZM261.271 109.456L258.577 109.933C258.464 109.589 258.285 109.26 258.04 108.949C257.801 108.637 257.476 108.382 257.065 108.183C256.654 107.984 256.141 107.885 255.524 107.885C254.682 107.885 253.98 108.074 253.416 108.452C252.853 108.823 252.571 109.304 252.571 109.893C252.571 110.404 252.76 110.815 253.138 111.126C253.516 111.438 254.125 111.693 254.967 111.892L257.393 112.449C258.799 112.774 259.846 113.274 260.536 113.95C261.225 114.626 261.57 115.505 261.57 116.585C261.57 117.5 261.304 118.315 260.774 119.031C260.25 119.741 259.518 120.297 258.577 120.702C257.642 121.106 256.558 121.308 255.325 121.308C253.615 121.308 252.22 120.944 251.139 120.214C250.059 119.479 249.396 118.435 249.151 117.082L252.024 116.645C252.203 117.394 252.571 117.961 253.128 118.345C253.685 118.723 254.411 118.912 255.305 118.912C256.28 118.912 257.059 118.71 257.642 118.305C258.225 117.894 258.517 117.394 258.517 116.804C258.517 116.327 258.338 115.926 257.98 115.601C257.629 115.276 257.089 115.031 256.359 114.865L253.774 114.298C252.349 113.973 251.295 113.456 250.612 112.747C249.936 112.038 249.598 111.14 249.598 110.053C249.598 109.151 249.85 108.362 250.354 107.686C250.857 107.01 251.554 106.483 252.442 106.105C253.33 105.721 254.348 105.528 255.494 105.528C257.145 105.528 258.444 105.886 259.392 106.602C260.34 107.312 260.966 108.263 261.271 109.456ZM264.838 121V105.727H267.811V121H264.838ZM266.34 103.371C265.823 103.371 265.379 103.198 265.007 102.854C264.643 102.502 264.461 102.085 264.461 101.601C264.461 101.11 264.643 100.693 265.007 100.348C265.379 99.9967 265.823 99.821 266.34 99.821C266.857 99.821 267.298 99.9967 267.662 100.348C268.033 100.693 268.219 101.11 268.219 101.601C268.219 102.085 268.033 102.502 267.662 102.854C267.298 103.198 266.857 103.371 266.34 103.371ZM278.94 105.727V108.114H270.598V105.727H278.94ZM272.835 102.068H275.808V116.516C275.808 117.092 275.894 117.527 276.067 117.818C276.239 118.103 276.461 118.299 276.733 118.405C277.011 118.504 277.313 118.554 277.638 118.554C277.876 118.554 278.085 118.537 278.264 118.504C278.443 118.471 278.582 118.445 278.682 118.425L279.219 120.881C279.046 120.947 278.801 121.013 278.483 121.08C278.165 121.152 277.767 121.192 277.29 121.199C276.508 121.212 275.778 121.073 275.102 120.781C274.426 120.49 273.879 120.039 273.462 119.429C273.044 118.819 272.835 118.054 272.835 117.132V102.068ZM288.647 121.308C287.143 121.308 285.847 120.987 284.76 120.344C283.679 119.694 282.844 118.783 282.254 117.609C281.671 116.429 281.379 115.047 281.379 113.463C281.379 111.899 281.671 110.52 282.254 109.327C282.844 108.134 283.666 107.202 284.72 106.533C285.78 105.863 287.02 105.528 288.439 105.528C289.3 105.528 290.136 105.671 290.944 105.956C291.753 106.241 292.479 106.688 293.122 107.298C293.765 107.908 294.272 108.7 294.643 109.675C295.014 110.643 295.2 111.819 295.2 113.205V114.259H283.059V112.031H292.287C292.287 111.249 292.127 110.556 291.809 109.953C291.491 109.343 291.044 108.863 290.467 108.511C289.897 108.16 289.227 107.984 288.458 107.984C287.623 107.984 286.894 108.19 286.271 108.601C285.654 109.005 285.177 109.536 284.839 110.192C284.508 110.841 284.342 111.547 284.342 112.31V114.05C284.342 115.071 284.521 115.939 284.879 116.655C285.243 117.371 285.751 117.918 286.4 118.295C287.05 118.667 287.809 118.852 288.677 118.852C289.241 118.852 289.754 118.773 290.218 118.614C290.682 118.448 291.083 118.203 291.422 117.878C291.76 117.553 292.018 117.152 292.197 116.675L295.011 117.182C294.786 118.01 294.381 118.736 293.798 119.359C293.221 119.976 292.495 120.456 291.62 120.801C290.752 121.139 289.761 121.308 288.647 121.308Z" fill="white"/>
<path d="M26 39H83V42H26V39Z" fill="white"/>
<path d="M100 35C100 36.1046 99.1046 37 98 37C96.8954 37 96 36.1046 96 35C96 33.8954 96.8954 33 98 33C99.1046 33 100 33.8954 100 35Z" fill="white"/>
<path d="M106 35C106 36.1046 105.105 37 104 37C102.895 37 102 36.1046 102 35C102 33.8954 102.895 33 104 33C105.105 33 106 33.8954 106 35Z" fill="white"/>
<path d="M112 35C112 36.1046 111.105 37 110 37C108.895 37 108 36.1046 108 35C108 33.8954 108.895 33 110 33C111.105 33 112 33.8954 112 35Z" fill="white"/>
<path fill-rule="evenodd" clip-rule="evenodd" d="M86.6627 31H117C118.105 31 119 31.8954 119 33V39H93L86.6627 31ZM119 42V105C119 106.105 118.105 107 117 107H29C27.8954 107 27 106.105 27 105V33C27 31.8954 27.8954 31 29 31H82.8376L91.5966 42H119ZM24 33C24 30.2386 26.2386 28 29 28H117C119.761 28 122 30.2386 122 33V105C122 107.761 119.761 110 117 110H29C26.2386 110 24 107.761 24 105V33Z" fill="white"/>
<path fill-rule="evenodd" clip-rule="evenodd" d="M48.3095 74.057C48.3095 60.346 59.3191 49.2143 73.0476 49.2143C86.7761 49.2143 97.7857 60.346 97.7857 74.057C97.7857 87.7855 86.7585 98.6905 73.0476 98.6905C59.3367 98.6905 48.3095 87.7855 48.3095 74.057ZM52.5564 66.7299C51.7487 69.0198 51.3095 71.4862 51.3095 74.057C51.3095 76.5601 51.7263 78.9565 52.495 81.1826C52.5666 81.1721 52.6398 81.1667 52.7143 81.1667H93.3809C93.4554 81.1667 93.5286 81.1721 93.6002 81.1826C94.3689 78.9565 94.7857 76.5601 94.7857 74.057C94.7857 71.4862 94.3465 69.0198 93.5388 66.7299C93.4869 66.7353 93.4343 66.7381 93.3809 66.7381H52.7143C52.6609 66.7381 52.6083 66.7353 52.5564 66.7299ZM53.8718 63.7381H92.2234C88.5692 56.8762 81.3739 52.2143 73.0476 52.2143C64.7214 52.2143 57.526 56.8762 53.8718 63.7381ZM92.3086 84.1667H53.7866C57.4104 91.051 64.6465 95.6905 73.0476 95.6905C81.4487 95.6905 88.6848 91.051 92.3086 84.1667Z" fill="white"/>
<path fill-rule="evenodd" clip-rule="evenodd" d="M63.4777 56.8839C65.6559 52.5003 68.9479 49.2143 73.0476 49.2143C77.1473 49.2143 80.4393 52.5003 82.6176 56.8839C84.8404 61.3572 86.1666 67.4312 86.1666 74.057C86.1666 80.6829 84.8403 86.7077 82.6142 91.1321C80.4288 95.4758 77.1337 98.6905 73.0476 98.6905C68.9615 98.6905 65.6664 95.4758 63.481 91.1321C61.2549 86.7077 59.9286 80.6829 59.9286 74.057C59.9286 67.4312 61.2548 61.3572 63.4777 56.8839ZM66.1643 58.2189C64.189 62.1941 62.9286 67.7914 62.9286 74.057C62.9286 80.3224 64.1889 85.8643 66.1609 89.7838C68.1736 93.7841 70.688 95.6905 73.0476 95.6905C75.4072 95.6905 77.9216 93.7841 79.9343 89.7838C81.9063 85.8643 83.1666 80.3224 83.1666 74.057C83.1666 67.7914 81.9062 62.1941 79.931 58.2189C77.9111 54.154 75.3936 52.2143 73.0476 52.2143C70.7016 52.2143 68.1841 54.154 66.1643 58.2189Z" fill="white"/>
<defs>
<filter id="filter0_d_3089_16" x="0" y="0" width="143" height="143" filterUnits="userSpaceOnUse" color-interpolation-filters="sRGB">
<feFlood flood-opacity="0" result="BackgroundImageFix"/>
<feColorMatrix in="SourceAlpha" type="matrix" values="0 0 0 0 0 0 0 0 0 0 0 0 0 0 0 0 0 0 127 0" result="hardAlpha"/>
<feOffset dy="4"/>
<feGaussianBlur stdDeviation="2"/>
<feComposite in2="hardAlpha" operator="out"/>
<feColorMatrix type="matrix" values="0 0 0 0 0 0 0 0 0 0 0 0 0 0 0 0 0 0 0.31 0"/>
<feBlend mode="normal" in2="BackgroundImageFix" result="effect1_dropShadow_3089_16"/>
<feBlend mode="normal" in="SourceGraphic" in2="effect1_dropShadow_3089_16" result="shape"/>
</filter>
</defs>
</svg>
