<svg width="354" height="179" viewBox="0 0 354 179" fill="none" xmlns="http://www.w3.org/2000/svg">
<rect x="73" y="42" width="257" height="136" rx="9" stroke="white" stroke-width="2"fill="transparent"/>
<g filter="url(#filter0_d_3090_86)">
<rect x="4" width="135" height="135" rx="20" fill="#00BFF8"/>
</g>
<path d="M192.407 123V102.636H205.035V105.281H195.48V111.486H204.13V114.121H195.48V123H192.407ZM213.887 123.308C212.455 123.308 211.206 122.98 210.138 122.324C209.071 121.668 208.242 120.75 207.653 119.57C207.063 118.39 206.768 117.011 206.768 115.433C206.768 113.849 207.063 112.464 207.653 111.277C208.242 110.09 209.071 109.169 210.138 108.513C211.206 107.857 212.455 107.528 213.887 107.528C215.319 107.528 216.568 107.857 217.635 108.513C218.703 109.169 219.531 110.09 220.121 111.277C220.711 112.464 221.006 113.849 221.006 115.433C221.006 117.011 220.711 118.39 220.121 119.57C219.531 120.75 218.703 121.668 217.635 122.324C216.568 122.98 215.319 123.308 213.887 123.308ZM213.897 120.812C214.825 120.812 215.594 120.567 216.204 120.077C216.814 119.586 217.264 118.933 217.556 118.118C217.854 117.303 218.003 116.404 218.003 115.423C218.003 114.449 217.854 113.554 217.556 112.739C217.264 111.917 216.814 111.257 216.204 110.76C215.594 110.263 214.825 110.014 213.897 110.014C212.962 110.014 212.187 110.263 211.57 110.76C210.96 111.257 210.506 111.917 210.208 112.739C209.916 113.554 209.77 114.449 209.77 115.423C209.77 116.404 209.916 117.303 210.208 118.118C210.506 118.933 210.96 119.586 211.57 120.077C212.187 120.567 212.962 120.812 213.897 120.812ZM224.325 123V107.727H227.198V110.153H227.357C227.636 109.331 228.126 108.685 228.829 108.214C229.538 107.737 230.34 107.499 231.235 107.499C231.421 107.499 231.64 107.505 231.892 107.518C232.15 107.532 232.352 107.548 232.498 107.568V110.412C232.379 110.379 232.167 110.342 231.862 110.303C231.557 110.256 231.252 110.233 230.947 110.233C230.244 110.233 229.618 110.382 229.068 110.68C228.524 110.972 228.093 111.38 227.775 111.903C227.457 112.42 227.298 113.01 227.298 113.673V123H224.325ZM235.071 123V107.727H237.925V110.213H238.113C238.432 109.371 238.952 108.715 239.675 108.244C240.397 107.767 241.262 107.528 242.27 107.528C243.291 107.528 244.146 107.767 244.835 108.244C245.531 108.722 246.045 109.378 246.376 110.213H246.535C246.9 109.398 247.48 108.748 248.275 108.264C249.071 107.774 250.019 107.528 251.119 107.528C252.505 107.528 253.635 107.963 254.51 108.831C255.391 109.699 255.832 111.009 255.832 112.759V123H252.859V113.037C252.859 112.003 252.577 111.254 252.014 110.79C251.451 110.326 250.778 110.094 249.996 110.094C249.028 110.094 248.275 110.392 247.738 110.989C247.202 111.579 246.933 112.338 246.933 113.266V123H243.97V112.848C243.97 112.019 243.711 111.353 243.194 110.849C242.677 110.346 242.005 110.094 241.176 110.094C240.613 110.094 240.092 110.243 239.615 110.541C239.144 110.833 238.763 111.241 238.471 111.764C238.186 112.288 238.044 112.894 238.044 113.584V123H235.071ZM271.262 111.456L268.567 111.933C268.454 111.589 268.275 111.26 268.03 110.949C267.791 110.637 267.467 110.382 267.056 110.183C266.645 109.984 266.131 109.885 265.514 109.885C264.673 109.885 263.97 110.074 263.406 110.452C262.843 110.823 262.561 111.304 262.561 111.893C262.561 112.404 262.75 112.815 263.128 113.126C263.506 113.438 264.116 113.693 264.958 113.892L267.384 114.449C268.789 114.774 269.836 115.274 270.526 115.95C271.215 116.626 271.56 117.505 271.56 118.585C271.56 119.5 271.295 120.315 270.764 121.031C270.241 121.741 269.508 122.297 268.567 122.702C267.632 123.106 266.548 123.308 265.316 123.308C263.605 123.308 262.21 122.944 261.129 122.214C260.049 121.479 259.386 120.435 259.141 119.082L262.014 118.645C262.193 119.394 262.561 119.961 263.118 120.345C263.675 120.723 264.401 120.912 265.296 120.912C266.27 120.912 267.049 120.71 267.632 120.305C268.216 119.894 268.507 119.394 268.507 118.804C268.507 118.327 268.328 117.926 267.97 117.601C267.619 117.276 267.079 117.031 266.35 116.865L263.764 116.298C262.339 115.973 261.285 115.456 260.602 114.747C259.926 114.038 259.588 113.14 259.588 112.053C259.588 111.151 259.84 110.362 260.344 109.686C260.848 109.01 261.544 108.483 262.432 108.105C263.32 107.721 264.338 107.528 265.485 107.528C267.135 107.528 268.434 107.886 269.382 108.602C270.33 109.312 270.957 110.263 271.262 111.456Z" fill="white"/>
<path d="M83 31C83 28.0826 81.8411 25.2847 79.7782 23.2218C77.7153 21.1589 74.9174 20 72 20C69.0826 20 66.2847 21.1589 64.2218 23.2218C62.1589 25.2847 61 28.0826 61 31L64.0161 31C64.0161 28.8825 64.8572 26.8518 66.3545 25.3545C67.8518 23.8572 69.8825 23.0161 72 23.0161C74.1175 23.0161 76.1482 23.8572 77.6455 25.3545C79.1428 26.8518 79.9839 28.8825 79.9839 31H83Z" fill="white"/>
<path fill-rule="evenodd" clip-rule="evenodd" d="M72 32C73.1046 32 74 31.1046 74 30C74 28.8954 73.1046 28 72 28C70.8954 28 70 28.8954 70 30C70 31.1046 70.8954 32 72 32ZM72 35C74.7614 35 77 32.7614 77 30C77 27.2386 74.7614 25 72 25C69.2386 25 67 27.2386 67 30C67 32.7614 69.2386 35 72 35Z" fill="white"/>
<path fill-rule="evenodd" clip-rule="evenodd" d="M80 31H91C92.1046 31 93 31.8954 93 33V38H104C105.105 38 106 38.8954 106 40V116C106 117.105 105.105 118 104 118H40C38.8954 118 38 117.105 38 116V40C38 38.8954 38.8954 38 40 38H51V41H41V115H103V41H93V44C93 45.1046 92.1046 46 91 46H53C51.8954 46 51 45.1046 51 44V41H54V43H90V41V38V34H80V31ZM54 38H51V33C51 31.8954 51.8954 31 53 31H64V34H54V38Z" fill="white"/>
<path d="M54 41V38H51V41H54Z" fill="white"/>
<path d="M62 57C62 56.4477 62.4477 56 63 56H99C99.5523 56 100 56.4477 100 57V58C100 58.5523 99.5523 59 99 59H63C62.4477 59 62 58.5523 62 58V57Z" fill="white"/>
<path d="M62 64C62 63.4477 62.4477 63 63 63H92C92.5523 63 93 63.4477 93 64V65C93 65.5523 92.5523 66 92 66H63C62.4477 66 62 65.5523 62 65V64Z" fill="white"/>
<path d="M62 76C62 75.4477 62.4477 75 63 75H99C99.5523 75 100 75.4477 100 76V77C100 77.5523 99.5523 78 99 78H63C62.4477 78 62 77.5523 62 77V76Z" fill="white"/>
<path d="M62 83C62 82.4477 62.4477 82 63 82H92C92.5523 82 93 82.4477 93 83V84C93 84.5523 92.5523 85 92 85H63C62.4477 85 62 84.5523 62 84V83Z" fill="white"/>
<path d="M62 96C62 95.4477 62.4477 95 63 95H99C99.5523 95 100 95.4477 100 96V97C100 97.5523 99.5523 98 99 98H63C62.4477 98 62 97.5523 62 97V96Z" fill="white"/>
<path d="M62 103C62 102.448 62.4477 102 63 102H92C92.5523 102 93 102.448 93 103V104C93 104.552 92.5523 105 92 105H63C62.4477 105 62 104.552 62 104V103Z" fill="white"/>
<path fill-rule="evenodd" clip-rule="evenodd" d="M47 56V65H57V56H47ZM45 53C44.4477 53 44 53.4477 44 54V67C44 67.5523 44.4477 68 45 68H59C59.5523 68 60 67.5523 60 67V54C60 53.4477 59.5523 53 59 53H45Z" fill="white"/>
<path fill-rule="evenodd" clip-rule="evenodd" d="M47 76V85H57V76H47ZM45 73C44.4477 73 44 73.4477 44 74V87C44 87.5523 44.4477 88 45 88H59C59.5523 88 60 87.5523 60 87V74C60 73.4477 59.5523 73 59 73H45Z" fill="white"/>
<path fill-rule="evenodd" clip-rule="evenodd" d="M47 96V105H57V96H47ZM45 93C44.4477 93 44 93.4477 44 94V107C44 107.552 44.4477 108 45 108H59C59.5523 108 60 107.552 60 107V94C60 93.4477 59.5523 93 59 93H45Z" fill="white"/>
<path fill-rule="evenodd" clip-rule="evenodd" d="M55.9898 98.8284C56.3803 98.4379 56.3803 97.8047 55.9898 97.4142L55.2827 96.7071C54.8921 96.3166 54.259 96.3166 53.8684 96.7071L52.235 98.3405L50.6016 96.7071C50.2111 96.3166 49.5779 96.3166 49.1874 96.7071L48.4803 97.4142C48.0898 97.8047 48.0898 98.4379 48.4803 98.8284L50.1137 100.462L48.4803 102.095C48.0898 102.486 48.0898 103.119 48.4803 103.509L49.1874 104.217C49.5779 104.607 50.2111 104.607 50.6016 104.217L52.235 102.583L53.8684 104.217C54.259 104.607 54.8921 104.607 55.2826 104.217L55.9898 103.509C56.3803 103.119 56.3803 102.486 55.9898 102.095L54.3563 100.462L55.9898 98.8284ZM54.3563 100.462L52.235 98.3405L50.1137 100.462L52.235 102.583L54.3563 100.462Z" fill="white"/>
<path d="M54.3563 100.462L52.235 98.3405L50.1137 100.462L52.235 102.583L54.3563 100.462Z" fill="white"/>
<path fill-rule="evenodd" clip-rule="evenodd" d="M55.9898 77.4142C56.3803 77.8047 56.3803 78.4379 55.9898 78.8284L54.3563 80.4618L52.235 78.3405L53.8684 76.7071C54.259 76.3166 54.8921 76.3166 55.2827 76.7071L55.9898 77.4142ZM50.1137 80.4618L48.4803 82.0952C48.0898 82.4858 48.0898 83.1189 48.4803 83.5094L49.1874 84.2165C49.5779 84.6071 50.2111 84.6071 50.6016 84.2165L52.235 82.5831L53.8684 84.2166C54.259 84.6071 54.8921 84.6071 55.2826 84.2166L55.9898 83.5094C56.3803 83.1189 56.3803 82.4858 55.9898 82.0952L54.3563 80.4618L52.235 82.5831L50.1137 80.4618Z" fill="white"/>
<path d="M49.1874 76.7071L48.4803 77.4142C48.0898 77.8047 48.0898 78.4379 48.4803 78.8284L50.1137 80.4618L52.235 78.3405L50.6016 76.7071C50.2111 76.3166 49.5779 76.3166 49.1874 76.7071Z" fill="white"/>
<path d="M54.3563 80.4618L52.235 78.3405L50.1137 80.4618L52.235 82.5831L54.3563 80.4618Z" fill="white"/>
<path fill-rule="evenodd" clip-rule="evenodd" d="M55.9898 59.6328C56.3803 59.2423 56.3803 58.6092 55.9898 58.2186L55.2827 57.5115C54.8921 57.121 54.259 57.121 53.8684 57.5115L50.4195 60.9604L49.9587 60.4995C49.5681 60.109 48.935 60.109 48.5445 60.4995L48.2343 60.8097C47.8438 61.2002 47.8438 61.8334 48.2343 62.2239L50.823 64.8126L52.5473 63.0882L52.5409 63.0817L55.9898 59.6328ZM52.5409 63.0817L51.1213 64.5013L49 62.38L50.4195 60.9604L52.5409 63.0817Z" fill="white"/>
<path d="M49 62.38L51.1213 64.5013L52.5409 63.0817L50.4195 60.9604L49 62.38Z" fill="white"/>
<defs>
<filter id="filter0_d_3090_86" x="0" y="0" width="143" height="143" filterUnits="userSpaceOnUse" color-interpolation-filters="sRGB">
<feFlood flood-opacity="0" result="BackgroundImageFix"/>
<feColorMatrix in="SourceAlpha" type="matrix" values="0 0 0 0 0 0 0 0 0 0 0 0 0 0 0 0 0 0 127 0" result="hardAlpha"/>
<feOffset dy="4"/>
<feGaussianBlur stdDeviation="2"/>
<feComposite in2="hardAlpha" operator="out"/>
<feColorMatrix type="matrix" values="0 0 0 0 0 0 0 0 0 0 0 0 0 0 0 0 0 0 0.31 0"/>
<feBlend mode="normal" in2="BackgroundImageFix" result="effect1_dropShadow_3090_86"/>
<feBlend mode="normal" in="SourceGraphic" in2="effect1_dropShadow_3090_86" result="shape"/>
</filter>
</defs>
</svg>
