<svg width="383" height="183" viewBox="0 0 383 183" fill="none" xmlns="http://www.w3.org/2000/svg">
<rect x="32" y="46" width="350" height="136" rx="9" stroke="white" stroke-width="2" fill="white" fill-opacity="0"/>
<g filter="url(#filter0_d_3090_14)">
<rect x="4" width="135" height="135" rx="20" fill="#00BFF8"/>
</g>
<path d="M192.237 122V101.636H199.496C201.08 101.636 202.393 101.925 203.433 102.501C204.474 103.078 205.253 103.867 205.77 104.868C206.287 105.862 206.545 106.982 206.545 108.229C206.545 109.482 206.284 110.608 205.76 111.609C205.243 112.604 204.461 113.393 203.413 113.976C202.373 114.553 201.063 114.841 199.486 114.841H194.494V112.236H199.207C200.208 112.236 201.02 112.063 201.643 111.719C202.267 111.367 202.724 110.89 203.016 110.287C203.307 109.684 203.453 108.998 203.453 108.229C203.453 107.46 203.307 106.777 203.016 106.18C202.724 105.584 202.263 105.116 201.634 104.778C201.01 104.44 200.188 104.271 199.168 104.271H195.31V122H192.237ZM214.217 122.338C213.249 122.338 212.374 122.159 211.592 121.801C210.809 121.437 210.19 120.91 209.732 120.22C209.281 119.531 209.056 118.686 209.056 117.685C209.056 116.823 209.222 116.114 209.553 115.557C209.885 115 210.332 114.559 210.896 114.234C211.459 113.91 212.089 113.664 212.785 113.499C213.481 113.333 214.19 113.207 214.913 113.121C215.827 113.015 216.57 112.929 217.14 112.862C217.71 112.789 218.124 112.673 218.383 112.514C218.641 112.355 218.771 112.097 218.771 111.739V111.669C218.771 110.801 218.525 110.128 218.035 109.651C217.551 109.173 216.828 108.935 215.867 108.935C214.866 108.935 214.077 109.157 213.501 109.601C212.931 110.038 212.536 110.526 212.317 111.062L209.523 110.426C209.855 109.498 210.339 108.749 210.975 108.179C211.618 107.602 212.357 107.185 213.192 106.926C214.028 106.661 214.906 106.528 215.827 106.528C216.437 106.528 217.084 106.601 217.766 106.747C218.456 106.886 219.099 107.145 219.695 107.523C220.299 107.901 220.792 108.441 221.177 109.143C221.561 109.839 221.754 110.744 221.754 111.858V122H218.85V119.912H218.731C218.539 120.296 218.25 120.674 217.866 121.045C217.481 121.417 216.987 121.725 216.384 121.97C215.781 122.215 215.058 122.338 214.217 122.338ZM214.863 119.952C215.685 119.952 216.388 119.789 216.971 119.464C217.561 119.14 218.008 118.715 218.313 118.192C218.625 117.661 218.781 117.095 218.781 116.491V114.523C218.674 114.629 218.469 114.728 218.164 114.821C217.866 114.907 217.524 114.983 217.14 115.05C216.755 115.109 216.381 115.166 216.016 115.219C215.652 115.265 215.347 115.305 215.102 115.338C214.525 115.411 213.998 115.534 213.521 115.706C213.05 115.878 212.672 116.127 212.387 116.452C212.109 116.77 211.969 117.194 211.969 117.724C211.969 118.46 212.241 119.017 212.785 119.395C213.328 119.766 214.021 119.952 214.863 119.952ZM227.046 127.727C226.602 127.727 226.197 127.691 225.833 127.618C225.468 127.552 225.196 127.479 225.017 127.399L225.733 124.963C226.277 125.109 226.761 125.172 227.185 125.152C227.609 125.132 227.984 124.973 228.309 124.675C228.64 124.376 228.932 123.889 229.184 123.213L229.551 122.199L223.963 106.727H227.145L231.013 118.58H231.172L235.04 106.727H238.232L231.938 124.038C231.646 124.834 231.275 125.507 230.824 126.057C230.373 126.614 229.837 127.031 229.213 127.31C228.59 127.588 227.868 127.727 227.046 127.727ZM241.026 122V106.727H243.88V109.213H244.069C244.387 108.371 244.907 107.715 245.63 107.244C246.352 106.767 247.217 106.528 248.225 106.528C249.246 106.528 250.101 106.767 250.79 107.244C251.486 107.722 252 108.378 252.331 109.213H252.49C252.855 108.398 253.435 107.748 254.23 107.264C255.026 106.774 255.974 106.528 257.074 106.528C258.46 106.528 259.59 106.963 260.465 107.831C261.346 108.699 261.787 110.009 261.787 111.759V122H258.814V112.037C258.814 111.003 258.533 110.254 257.969 109.79C257.406 109.326 256.733 109.094 255.951 109.094C254.983 109.094 254.23 109.392 253.694 109.989C253.157 110.579 252.888 111.338 252.888 112.266V122H249.925V111.848C249.925 111.019 249.667 110.353 249.15 109.849C248.632 109.346 247.96 109.094 247.131 109.094C246.568 109.094 246.047 109.243 245.57 109.541C245.099 109.833 244.718 110.241 244.426 110.764C244.141 111.288 243.999 111.894 243.999 112.584V122H241.026ZM272.354 122.308C270.85 122.308 269.554 121.987 268.467 121.344C267.386 120.694 266.551 119.783 265.961 118.609C265.378 117.429 265.086 116.047 265.086 114.463C265.086 112.899 265.378 111.52 265.961 110.327C266.551 109.134 267.373 108.202 268.427 107.533C269.487 106.863 270.727 106.528 272.146 106.528C273.007 106.528 273.843 106.671 274.651 106.956C275.46 107.241 276.186 107.688 276.829 108.298C277.472 108.908 277.979 109.7 278.35 110.675C278.721 111.643 278.907 112.819 278.907 114.205V115.259H266.766V113.031H275.994C275.994 112.249 275.835 111.556 275.516 110.953C275.198 110.343 274.751 109.863 274.174 109.511C273.604 109.16 272.934 108.984 272.165 108.984C271.33 108.984 270.601 109.19 269.978 109.601C269.362 110.005 268.884 110.536 268.546 111.192C268.215 111.841 268.049 112.547 268.049 113.31V115.05C268.049 116.071 268.228 116.939 268.586 117.655C268.951 118.371 269.458 118.918 270.107 119.295C270.757 119.667 271.516 119.852 272.384 119.852C272.948 119.852 273.461 119.773 273.925 119.614C274.389 119.448 274.79 119.203 275.129 118.878C275.467 118.553 275.725 118.152 275.904 117.675L278.718 118.182C278.493 119.01 278.088 119.736 277.505 120.359C276.928 120.976 276.202 121.456 275.327 121.801C274.459 122.139 273.468 122.308 272.354 122.308ZM285.179 112.932V122H282.206V106.727H285.059V109.213H285.248C285.6 108.404 286.15 107.755 286.899 107.264C287.654 106.774 288.606 106.528 289.752 106.528C290.793 106.528 291.705 106.747 292.487 107.185C293.269 107.616 293.876 108.259 294.306 109.114C294.737 109.969 294.953 111.026 294.953 112.286V122H291.98V112.643C291.98 111.536 291.691 110.671 291.115 110.048C290.538 109.419 289.746 109.104 288.738 109.104C288.049 109.104 287.436 109.253 286.899 109.551C286.368 109.849 285.948 110.287 285.636 110.864C285.331 111.434 285.179 112.123 285.179 112.932ZM306.069 106.727V109.114H297.727V106.727H306.069ZM299.964 103.068H302.937V117.516C302.937 118.092 303.023 118.527 303.196 118.818C303.368 119.103 303.59 119.299 303.862 119.405C304.14 119.504 304.442 119.554 304.767 119.554C305.005 119.554 305.214 119.537 305.393 119.504C305.572 119.471 305.711 119.445 305.811 119.425L306.348 121.881C306.175 121.947 305.93 122.013 305.612 122.08C305.294 122.152 304.896 122.192 304.419 122.199C303.636 122.212 302.907 122.073 302.231 121.781C301.555 121.49 301.008 121.039 300.591 120.429C300.173 119.819 299.964 119.054 299.964 118.132V103.068ZM320.556 110.456L317.862 110.933C317.749 110.589 317.57 110.26 317.325 109.949C317.086 109.637 316.761 109.382 316.35 109.183C315.94 108.984 315.426 108.885 314.809 108.885C313.967 108.885 313.265 109.074 312.701 109.452C312.138 109.823 311.856 110.304 311.856 110.893C311.856 111.404 312.045 111.815 312.423 112.126C312.801 112.438 313.411 112.693 314.252 112.892L316.679 113.449C318.084 113.774 319.131 114.274 319.821 114.95C320.51 115.626 320.855 116.505 320.855 117.585C320.855 118.5 320.59 119.315 320.059 120.031C319.536 120.741 318.803 121.297 317.862 121.702C316.927 122.106 315.843 122.308 314.61 122.308C312.9 122.308 311.505 121.944 310.424 121.214C309.344 120.479 308.681 119.435 308.436 118.082L311.309 117.645C311.488 118.394 311.856 118.961 312.413 119.345C312.97 119.723 313.696 119.912 314.591 119.912C315.565 119.912 316.344 119.71 316.927 119.305C317.511 118.894 317.802 118.394 317.802 117.804C317.802 117.327 317.623 116.926 317.265 116.601C316.914 116.276 316.374 116.031 315.645 115.865L313.059 115.298C311.634 114.973 310.58 114.456 309.897 113.747C309.221 113.038 308.883 112.14 308.883 111.053C308.883 110.151 309.135 109.362 309.639 108.686C310.143 108.01 310.839 107.483 311.727 107.105C312.615 106.721 313.633 106.528 314.779 106.528C316.43 106.528 317.729 106.886 318.677 107.602C319.625 108.312 320.252 109.263 320.556 110.456Z" fill="white"/>
<path d="M27 57H94V60H27V57Z" fill="white"/>
<path d="M27 66H94V69H27V66Z" fill="white"/>
<path d="M31 72H44V75H31V72Z" fill="white"/>
<path d="M57 72H47V75H57V72Z" fill="white"/>
<path d="M31 78H57V81H31V78Z" fill="white"/>
<path fill-rule="evenodd" clip-rule="evenodd" d="M86 80H80V86H86V80ZM77 77V89H89V77H77Z" fill="white"/>
<path d="M97 57H99V60H97V57Z" fill="white"/>
<path d="M101 57H107V60H101V57Z" fill="white"/>
<path d="M109 57H115V60H109V57Z" fill="white"/>
<path d="M94 83V86H97V83H94Z" fill="white"/>
<path fill-rule="evenodd" clip-rule="evenodd" d="M117 41H54C52.8954 41 52 41.8954 52 43V48H92C94.7614 48 97 50.2386 97 53V67.101C95.7628 68.3636 95 70.0927 95 72C95 73.9073 95.7628 75.6364 97 76.899V83H94V53C94 51.8954 93.1046 51 92 51H52H49H29C27.8954 51 27 51.8954 27 53V91C27 92.1046 27.8954 93 29 93H92C93.1046 93 94 92.1046 94 91V86H97V91C97 93.7614 94.7614 96 92 96H29C26.2386 96 24 93.7614 24 91V53C24 50.2386 26.2386 48 29 48H49V43C49 40.2386 51.2386 38 54 38H117C119.761 38 122 40.2386 122 43V81C122 83.7614 119.761 86 117 86H97V83H117C118.105 83 119 82.1046 119 81V43C119 41.8954 118.105 41 117 41ZM105 65.6736C104.091 65.2417 103.074 65 102 65C100.041 65 98.2705 65.8045 97 67.101V76.899C98.2705 78.1955 100.041 79 102 79C103.074 79 104.091 78.7583 105 78.3264C105.909 78.7583 106.926 79 108 79C111.866 79 115 75.866 115 72C115 68.134 111.866 65 108 65C106.926 65 105.909 65.2417 105 65.6736ZM107.751 68.0076C107.056 67.0091 106.108 66.2001 105 65.6736C103.892 66.2001 102.944 67.0091 102.249 68.0076C102.167 68.0026 102.084 68 102 68C99.7909 68 98 69.7909 98 72C98 74.2091 99.7909 76 102 76C102.084 76 102.167 75.9974 102.249 75.9924C101.462 74.86 101 73.4839 101 72C101 70.5161 101.462 69.14 102.249 68.0076C103.343 68.0749 104.318 68.582 105 69.3542C104.378 70.0593 104 70.9856 104 72C104 73.0144 104.378 73.9407 105 74.6458C105.682 75.418 106.657 75.9251 107.751 75.9924C107.833 75.9974 107.916 76 108 76C110.209 76 112 74.2091 112 72C112 69.7909 110.209 68 108 68C107.916 68 107.833 68.0026 107.751 68.0076Z" fill="white"/>
<path d="M105 69.3542C105.682 68.582 106.657 68.0749 107.751 68.0076C107.056 67.0091 106.108 66.2001 105 65.6736C103.892 66.2001 102.944 67.0091 102.249 68.0076C103.343 68.0749 104.318 68.582 105 69.3542Z" fill="white"/>
<path d="M97 76.899V67.101C95.7628 68.3636 95 70.0927 95 72C95 73.9073 95.7628 75.6364 97 76.899Z" fill="white"/>
<defs>
<filter id="filter0_d_3090_14" x="0" y="0" width="143" height="143" filterUnits="userSpaceOnUse" color-interpolation-filters="sRGB">
<feFlood flood-opacity="0" result="BackgroundImageFix"/>
<feColorMatrix in="SourceAlpha" type="matrix" values="0 0 0 0 0 0 0 0 0 0 0 0 0 0 0 0 0 0 127 0" result="hardAlpha"/>
<feOffset dy="4"/>
<feGaussianBlur stdDeviation="2"/>
<feComposite in2="hardAlpha" operator="out"/>
<feColorMatrix type="matrix" values="0 0 0 0 0 0 0 0 0 0 0 0 0 0 0 0 0 0 0.31 0"/>
<feBlend mode="normal" in2="BackgroundImageFix" result="effect1_dropShadow_3090_14"/>
<feBlend mode="normal" in="SourceGraphic" in2="effect1_dropShadow_3090_14" result="shape"/>
</filter>
</defs>
</svg>
