<svg width="365" height="178" viewBox="0 0 365 178" fill="none" xmlns="http://www.w3.org/2000/svg">
<rect x="74" y="41" width="290" height="136" rx="9" stroke="white" stroke-width="2"fill="transparent"/>
<g filter="url(#filter0_d_3090_148)">
<rect x="4" width="135" height="135" rx="20" fill="#00BFF8"/>
</g>
<path d="M193.208 98V77.6364H200.466C202.051 77.6364 203.363 77.9247 204.404 78.5014C205.445 79.0781 206.224 79.8669 206.741 80.8679C207.258 81.8622 207.516 82.9825 207.516 84.2287C207.516 85.4815 207.254 86.6084 206.731 87.6094C206.214 88.6037 205.431 89.3925 204.384 89.9759C203.343 90.5526 202.034 90.8409 200.456 90.8409H195.465V88.2358H200.178C201.179 88.2358 201.991 88.0634 202.614 87.7188C203.237 87.3674 203.695 86.8902 203.986 86.2869C204.278 85.6837 204.424 84.9976 204.424 84.2287C204.424 83.4598 204.278 82.777 203.986 82.1804C203.695 81.5838 203.234 81.1165 202.604 80.7784C201.981 80.4403 201.159 80.2713 200.138 80.2713H196.28V98H193.208ZM210.879 98V82.7273H213.753V85.1534H213.912C214.191 84.3314 214.681 83.6851 215.384 83.2145C216.093 82.7372 216.895 82.4986 217.79 82.4986C217.976 82.4986 218.194 82.5052 218.446 82.5185C218.705 82.5317 218.907 82.5483 219.053 82.5682V85.4119C218.933 85.3788 218.721 85.3423 218.416 85.3026C218.111 85.2562 217.807 85.233 217.502 85.233C216.799 85.233 216.173 85.3821 215.622 85.6804C215.079 85.9721 214.648 86.3797 214.33 86.9034C214.012 87.4205 213.852 88.0104 213.852 88.6733V98H210.879ZM225.933 98.3381C224.966 98.3381 224.091 98.1591 223.308 97.8011C222.526 97.4366 221.906 96.9096 221.449 96.2202C220.998 95.5308 220.773 94.6856 220.773 93.6847C220.773 92.8229 220.939 92.1136 221.27 91.5568C221.602 91 222.049 90.5592 222.612 90.2344C223.176 89.9096 223.806 89.6643 224.502 89.4986C225.198 89.3329 225.907 89.2069 226.629 89.1207C227.544 89.0147 228.287 88.9285 228.857 88.8622C229.427 88.7893 229.841 88.6733 230.1 88.5142C230.358 88.3551 230.487 88.0966 230.487 87.7386V87.669C230.487 86.8007 230.242 86.1278 229.752 85.6506C229.268 85.1733 228.545 84.9347 227.584 84.9347C226.583 84.9347 225.794 85.1567 225.218 85.6009C224.647 86.0384 224.253 86.5256 224.034 87.0625L221.24 86.4261C221.572 85.4981 222.056 84.7491 222.692 84.179C223.335 83.6023 224.074 83.1847 224.909 82.9261C225.744 82.661 226.623 82.5284 227.544 82.5284C228.154 82.5284 228.8 82.6013 229.483 82.7472C230.173 82.8864 230.816 83.1449 231.412 83.5227C232.015 83.9006 232.509 84.4408 232.894 85.1435C233.278 85.8395 233.47 86.7443 233.47 87.858V98H230.567V95.9119H230.448C230.255 96.2964 229.967 96.6742 229.583 97.0455C229.198 97.4167 228.704 97.7249 228.101 97.9702C227.498 98.2154 226.775 98.3381 225.933 98.3381ZM226.58 95.9517C227.402 95.9517 228.104 95.7893 228.688 95.4645C229.278 95.1397 229.725 94.7154 230.03 94.1918C230.342 93.6615 230.497 93.0947 230.497 92.4915V90.5227C230.391 90.6288 230.186 90.7282 229.881 90.821C229.583 90.9072 229.241 90.9834 228.857 91.0497C228.472 91.1094 228.098 91.1657 227.733 91.2188C227.369 91.2652 227.064 91.3049 226.818 91.3381C226.242 91.411 225.715 91.5336 225.237 91.706C224.767 91.8783 224.389 92.1269 224.104 92.4517C223.825 92.7699 223.686 93.1941 223.686 93.7244C223.686 94.4602 223.958 95.017 224.502 95.3949C225.045 95.7661 225.738 95.9517 226.58 95.9517ZM243.863 98.3082C242.385 98.3082 241.113 97.9735 240.045 97.304C238.985 96.6278 238.169 95.6965 237.599 94.5099C237.029 93.3234 236.744 91.9645 236.744 90.4332C236.744 88.8821 237.036 87.5133 237.619 86.3267C238.202 85.1335 239.024 84.2022 240.085 83.5327C241.146 82.8632 242.395 82.5284 243.834 82.5284C244.994 82.5284 246.028 82.7438 246.936 83.1747C247.844 83.599 248.577 84.1955 249.133 84.9645C249.697 85.7334 250.032 86.6316 250.138 87.6591H247.244C247.085 86.9432 246.72 86.3267 246.15 85.8097C245.587 85.2926 244.831 85.0341 243.883 85.0341C243.055 85.0341 242.329 85.2528 241.706 85.6903C241.089 86.1212 240.609 86.7377 240.264 87.5398C239.919 88.3352 239.747 89.2765 239.747 90.3636C239.747 91.4773 239.916 92.4384 240.254 93.2472C240.592 94.0559 241.069 94.6823 241.686 95.1264C242.309 95.5705 243.041 95.7926 243.883 95.7926C244.447 95.7926 244.957 95.6899 245.415 95.4844C245.879 95.2723 246.266 94.9706 246.578 94.5795C246.896 94.1884 247.118 93.7178 247.244 93.1676H250.138C250.032 94.1553 249.71 95.0369 249.173 95.8125C248.636 96.5881 247.917 97.1979 247.015 97.642C246.121 98.0862 245.07 98.3082 243.863 98.3082ZM260.446 82.7273V85.1136H252.104V82.7273H260.446ZM254.341 79.0682H257.314V93.5156C257.314 94.0923 257.4 94.5265 257.573 94.8182C257.745 95.1032 257.967 95.2988 258.239 95.4048C258.517 95.5043 258.819 95.554 259.144 95.554C259.382 95.554 259.591 95.5374 259.77 95.5043C259.949 95.4711 260.088 95.4446 260.188 95.4247L260.725 97.8807C260.552 97.947 260.307 98.0133 259.989 98.0795C259.671 98.1525 259.273 98.1922 258.796 98.1989C258.013 98.2121 257.284 98.0729 256.608 97.7812C255.932 97.4896 255.385 97.0388 254.968 96.429C254.55 95.8191 254.341 95.0535 254.341 94.1321V79.0682ZM263.735 98V82.7273H266.708V98H263.735ZM265.236 80.3707C264.719 80.3707 264.275 80.1984 263.904 79.8537C263.539 79.5024 263.357 79.0848 263.357 78.6009C263.357 78.1103 263.539 77.6927 263.904 77.348C264.275 76.9967 264.719 76.821 265.236 76.821C265.753 76.821 266.194 76.9967 266.559 77.348C266.93 77.6927 267.116 78.1103 267.116 78.6009C267.116 79.0848 266.93 79.5024 266.559 79.8537C266.194 80.1984 265.753 80.3707 265.236 80.3707ZM277.141 98.3082C275.663 98.3082 274.39 97.9735 273.323 97.304C272.262 96.6278 271.447 95.6965 270.877 94.5099C270.307 93.3234 270.021 91.9645 270.021 90.4332C270.021 88.8821 270.313 87.5133 270.896 86.3267C271.48 85.1335 272.302 84.2022 273.362 83.5327C274.423 82.8632 275.673 82.5284 277.111 82.5284C278.271 82.5284 279.305 82.7438 280.213 83.1747C281.121 83.599 281.854 84.1955 282.411 84.9645C282.974 85.7334 283.309 86.6316 283.415 87.6591H280.521C280.362 86.9432 279.998 86.3267 279.428 85.8097C278.864 85.2926 278.109 85.0341 277.161 85.0341C276.332 85.0341 275.606 85.2528 274.983 85.6903C274.367 86.1212 273.886 86.7377 273.541 87.5398C273.197 88.3352 273.024 89.2765 273.024 90.3636C273.024 91.4773 273.193 92.4384 273.531 93.2472C273.869 94.0559 274.347 94.6823 274.963 95.1264C275.586 95.5705 276.319 95.7926 277.161 95.7926C277.724 95.7926 278.235 95.6899 278.692 95.4844C279.156 95.2723 279.544 94.9706 279.855 94.5795C280.173 94.1884 280.396 93.7178 280.521 93.1676H283.415C283.309 94.1553 282.987 95.0369 282.45 95.8125C281.914 96.5881 281.194 97.1979 280.293 97.642C279.398 98.0862 278.347 98.3082 277.141 98.3082ZM293.177 98.3082C291.672 98.3082 290.376 97.9867 289.289 97.3438C288.208 96.6941 287.373 95.7827 286.783 94.6094C286.2 93.4295 285.908 92.0473 285.908 90.4631C285.908 88.8987 286.2 87.5199 286.783 86.3267C287.373 85.1335 288.195 84.2022 289.249 83.5327C290.31 82.8632 291.549 82.5284 292.968 82.5284C293.83 82.5284 294.665 82.6709 295.474 82.956C296.282 83.241 297.008 83.6884 297.651 84.2983C298.294 84.9081 298.801 85.7003 299.172 86.6747C299.544 87.6425 299.729 88.8191 299.729 90.2045V91.2585H287.589V89.0312H296.816C296.816 88.2491 296.657 87.5563 296.339 86.9531C296.02 86.3433 295.573 85.8627 294.996 85.5114C294.426 85.16 293.757 84.9844 292.988 84.9844C292.153 84.9844 291.423 85.1899 290.8 85.6009C290.184 86.0052 289.706 86.5355 289.368 87.1918C289.037 87.8414 288.871 88.5473 288.871 89.3097V91.0497C288.871 92.0705 289.05 92.9389 289.408 93.6548C289.773 94.3707 290.28 94.9176 290.93 95.2955C291.579 95.6667 292.338 95.8523 293.206 95.8523C293.77 95.8523 294.284 95.7727 294.748 95.6136C295.212 95.4479 295.613 95.2027 295.951 94.8778C296.289 94.553 296.547 94.152 296.726 93.6747L299.54 94.1818C299.315 95.0104 298.911 95.7363 298.327 96.3594C297.751 96.9759 297.025 97.4564 296.15 97.8011C295.281 98.1392 294.29 98.3082 293.177 98.3082ZM200.285 125.456L197.59 125.933C197.478 125.589 197.299 125.26 197.053 124.949C196.815 124.637 196.49 124.382 196.079 124.183C195.668 123.984 195.154 123.885 194.538 123.885C193.696 123.885 192.993 124.074 192.43 124.452C191.866 124.823 191.585 125.304 191.585 125.893C191.585 126.404 191.774 126.815 192.151 127.126C192.529 127.438 193.139 127.693 193.981 127.892L196.407 128.449C197.812 128.774 198.86 129.274 199.549 129.95C200.239 130.626 200.583 131.505 200.583 132.585C200.583 133.5 200.318 134.315 199.788 135.031C199.264 135.741 198.532 136.297 197.59 136.702C196.656 137.106 195.572 137.308 194.339 137.308C192.629 137.308 191.233 136.944 190.153 136.214C189.072 135.479 188.41 134.435 188.164 133.082L191.038 132.645C191.217 133.394 191.585 133.961 192.142 134.345C192.698 134.723 193.424 134.912 194.319 134.912C195.294 134.912 196.072 134.71 196.656 134.305C197.239 133.894 197.531 133.394 197.531 132.804C197.531 132.327 197.352 131.926 196.994 131.601C196.642 131.276 196.102 131.031 195.373 130.865L192.788 130.298C191.363 129.973 190.309 129.456 189.626 128.747C188.95 128.038 188.612 127.14 188.612 126.053C188.612 125.151 188.864 124.362 189.367 123.686C189.871 123.01 190.567 122.483 191.455 122.105C192.344 121.721 193.361 121.528 194.508 121.528C196.159 121.528 197.458 121.886 198.406 122.602C199.354 123.312 199.98 124.263 200.285 125.456ZM210.285 137.308C208.854 137.308 207.604 136.98 206.537 136.324C205.47 135.668 204.641 134.75 204.051 133.57C203.461 132.39 203.166 131.011 203.166 129.433C203.166 127.849 203.461 126.464 204.051 125.277C204.641 124.09 205.47 123.169 206.537 122.513C207.604 121.857 208.854 121.528 210.285 121.528C211.717 121.528 212.967 121.857 214.034 122.513C215.101 123.169 215.93 124.09 216.52 125.277C217.11 126.464 217.405 127.849 217.405 129.433C217.405 131.011 217.11 132.39 216.52 133.57C215.93 134.75 215.101 135.668 214.034 136.324C212.967 136.98 211.717 137.308 210.285 137.308ZM210.295 134.812C211.223 134.812 211.992 134.567 212.602 134.077C213.212 133.586 213.663 132.933 213.954 132.118C214.253 131.303 214.402 130.404 214.402 129.423C214.402 128.449 214.253 127.554 213.954 126.739C213.663 125.917 213.212 125.257 212.602 124.76C211.992 124.263 211.223 124.014 210.295 124.014C209.361 124.014 208.585 124.263 207.969 124.76C207.359 125.257 206.905 125.917 206.606 126.739C206.315 127.554 206.169 128.449 206.169 129.423C206.169 130.404 206.315 131.303 206.606 132.118C206.905 132.933 207.359 133.586 207.969 134.077C208.585 134.567 209.361 134.812 210.295 134.812ZM227.992 121.727V124.114H219.361V121.727H227.992ZM221.727 137V119.957C221.727 119.003 221.936 118.211 222.354 117.581C222.771 116.945 223.325 116.471 224.014 116.159C224.704 115.841 225.453 115.682 226.262 115.682C226.858 115.682 227.369 115.732 227.793 115.831C228.217 115.924 228.532 116.01 228.737 116.089L228.041 118.496C227.902 118.456 227.723 118.41 227.504 118.357C227.286 118.297 227.021 118.267 226.709 118.267C225.986 118.267 225.469 118.446 225.158 118.804C224.853 119.162 224.7 119.679 224.7 120.355V137H221.727ZM238.188 121.727V124.114H229.846V121.727H238.188ZM232.083 118.068H235.056V132.516C235.056 133.092 235.142 133.527 235.315 133.818C235.487 134.103 235.709 134.299 235.981 134.405C236.259 134.504 236.561 134.554 236.886 134.554C237.124 134.554 237.333 134.537 237.512 134.504C237.691 134.471 237.83 134.445 237.93 134.425L238.467 136.881C238.294 136.947 238.049 137.013 237.731 137.08C237.413 137.152 237.015 137.192 236.538 137.199C235.756 137.212 235.026 137.073 234.35 136.781C233.674 136.49 233.127 136.039 232.71 135.429C232.292 134.819 232.083 134.054 232.083 133.132V118.068ZM244.788 137L240.294 121.727H243.366L246.359 132.943H246.508L249.511 121.727H252.584L255.567 132.893H255.716L258.689 121.727H261.761L257.277 137H254.244L251.142 125.973H250.913L247.811 137H244.788ZM269.027 137.338C268.059 137.338 267.184 137.159 266.402 136.801C265.62 136.437 265 135.91 264.543 135.22C264.092 134.531 263.867 133.686 263.867 132.685C263.867 131.823 264.032 131.114 264.364 130.557C264.695 130 265.143 129.559 265.706 129.234C266.27 128.91 266.899 128.664 267.595 128.499C268.291 128.333 269.001 128.207 269.723 128.121C270.638 128.015 271.38 127.929 271.95 127.862C272.521 127.789 272.935 127.673 273.193 127.514C273.452 127.355 273.581 127.097 273.581 126.739V126.669C273.581 125.801 273.336 125.128 272.845 124.651C272.361 124.173 271.639 123.935 270.678 123.935C269.677 123.935 268.888 124.157 268.311 124.601C267.741 125.038 267.347 125.526 267.128 126.062L264.334 125.426C264.665 124.498 265.149 123.749 265.786 123.179C266.429 122.602 267.168 122.185 268.003 121.926C268.838 121.661 269.717 121.528 270.638 121.528C271.248 121.528 271.894 121.601 272.577 121.747C273.266 121.886 273.909 122.145 274.506 122.523C275.109 122.901 275.603 123.441 275.987 124.143C276.372 124.839 276.564 125.744 276.564 126.858V137H273.661V134.912H273.541C273.349 135.296 273.061 135.674 272.676 136.045C272.292 136.417 271.798 136.725 271.195 136.97C270.592 137.215 269.869 137.338 269.027 137.338ZM269.673 134.952C270.495 134.952 271.198 134.789 271.781 134.464C272.371 134.14 272.819 133.715 273.124 133.192C273.435 132.661 273.591 132.095 273.591 131.491V129.523C273.485 129.629 273.28 129.728 272.975 129.821C272.676 129.907 272.335 129.983 271.95 130.05C271.566 130.109 271.191 130.166 270.827 130.219C270.462 130.265 270.157 130.305 269.912 130.338C269.335 130.411 268.808 130.534 268.331 130.706C267.86 130.878 267.483 131.127 267.198 131.452C266.919 131.77 266.78 132.194 266.78 132.724C266.78 133.46 267.052 134.017 267.595 134.395C268.139 134.766 268.832 134.952 269.673 134.952ZM280.524 137V121.727H283.398V124.153H283.557C283.835 123.331 284.326 122.685 285.028 122.214C285.738 121.737 286.54 121.499 287.434 121.499C287.62 121.499 287.839 121.505 288.091 121.518C288.349 121.532 288.551 121.548 288.697 121.568V124.412C288.578 124.379 288.366 124.342 288.061 124.303C287.756 124.256 287.451 124.233 287.146 124.233C286.443 124.233 285.817 124.382 285.267 124.68C284.723 124.972 284.292 125.38 283.974 125.903C283.656 126.42 283.497 127.01 283.497 127.673V137H280.524ZM297.306 137.308C295.801 137.308 294.505 136.987 293.418 136.344C292.337 135.694 291.502 134.783 290.912 133.609C290.329 132.429 290.037 131.047 290.037 129.463C290.037 127.899 290.329 126.52 290.912 125.327C291.502 124.134 292.324 123.202 293.378 122.533C294.439 121.863 295.678 121.528 297.097 121.528C297.959 121.528 298.794 121.671 299.602 121.956C300.411 122.241 301.137 122.688 301.78 123.298C302.423 123.908 302.93 124.7 303.301 125.675C303.673 126.643 303.858 127.819 303.858 129.205V130.259H291.718V128.031H300.945C300.945 127.249 300.786 126.556 300.468 125.953C300.149 125.343 299.702 124.863 299.125 124.511C298.555 124.16 297.886 123.984 297.117 123.984C296.281 123.984 295.552 124.19 294.929 124.601C294.313 125.005 293.835 125.536 293.497 126.192C293.166 126.841 293 127.547 293 128.31V130.05C293 131.071 293.179 131.939 293.537 132.655C293.902 133.371 294.409 133.918 295.058 134.295C295.708 134.667 296.467 134.852 297.335 134.852C297.899 134.852 298.413 134.773 298.877 134.614C299.341 134.448 299.742 134.203 300.08 133.878C300.418 133.553 300.676 133.152 300.855 132.675L303.669 133.182C303.444 134.01 303.039 134.736 302.456 135.359C301.879 135.976 301.154 136.456 300.279 136.801C299.41 137.139 298.419 137.308 297.306 137.308Z" fill="white"/>
<path d="M37.8652 47.5607L36.7966 45.8701L46.5119 39.7291L47.5805 41.4197L37.8652 47.5607Z" fill="white"/>
<path fill-rule="evenodd" clip-rule="evenodd" d="M96.8264 24.0656C92.3342 20.3363 85.7657 20.5446 81.5188 24.551L75.5123 30.2173C72.762 27.887 68.6377 28.0192 66.0432 30.6136L64 32.6568L74.1506 42.8075L76.1938 40.7642C78.6728 38.2852 78.9038 34.4095 76.8867 31.6702L82.8912 26.0058C86.4029 22.693 91.8343 22.5208 95.5489 25.6045C97.7352 27.4195 99.0001 30.1135 99.0001 32.955V83.5H101V32.955C101 29.5186 99.4704 26.2606 96.8264 24.0656ZM76.8867 31.6702C76.6794 31.3888 76.4485 31.1194 76.1938 30.8647L75.9427 30.6136C75.8035 30.4744 75.6599 30.3423 75.5123 30.2173L75.3139 30.4044L76.6863 31.8593L76.8867 31.6702ZM74.7796 39.35L74.1506 39.979L66.8284 32.6568L67.4574 32.0278C69.41 30.0752 72.5759 30.0752 74.5285 32.0278L74.7796 32.279C76.7322 34.2316 76.7322 37.3974 74.7796 39.35Z" fill="white"/>
<path d="M75.3139 30.4044L76.6863 31.8593L76.8867 31.6702C76.6794 31.3888 76.4485 31.1194 76.1938 30.8647L75.9427 30.6136C75.8035 30.4744 75.6599 30.3423 75.5123 30.2173L75.3139 30.4044Z" fill="white"/>
<path fill-rule="evenodd" clip-rule="evenodd" d="M72 91H81V111H83V113H107C107.552 113 108 113.448 108 114V116C108 116.552 107.552 117 107 117H52C51.4477 117 51 116.552 51 116V114C51 113.448 51.4477 113 52 113H70V111H72V91ZM70 111V89H83V111H107C108.657 111 110 112.343 110 114V116C110 117.657 108.657 119 107 119H52C50.3431 119 49 117.657 49 116V114C49 112.343 50.3431 111 52 111H70Z" fill="white"/>
<path d="M81 111H72H70V113H83V111H81Z" fill="white"/>
<path d="M76.8156 78.4718L79.3519 79.1515L79.6683 77.9706C78.779 77.9217 77.9002 77.8119 77.0373 77.6442L76.8156 78.4718Z" fill="white"/>
<path d="M86.6422 67.5603L84.1058 66.8807L83.8059 68H86.5244L86.6422 67.5603Z" fill="white"/>
<path fill-rule="evenodd" clip-rule="evenodd" d="M34.9636 32.765C38.0948 30.5035 42.4936 31.4366 44.4372 34.7744L64.3549 68.981C67.2377 73.5361 71.8505 76.6363 77.0373 77.6442L76.8156 78.4718L79.3519 79.1515L79.6683 77.9706C80.0227 77.9901 80.3787 78 80.7361 78H81.1264L83.8059 68H86.5244L83.8449 78H91.1539C93.8783 78 96.5024 79.0275 98.5024 80.8775L111.643 93.0321C114.275 95.467 114.421 99.5794 111.969 102.195C109.526 104.801 105.433 104.931 102.83 102.485L93.2018 93.4403C91.5329 91.8727 89.3293 91 87.0397 91H74.5299C66.4439 91 59.0033 86.5854 55.1278 79.4893L33.1281 41.3266C31.4549 38.4241 32.2476 34.7265 34.9636 32.765ZM79.6215 68L77.0373 77.6442C77.9002 77.8119 78.779 77.9217 79.6683 77.9706L82.3399 68H83.8059L84.1058 66.8807L86.6422 67.5603L86.5244 68H91C92.6569 68 94 66.6569 94 65C94 63.3431 92.6569 62 91 62H77C75.3431 62 74 63.3431 74 65C74 66.6569 75.3431 68 77 68H79.6215ZM79.6215 68H82.3399L82.4577 67.5603L79.9214 66.8807L79.6215 68ZM56 79L56.8779 78.5211C60.4013 84.9808 67.1718 89 74.5299 89H87.0397C89.8382 89 92.5314 90.0666 94.5711 91.9826L104.2 101.028C105.997 102.716 108.823 102.626 110.51 100.827C112.203 99.0212 112.102 96.1816 110.284 94.5003L97.1443 82.3457C95.514 80.8376 93.3748 80 91.1539 80H80.7361C73.3983 80 66.5728 76.238 62.6545 70.034L62.6449 70.0187L42.7088 35.7808C41.3601 33.4645 38.3075 32.817 36.1345 34.3863C34.2498 35.7475 33.6997 38.3135 34.8608 40.3277L56.8663 78.5005L56 79ZM91 64H77C76.4477 64 76 64.4477 76 65C76 65.5523 76.4477 66 77 66H91C91.5523 66 92 65.5523 92 65C92 64.4477 91.5523 64 91 64Z" fill="white"/>
<path d="M82.4577 67.5603L79.9214 66.8807L79.6215 68H82.3399L82.4577 67.5603Z" fill="white"/>
<defs>
<filter id="filter0_d_3090_148" x="0" y="0" width="143" height="143" filterUnits="userSpaceOnUse" color-interpolation-filters="sRGB">
<feFlood flood-opacity="0" result="BackgroundImageFix"/>
<feColorMatrix in="SourceAlpha" type="matrix" values="0 0 0 0 0 0 0 0 0 0 0 0 0 0 0 0 0 0 127 0" result="hardAlpha"/>
<feOffset dy="4"/>
<feGaussianBlur stdDeviation="2"/>
<feComposite in2="hardAlpha" operator="out"/>
<feColorMatrix type="matrix" values="0 0 0 0 0 0 0 0 0 0 0 0 0 0 0 0 0 0 0.31 0"/>
<feBlend mode="normal" in2="BackgroundImageFix" result="effect1_dropShadow_3090_148"/>
<feBlend mode="normal" in="SourceGraphic" in2="effect1_dropShadow_3090_148" result="shape"/>
</filter>
</defs>
</svg>
